<svg width="60" height="60" viewBox="0 0 60 60" fill="none" xmlns="http://www.w3.org/2000/svg">
<path d="M24 24.7266H12V28.2422H24V24.7266Z" fill="white"/>
<path d="M20 31.7578H16V35.2734H20V31.7578Z" fill="white"/>
<path d="M42 28.2422C38.6916 28.2422 36 30.6079 36 33.5156C36 36.4234 38.6916 38.7891 42 38.7891C45.3084 38.7891 48 36.4234 48 33.5156C48 30.6079 45.3085 28.2422 42 28.2422ZM42 35.2734C40.8972 35.2734 40 34.4849 40 33.5156C40 32.5464 40.8972 31.7578 42 31.7578C43.1028 31.7578 44 32.5464 44 33.5156C44 34.4849 43.1029 35.2734 42 35.2734Z" fill="white"/>
<path d="M55.9555 24.7266C55.1611 9.18855 43.7521 0 30.0003 0H4V25.6916C1.56053 26.9318 0 29.2354 0 31.7578C0 34.9956 2.54667 37.7646 6.01653 38.5459C9.43227 48.8625 18.0423 60 30 60C41.9333 60 50.4752 48.925 53.9028 38.7891H60V24.7266H55.9555ZM28 3.51562V10.6641H12V18.725L8 22.2407V3.51562H28ZM9.53707 36.5484L9.1708 35.3263L7.736 35.2423C5.64107 35.1195 4 33.589 4 31.7578C4 30.2866 5.07293 28.9629 6.66987 28.464L8 28.0484V27.2125L16 20.1812V14.1797H28V45.518C25.6721 44.7923 24 42.8385 24 40.5469H20C20 44.7913 23.4411 48.3424 28 49.1591V56.3357C20.1812 55.1784 12.7791 47.3671 9.53707 36.5484ZM56 35.2734H50.8469L50.4535 36.5821C47.206 47.3812 39.8081 55.1789 32 56.3355V49.3359H40V45.8203H32V3.59004C44.0465 4.4809 52 13.4544 52 26.4844V28.2422H56V35.2734Z" fill="white"/>
<path d="M48 21.2109H44V24.7031H48V21.2109Z" fill="white"/>
<path d="M40 21.2109H36V24.7031H40V21.2109Z" fill="white"/>
</svg>
