<svg width="120" height="120" viewBox="0 0 120 120" fill="none" xmlns="http://www.w3.org/2000/svg">
<g clip-path="url(#clip0)">
<path d="M80 79.9998C91.0457 79.9998 100 71.0455 100 59.9998C100 48.9541 91.0457 39.9998 80 39.9998C68.9543 39.9998 60 48.9541 60 59.9998C60 71.0455 68.9543 79.9998 80 79.9998Z" fill="#19BCFE"/>
<path fill-rule="evenodd" clip-rule="evenodd" d="M40 120C45.3043 120 50.3914 117.893 54.1421 114.142C57.8929 110.392 60 105.305 60 100V80.0002H40C34.6957 80.0002 29.6086 82.1074 25.8579 85.8581C22.1072 89.6088 20 94.6959 20 100C20 105.305 22.1072 110.392 25.8579 114.142C29.6086 117.893 34.6957 120 40 120V120Z" fill="#09CF83"/>
<path fill-rule="evenodd" clip-rule="evenodd" d="M40 79.9998H60V39.9998H40C34.6957 39.9998 29.6086 42.1069 25.8579 45.8576C22.1072 49.6083 20 54.6954 20 59.9998C20 65.3041 22.1072 70.3912 25.8579 74.1419C29.6086 77.8926 34.6957 79.9998 40 79.9998V79.9998Z" fill="#A259FF"/>
<path fill-rule="evenodd" clip-rule="evenodd" d="M40 40H60V0H40C34.6957 0 29.6086 2.10714 25.8579 5.85787C22.1072 9.60859 20 14.6957 20 20C20 25.3043 22.1072 30.3914 25.8579 34.1421C29.6086 37.8929 34.6957 40 40 40V40Z" fill="#F24E1E"/>
<path fill-rule="evenodd" clip-rule="evenodd" d="M80 40H60V0H80C85.3043 0 90.3914 2.10714 94.1421 5.85787C97.8928 9.60859 100 14.6957 100 20C100 25.3043 97.8928 30.3914 94.1421 34.1421C90.3914 37.8929 85.3043 40 80 40Z" fill="#FF7262"/>
</g>
<defs>
<clipPath id="clip0">
<rect width="120" height="120" fill="white"/>
</clipPath>
</defs>
</svg>
