<svg width="60" height="60" viewBox="0 0 60 60" fill="none" xmlns="http://www.w3.org/2000/svg">
<path d="M15 60C23.28 60 30 55.52 30 50V40H15C6.72 40 0 44.48 0 50C0 55.52 6.72 60 15 60Z" fill="#0ACF83"/>
<path d="M0 30C0 24.48 6.72 20 15 20H30V40H15C6.72 40 0 35.52 0 30Z" fill="#A259FF"/>
<path d="M0 10C0 4.48 6.72 0 15 0H30V20H15C6.72 20 0 15.52 0 10Z" fill="#F24E1E"/>
<path d="M30 0H45C53.28 0 60 4.48 60 10C60 15.52 53.28 20 45 20H30V0Z" fill="#FF7262"/>
<path d="M60 30C60 35.52 53.28 40 45 40C36.72 40 30 35.52 30 30C30 24.48 36.72 20 45 20C53.28 20 60 24.48 60 30Z" fill="#1ABCFE"/>
</svg>
