<svg width="60" height="60" viewBox="0 0 60 60" fill="none" xmlns="http://www.w3.org/2000/svg">
<path d="M0 48.3757L0.497578 47.8677L24.0298 15.3012L24.0795 14.9564L13.7062 0.744932C12.8367 -0.445495 10.3898 -0.14447 10.1048 1.18818L0 48.3757Z" fill="#FFC24A"/>
<path d="M0.293671 47.9886L0.669843 47.4534L23.9557 15.228L13.608 0.958816C12.7481 -0.219133 10.5642 0.0812092 10.282 1.39984L0.293671 47.9886Z" fill="#FFA712"/>
<g filter="url(#filter0_i)">
<path d="M0.293671 47.9886L0.669843 47.4534L23.9557 15.228L13.608 0.958816C12.7481 -0.219133 10.5642 0.0812092 10.282 1.39984L0.293671 47.9886Z" fill="black"/>
</g>
<path d="M31.6418 25.7059L39.3656 19.9367L31.6395 9.17942C30.9061 8.16113 28.8584 8.15806 28.1327 9.17942L24.0047 14.9208V15.4097L31.6416 25.7059H31.6418Z" fill="#F4BD62"/>
<path d="M31.504 25.4657L39.0131 19.8568L31.504 9.42825C30.791 8.43834 29.0588 8.33458 28.3533 9.3274L24.2037 15.158L24.0795 15.4561L31.504 25.4657V25.4657Z" fill="#FFA50E"/>
<g filter="url(#filter1_i)">
<path d="M31.504 25.4657L39.0131 19.8568L31.504 9.42825C30.791 8.43834 29.0588 8.33458 28.3533 9.3274L24.2037 15.158L24.0795 15.4561L31.504 25.4657V25.4657Z" fill="black"/>
</g>
<path d="M0 48.3756L0.225469 48.2102L1.04484 47.9674L31.1566 26.0871L31.5382 25.3296L24.0265 14.8896L0 48.3756Z" fill="#F6820C"/>
<path d="M32.6065 59.4109L59.8584 48.3259L52.0763 13.3695C51.8327 12.2758 49.9931 11.8435 48.9197 12.6276L0 48.3762L27.0956 59.41C27.9378 59.753 28.8863 59.9331 29.8509 59.9332C30.8155 59.9334 31.7641 59.7535 32.6065 59.4109" fill="#FDE068"/>
<path d="M59.6142 48.2328L51.8911 13.5418C51.6497 12.4564 50.1197 12.0073 49.0544 12.7856L0.302338 48.308L27.1005 59.2324C27.9363 59.5728 28.8776 59.7515 29.8348 59.7517C30.792 59.7519 31.7334 59.5735 32.5694 59.2334L59.6144 48.2326L59.6142 48.2328Z" fill="#FCCA3F"/>
<path d="M32.607 59.0837C31.7646 59.4263 30.8161 59.6061 29.8516 59.606C28.887 59.6058 27.9386 59.4257 27.0964 59.0828L0.218976 48.2076L0.00100708 48.3756L27.0964 59.4095C27.9386 59.7524 28.8871 59.9325 29.8517 59.9327C30.8163 59.9328 31.7648 59.753 32.6073 59.4103L59.8592 48.3254L59.7924 48.0259L32.6073 59.0838L32.607 59.0837Z" fill="#EEAB37"/>
<defs>
<filter id="filter0_i" x="0.293671" y="0.222656" width="23.662" height="47.7659" filterUnits="userSpaceOnUse" color-interpolation-filters="sRGB">
<feFlood flood-opacity="0" result="BackgroundImageFix"/>
<feBlend mode="normal" in="SourceGraphic" in2="BackgroundImageFix" result="shape"/>
<feColorMatrix in="SourceAlpha" type="matrix" values="0 0 0 0 0 0 0 0 0 0 0 0 0 0 0 0 0 0 127 0" result="hardAlpha"/>
<feOffset/>
<feGaussianBlur stdDeviation="17.5"/>
<feComposite in2="hardAlpha" operator="arithmetic" k2="-1" k3="1"/>
<feColorMatrix type="matrix" values="0 0 0 0 0 0 0 0 0 0 0 0 0 0 0 0 0 0 0.06 0"/>
<feBlend mode="normal" in2="shape" result="effect1_innerShadow"/>
</filter>
<filter id="filter1_i" x="24.0795" y="1.63232" width="15.9337" height="23.8334" filterUnits="userSpaceOnUse" color-interpolation-filters="sRGB">
<feFlood flood-opacity="0" result="BackgroundImageFix"/>
<feBlend mode="normal" in="SourceGraphic" in2="BackgroundImageFix" result="shape"/>
<feColorMatrix in="SourceAlpha" type="matrix" values="0 0 0 0 0 0 0 0 0 0 0 0 0 0 0 0 0 0 127 0" result="hardAlpha"/>
<feOffset dx="1" dy="-9"/>
<feGaussianBlur stdDeviation="3.5"/>
<feComposite in2="hardAlpha" operator="arithmetic" k2="-1" k3="1"/>
<feColorMatrix type="matrix" values="0 0 0 0 0 0 0 0 0 0 0 0 0 0 0 0 0 0 0.09 0"/>
<feBlend mode="normal" in2="shape" result="effect1_innerShadow"/>
</filter>
</defs>
</svg>
