<svg width="120" height="120" viewBox="0 0 120 120" fill="none" xmlns="http://www.w3.org/2000/svg">
<path d="M0 96.7515L0.995156 95.7354L48.0595 30.6025L48.1589 29.9129L27.4125 1.48999C25.6734 -0.890869 20.7797 -0.288817 20.2097 2.37648L0 96.7515Z" fill="#FFC24A"/>
<path d="M0.587402 95.9767L1.33975 94.9063L47.9115 30.4557L27.2162 1.91727C25.4963 -0.438631 21.1285 0.162052 20.5641 2.79932L0.587402 95.9767Z" fill="#FFA712"/>
<g filter="url(#filter0_i)">
<path d="M0.587402 95.9767L1.33975 94.9063L47.9115 30.4557L27.2162 1.91727C25.4963 -0.438631 21.1285 0.162052 20.5641 2.79932L0.587402 95.9767Z" fill="black"/>
</g>
<path d="M63.2835 51.412L78.7312 39.8735L63.2788 18.359C61.8121 16.3224 57.7166 16.3162 56.2654 18.359L48.0093 29.8417V30.8195L63.283 51.412H63.2835Z" fill="#F4BD62"/>
<path d="M63.0082 50.9313L78.0265 39.7135L63.0082 18.8564C61.5823 16.8766 58.1178 16.669 56.7068 18.6547L48.4076 30.3159L48.1592 30.9121L63.0082 50.9313V50.9313Z" fill="#FFA50E"/>
<g filter="url(#filter1_i)">
<path d="M63.0082 50.9313L78.0265 39.7135L63.0082 18.8564C61.5823 16.8766 58.1178 16.669 56.7068 18.6547L48.4076 30.3159L48.1592 30.9121L63.0082 50.9313V50.9313Z" fill="black"/>
</g>
<path d="M0 96.7515L0.450938 96.4206L2.08969 95.9351L62.3133 52.1744L63.0764 50.6595L48.053 29.7795L0 96.7515Z" fill="#F6820C"/>
<path d="M65.213 118.821L119.717 96.651L104.153 26.7381C103.665 24.5508 99.9862 23.6862 97.8394 25.2544L0 96.7515L54.1913 118.819C55.8757 119.505 57.7726 119.865 59.7018 119.866C61.631 119.866 63.5282 119.506 65.213 118.821" fill="#FDE068"/>
<path d="M119.228 96.465L103.782 27.0832C103.299 24.9122 100.239 24.0141 98.1087 25.5707L0.604492 96.6155L54.2009 118.464C55.8725 119.145 57.755 119.503 59.6694 119.503C61.5839 119.503 63.4667 119.146 65.1387 118.466L119.229 96.4647L119.228 96.465Z" fill="#FCCA3F"/>
<path d="M65.213 118.168C63.5282 118.853 61.6311 119.212 59.7021 119.212C57.773 119.212 55.8761 118.852 54.1918 118.166L0.436914 96.4154L0.000976562 96.7515L54.1918 118.819C55.8762 119.505 57.7732 119.865 59.7023 119.866C61.6315 119.866 63.5287 119.506 65.2135 118.821L119.717 96.651L119.584 96.052L65.2135 118.168L65.213 118.168Z" fill="#EEAB37"/>
<defs>
<filter id="filter0_i" x="0.587402" y="0.444946" width="47.3241" height="95.5318" filterUnits="userSpaceOnUse" color-interpolation-filters="sRGB">
<feFlood flood-opacity="0" result="BackgroundImageFix"/>
<feBlend mode="normal" in="SourceGraphic" in2="BackgroundImageFix" result="shape"/>
<feColorMatrix in="SourceAlpha" type="matrix" values="0 0 0 0 0 0 0 0 0 0 0 0 0 0 0 0 0 0 127 0" result="hardAlpha"/>
<feOffset/>
<feGaussianBlur stdDeviation="17.5"/>
<feComposite in2="hardAlpha" operator="arithmetic" k2="-1" k3="1"/>
<feColorMatrix type="matrix" values="0 0 0 0 0 0 0 0 0 0 0 0 0 0 0 0 0 0 0.06 0"/>
<feBlend mode="normal" in2="shape" result="effect1_innerShadow"/>
</filter>
<filter id="filter1_i" x="48.1592" y="10.2645" width="30.8673" height="40.6667" filterUnits="userSpaceOnUse" color-interpolation-filters="sRGB">
<feFlood flood-opacity="0" result="BackgroundImageFix"/>
<feBlend mode="normal" in="SourceGraphic" in2="BackgroundImageFix" result="shape"/>
<feColorMatrix in="SourceAlpha" type="matrix" values="0 0 0 0 0 0 0 0 0 0 0 0 0 0 0 0 0 0 127 0" result="hardAlpha"/>
<feOffset dx="1" dy="-9"/>
<feGaussianBlur stdDeviation="3.5"/>
<feComposite in2="hardAlpha" operator="arithmetic" k2="-1" k3="1"/>
<feColorMatrix type="matrix" values="0 0 0 0 0 0 0 0 0 0 0 0 0 0 0 0 0 0 0.09 0"/>
<feBlend mode="normal" in2="shape" result="effect1_innerShadow"/>
</filter>
</defs>
</svg>
