<svg width="120" height="120" viewBox="0 0 120 120" fill="none" xmlns="http://www.w3.org/2000/svg">
<path d="M117.734 54.644L65.3318 2.2692C64.6142 1.5499 63.7617 0.979207 62.8232 0.58982C61.8847 0.200434 60.8785 0 59.8624 0C58.8463 0 57.8402 0.200434 56.9016 0.58982C55.9631 0.979207 55.1106 1.5499 54.3931 2.2692L43.5331 13.1461L57.3405 26.9325C58.9625 26.3824 60.7062 26.2977 62.3738 26.688C64.0415 27.0784 65.5663 27.9281 66.7755 29.1409C69.3555 31.7204 70.0755 35.4286 68.9843 38.6305L82.2667 51.9295C83.8941 51.3629 85.6484 51.2675 87.3276 51.6542C89.0068 52.0409 90.5425 52.8941 91.758 54.1154C95.373 57.7073 95.373 63.5263 91.758 67.1219C90.9056 67.9758 89.8933 68.6532 88.7788 69.1154C87.6643 69.5776 86.4696 69.8155 85.263 69.8155C84.0564 69.8155 82.8617 69.5776 81.7472 69.1154C80.6327 68.6532 79.6203 67.9758 78.768 67.1219C77.488 65.8414 76.6129 64.2129 76.2515 62.4389C75.8901 60.665 76.0584 58.8239 76.7355 57.1449L64.293 44.7645V77.3952C65.1705 77.8263 66.0105 78.4112 66.7343 79.1349C70.308 82.7493 70.308 88.5458 66.7343 92.1414C65.0018 93.8666 62.6563 94.8352 60.2112 94.8352C57.766 94.8352 55.4205 93.8666 53.6881 92.1414C52.616 91.0692 51.8257 89.7486 51.3875 88.2972C50.9492 86.8458 50.8766 85.3086 51.1761 83.8224C51.4757 82.3362 52.138 80.947 53.1042 79.7786C54.0705 78.6102 55.3106 77.6987 56.7143 77.1252V44.1833C55.5946 43.7079 54.5744 43.0261 53.7068 42.1737C52.4164 40.8868 51.5393 39.2443 51.188 37.4562C50.8366 35.6682 51.0268 33.816 51.7343 32.1366L38.1781 18.5077L2.24191 54.4191C0.805306 55.8768 0 57.8411 0 59.8875C0 61.934 0.805306 63.8983 2.24191 65.356L54.6443 117.731C55.3619 118.45 56.2144 119.021 57.1529 119.41C58.0914 119.8 59.0975 120 60.1137 120C61.1298 120 62.1359 119.8 63.0744 119.41C64.013 119.021 64.8654 118.45 65.583 117.731L117.73 65.5922C118.45 64.8747 119.021 64.0224 119.41 63.084C119.8 62.1456 120 61.1397 120 60.1237C120 59.1078 119.8 58.1018 119.41 57.1634C119.021 56.2251 118.45 55.3728 117.73 54.6553L117.734 54.644Z" fill="black"/>
</svg>
