<svg width="50" height="50" viewBox="0 0 50 50" fill="none" xmlns="http://www.w3.org/2000/svg">
<path d="M2.6866 37.1874L0 0H29.5187L26.8295 37.181L14.7415 41.317L2.6866 37.1874Z" fill="#E44F26"/>
<path d="M14.7597 38.1579L24.5274 34.8154L26.826 3.04272H14.7597V38.1579Z" fill="#F1662A"/>
<path d="M14.7599 16.8373H9.86953L9.53197 12.1676H14.7599V7.60645H14.7468H5.49249L5.58123 8.82942L6.48953 21.3985H14.7599V16.8373Z" fill="#EBEBEB"/>
<path d="M14.7598 28.682L14.7433 28.6874L10.6272 27.3152L10.3645 23.6785H8.3643H6.65472L7.17238 30.8391L14.7424 33.4322L14.7598 33.4268V28.682Z" fill="#EBEBEB"/>
<path d="M14.7468 16.8386V21.3998H19.297L18.8681 27.3139L14.7468 28.6872V33.432L22.3229 30.8411L22.3786 30.0701L23.2469 18.0637L23.3365 16.8386H22.3412H14.7468Z" fill="white"/>
<path d="M14.7468 7.60645V10.4389V12.1558V12.1676H23.661H23.6732L23.7471 11.1422L23.9159 8.82942L24.0038 7.60645H14.7468Z" fill="white"/>
<path d="M23.1678 45.8695L20.4813 8.68311H50L47.3109 45.8641L35.2224 50.0001L23.1678 45.8695Z" fill="#1572B6"/>
<path d="M35.2408 46.841L45.0091 43.4985L47.3067 11.7258H35.2408V46.841Z" fill="#33A9DC"/>
<path d="M35.2408 25.1963H40.1311L40.4686 20.5255H35.2408V15.9644H35.2539H44.5071L44.4192 17.1884L43.511 29.7564H35.2408V25.1963Z" fill="white"/>
<path d="M35.2633 37.0399L35.2467 37.0453L31.1308 35.6742L30.8681 32.0364H28.868H27.1584L27.6761 39.1971L35.2459 41.7912L35.2633 41.7858V37.0399Z" fill="#EBEBEB"/>
<path d="M39.817 29.563L39.3715 35.6714L35.2504 37.0447V41.7895L42.8263 39.1975L42.8819 38.4277L43.5249 29.563H39.817Z" fill="white"/>
<path d="M35.2537 16.0107V18.8432V20.5612V20.5719H26.3389H26.3276L26.2537 19.5465L26.0849 17.2348L25.997 16.0107H35.2537Z" fill="#EBEBEB"/>
<path d="M35.2408 25.1965V28.029V29.7459V29.7577H31.1893H31.178L31.1031 28.7323L30.9352 26.4206L30.8465 25.1965H35.2408Z" fill="#EBEBEB"/>
</svg>
