<svg width="50" height="50" viewBox="0 0 50 50" fill="none" xmlns="http://www.w3.org/2000/svg">
<path d="M0 0H50V50H0V0Z" fill="#F7DF1E"/>
<path d="M30.0002 41.0939L33.826 38.8789C34.8332 40.5236 36.1422 41.7318 38.4578 41.7318C40.4049 41.7318 41.6463 40.7584 41.6463 39.4158C41.6463 37.8049 40.3709 37.2342 38.2229 36.2947L37.0484 35.7908C33.6584 34.348 31.4098 32.5355 31.4098 28.7094C31.4098 25.1852 34.0947 22.5 38.2902 22.5C41.2773 22.5 43.4254 23.5406 44.9691 26.2592L41.3105 28.6088C40.5049 27.1656 39.6326 26.5951 38.29 26.5951C36.9139 26.5951 36.0412 27.4678 36.0412 28.6088C36.0412 30.0184 36.9139 30.5893 38.9275 31.4619L40.1021 31.9652C44.0963 33.6771 46.3449 35.4223 46.3449 39.3488C46.3449 43.5781 43.0223 45.8937 38.5584 45.8937C34.1953 45.8937 31.376 43.8129 30 41.0941" fill="black"/>
<path d="M15.0002 41.3287L18.8264 39.0131C19.5647 40.3219 20.2361 41.4293 21.8469 41.4293C23.3908 41.4293 24.3645 40.8254 24.3645 38.4762V22.5H29.0631V38.5426C29.0631 43.4092 26.2104 45.6244 22.0482 45.6244C18.2895 45.6244 16.1076 43.6777 15 41.3283" fill="black"/>
</svg>
