<svg width="439" height="439" viewBox="0 0 439 439" fill="none" xmlns="http://www.w3.org/2000/svg">
<g clip-path="url(#clip0)">
<rect x="37" y="47" width="345" height="341" fill="#232320"/>
<path d="M394.686 0H43.854C19.7343 0 0 19.7343 0 43.854V394.686C0 418.806 19.7343 438.54 43.854 438.54H394.686C418.806 438.54 438.54 418.806 438.54 394.686V43.854C438.54 19.7343 418.806 0 394.686 0ZM131.562 372.759H65.781V175.416H131.562V372.759ZM98.6715 138.14C76.7445 138.14 59.2029 120.599 59.2029 98.6715C59.2029 76.7445 76.7445 59.2029 98.6715 59.2029C120.599 59.2029 138.14 76.7445 138.14 98.6715C138.14 120.599 120.599 138.14 98.6715 138.14ZM372.759 372.759H306.978V256.546C306.978 239.005 291.629 223.655 274.088 223.655C256.546 223.655 241.197 239.005 241.197 256.546V372.759H175.416V175.416H241.197V201.728C252.161 184.187 276.28 171.031 296.015 171.031C337.676 171.031 372.759 206.114 372.759 247.775V372.759Z" fill="#64FFDA"/>
</g>
<defs>
<clipPath id="clip0">
<rect width="438.54" height="438.54" fill="white"/>
</clipPath>
</defs>
</svg>
