<svg width="30" height="30" viewBox="0 0 30 30" fill="none" xmlns="http://www.w3.org/2000/svg">
<path d="M18.3333 3.33333C17.8913 3.33333 17.4674 3.15774 17.1548 2.84518C16.8423 2.53262 16.6667 2.10869 16.6667 1.66667C16.6667 1.22464 16.8423 0.800716 17.1548 0.488155C17.4674 0.175595 17.8913 0 18.3333 0H28.3333C28.7754 0 29.1993 0.175595 29.5118 0.488155C29.8244 0.800716 30 1.22464 30 1.66667V11.6667C30 12.1087 29.8244 12.5326 29.5118 12.8452C29.1993 13.1577 28.7754 13.3333 28.3333 13.3333C27.8913 13.3333 27.4674 13.1577 27.1548 12.8452C26.8423 12.5326 26.6667 12.1087 26.6667 11.6667V5.69L11.1783 21.1783C10.864 21.4819 10.443 21.6499 10.006 21.6461C9.569 21.6423 9.15098 21.467 8.84197 21.158C8.53296 20.849 8.35767 20.431 8.35388 19.994C8.35008 19.557 8.51807 19.136 8.82167 18.8217L24.31 3.33333H18.3333ZM0 6.66667C0 5.78261 0.351189 4.93477 0.976311 4.30964C1.60143 3.68452 2.44928 3.33333 3.33333 3.33333H11.6667C12.1087 3.33333 12.5326 3.50893 12.8452 3.82149C13.1577 4.13405 13.3333 4.55797 13.3333 5C13.3333 5.44203 13.1577 5.86595 12.8452 6.17851C12.5326 6.49107 12.1087 6.66667 11.6667 6.66667H3.33333V26.6667H23.3333V18.3333C23.3333 17.8913 23.5089 17.4674 23.8215 17.1548C24.134 16.8423 24.558 16.6667 25 16.6667C25.442 16.6667 25.866 16.8423 26.1785 17.1548C26.4911 17.4674 26.6667 17.8913 26.6667 18.3333V26.6667C26.6667 27.5507 26.3155 28.3986 25.6904 29.0237C25.0652 29.6488 24.2174 30 23.3333 30H3.33333C2.44928 30 1.60143 29.6488 0.976311 29.0237C0.351189 28.3986 0 27.5507 0 26.6667V6.66667Z" fill="black"/>
</svg>
