<svg width="78" height="91" viewBox="0 0 78 91" fill="none" xmlns="http://www.w3.org/2000/svg">
<path d="M28.0386 25.7124L28.2886 31.4624L24.2886 38.9624L18.0386 51.2124L16.7886 61.4624L21.2886 75.9624L31.5386 81.7124H47.0386L61.5386 70.7124L68.0386 53.4624L53.0386 35.2124L48.7886 24.9624L28.0386 25.7124Z" fill="#ECEFF1"/>
<path d="M63.5387 39.9625C59.5387 34.2125 56.2887 30.7125 54.5387 23.4625C52.7887 16.2125 55.0387 18.2125 53.5387 11.9625C52.7887 8.71253 51.5387 6.46253 50.2887 4.71253C48.7887 2.96253 47.0387 1.96253 46.0387 1.71253C43.7887 0.46253 38.5387 -1.53747 32.0387 1.96253C25.2887 5.46253 26.0387 12.9625 27.2887 28.2125C27.2887 29.2125 27.0387 30.4625 26.5387 31.4625C25.5387 33.7125 23.7887 35.7125 22.2887 37.4625C20.5387 39.9625 18.7887 42.4625 17.5387 45.2125C14.5387 50.9625 11.7887 58.2125 12.5387 60.9625C13.7887 60.7125 29.5387 84.7125 29.5387 85.2125C30.5387 84.9625 34.7887 84.9625 38.5387 84.9625C43.7887 84.7125 46.7887 84.4625 51.0387 85.4625C51.0387 84.7125 50.7887 83.9625 50.7887 83.2125C50.7887 81.7125 51.0387 80.4625 51.2887 78.7125C51.5387 77.4625 51.7887 76.2125 52.0387 74.7125C49.5387 76.9625 45.0387 79.4625 40.7887 80.2125C37.0387 80.9625 30.7887 79.7125 27.7887 75.9625C28.0387 75.9625 28.5387 75.9625 28.7887 75.7125C29.5387 75.4625 30.2887 75.2125 30.5387 74.7125C31.2887 73.4625 30.7887 72.2125 30.2887 71.4625C29.7887 70.7125 26.0387 67.9625 24.2887 66.4625C22.5387 64.9625 21.5387 64.2125 20.5387 63.2125L18.5387 61.2125C18.0387 60.7125 17.7887 60.2125 17.5387 59.9625C17.0387 58.7125 16.7887 57.2125 17.0387 55.2125C17.2887 52.4625 18.2887 50.2125 19.5387 47.7125C20.0387 46.7125 21.2887 44.7125 21.2887 44.7125C21.2887 44.7125 17.0387 55.2125 19.2887 58.4625C19.2887 58.4625 19.5387 55.2125 20.5387 51.9625C21.2887 49.7125 22.5387 46.4625 24.0387 44.7125C25.5387 42.9625 29.2887 36.4625 29.5387 32.4625C29.5387 30.7125 29.7887 28.9625 29.7887 27.7125C28.7887 26.7125 46.2887 24.2125 47.2887 26.9625C47.5387 27.9625 51.0387 36.9625 53.0387 41.7125C54.0387 43.9625 55.2887 45.9625 56.0387 48.4625C56.7887 51.2125 57.2887 54.9625 57.2887 58.7125C57.2887 59.4625 57.2887 60.7125 57.0387 61.9625C57.5387 61.9625 67.2887 51.4625 55.7887 42.7125C55.7887 42.7125 62.7887 45.9625 63.0387 52.4625C63.2887 57.7125 61.0387 61.9625 60.5387 62.7125C60.7887 62.7125 65.7887 64.9625 66.0387 64.9625C67.0387 64.9625 69.0387 64.2125 69.0387 64.2125C69.2887 63.4625 70.0387 61.4625 70.0387 60.7125C71.7887 54.9625 67.5387 45.7125 63.5387 39.9625V39.9625Z" fill="#263238"/>
<path d="M31.7888 23.4624C33.5837 23.4624 35.0388 21.2238 35.0388 18.4624C35.0388 15.701 33.5837 13.4624 31.7888 13.4624C29.9939 13.4624 28.5388 15.701 28.5388 18.4624C28.5388 21.2238 29.9939 23.4624 31.7888 23.4624Z" fill="#ECEFF1"/>
<path d="M43.0391 23.9624C45.3863 23.9624 47.2891 21.388 47.2891 18.2124C47.2891 15.0368 45.3863 12.4624 43.0391 12.4624C40.6919 12.4624 38.7891 15.0368 38.7891 18.2124C38.7891 21.388 40.6919 23.9624 43.0391 23.9624Z" fill="#ECEFF1"/>
<path d="M33.6059 18.804C33.3982 17.1602 32.4524 15.9259 31.4935 16.0471C30.5347 16.1683 29.9258 17.5991 30.1336 19.2429C30.3413 20.8867 31.2871 22.121 32.2459 21.9998C33.2048 21.8786 33.8137 20.4478 33.6059 18.804Z" fill="#212121"/>
<path d="M42.7888 22.4623C44.1695 22.4623 45.2888 21.0072 45.2888 19.2123C45.2888 17.4174 44.1695 15.9623 42.7888 15.9623C41.4081 15.9623 40.2888 17.4174 40.2888 19.2123C40.2888 21.0072 41.4081 22.4623 42.7888 22.4623Z" fill="#212121"/>
<path d="M76.0388 74.2124C75.0388 73.7124 73.2888 72.9624 71.7888 70.7124C71.0388 69.4624 71.2888 65.9624 70.0388 64.4624C69.2888 63.4624 68.2888 63.9624 68.0388 63.9624C65.7888 64.4624 60.5388 67.9624 57.0388 63.9624C56.5388 63.4624 55.7888 62.7124 54.5388 62.7124C53.2888 62.7124 52.7888 63.2124 52.2888 64.2124C51.7888 65.2124 51.7888 65.9624 51.7888 68.4624C51.7888 70.4624 51.7888 72.7124 51.5388 74.4624C51.0388 78.7124 50.2888 81.2124 50.2888 83.7124C50.2888 86.4624 51.0388 88.2124 52.0388 88.9624C52.7888 89.7124 54.0388 90.2124 56.7888 90.2124C59.5388 90.2124 61.2888 89.2124 63.0388 87.4624C64.2888 86.2124 65.2888 85.7124 68.7888 83.2124C71.5388 81.4624 75.7888 79.2124 76.5388 78.4624C77.0388 77.9624 77.7888 77.7124 77.7888 76.2124C77.7888 74.9624 76.7888 74.4624 76.0388 74.2124V74.2124Z" fill="#FFC107"/>
<path d="M25.7887 74.9624C23.2887 70.9624 23.0387 70.2124 21.2887 67.7124C19.7887 65.2124 16.5387 60.4624 14.5387 60.4624C13.0387 60.4624 12.2887 61.2124 11.2887 62.2124C10.2887 63.2124 9.28868 65.4624 7.53868 66.7124C6.03868 67.9624 1.78868 67.7124 0.788675 69.2124C-0.211325 70.7124 1.78868 72.9624 1.78868 76.7124C1.78868 78.2124 0.538675 79.2124 0.288675 80.2124C0.0386752 81.4624 -0.211325 82.2124 0.288675 83.2124C1.28868 84.7124 2.53868 85.2124 11.0387 86.9624C15.5387 87.9624 19.7887 90.4624 22.5387 90.7124C25.2887 90.9624 30.0387 90.7124 30.0387 83.9624C30.2887 79.9624 28.0387 78.9624 25.7887 74.9624Z" fill="#FFC107"/>
<path d="M30.5388 29.7124C29.0388 28.7124 27.7888 27.7124 27.7888 26.2124C27.7888 24.7124 28.7888 24.2124 30.2888 22.9624C30.5388 22.7124 33.2888 20.2124 36.0388 20.2124C38.7888 20.2124 42.0388 21.9624 43.2888 22.4624C45.5388 22.9624 47.7888 23.4624 47.5388 25.2124C47.2888 27.7124 47.0388 28.2124 44.5388 29.4624C42.7888 29.9624 39.5388 32.7124 37.2888 32.7124C36.2888 32.7124 34.7888 32.7124 33.7888 32.4624C33.0388 32.2124 31.7888 30.9624 30.5388 29.7124Z" fill="#FFC107"/>
<path d="M30.0385 27.7124C30.5385 28.2124 31.2885 28.7124 32.0385 28.9624C32.5385 29.2124 33.2885 29.4624 33.2885 29.4624H35.5385C36.7885 29.4624 38.5385 28.9624 40.2885 27.9624C42.0385 27.2124 42.2885 26.7124 43.5385 26.2124C44.7885 25.4624 46.0385 24.7124 45.5385 24.4624C45.0385 24.2124 44.5385 24.4624 42.7885 25.4624C41.2885 26.4624 40.0385 26.9624 38.5385 27.7124C37.7885 27.9624 36.7885 28.4624 36.0385 28.4624H33.7885C33.0385 28.4624 32.5385 28.2124 31.7885 27.9624C31.2885 27.7124 31.0385 27.4624 30.7885 27.4624C30.2885 27.2124 29.2885 26.2124 28.7885 25.9624C28.7885 25.9624 28.2885 25.9624 28.5385 26.2124L30.0385 27.7124Z" fill="#634703"/>
<path d="M37.5388 22.2123C37.7888 22.7123 38.2888 22.7123 38.5388 22.9623C38.7888 23.2123 39.0388 23.2123 39.0388 23.2123C39.2888 22.9623 39.0388 22.4623 38.7888 22.4623C38.7888 21.9623 37.5388 21.9623 37.5388 22.2123V22.2123Z" fill="#634703"/>
<path d="M33.5383 22.7123C33.5383 22.9623 34.0383 23.2123 34.0383 22.9623C34.2883 22.7123 34.5383 22.4623 34.7883 22.4623C35.2883 22.2123 35.0383 21.9623 34.2883 21.9623C33.7883 22.2123 33.7883 22.4623 33.5383 22.7123V22.7123Z" fill="#634703"/>
<path d="M57.7883 66.9624V67.7124C58.2883 68.7124 59.5383 68.9624 60.5383 68.9624C62.0383 68.9624 63.5383 67.9624 64.2883 66.9624C64.2883 66.7124 64.5383 66.4624 64.7883 66.2124C65.2883 65.4624 65.5383 64.9624 65.7883 64.7124C65.7883 64.7124 65.5383 64.4624 65.5383 64.2124C65.2883 63.7124 64.5383 63.2124 63.5383 62.9624C62.7883 62.7124 61.5383 62.4624 61.0383 62.4624C58.7883 62.2124 57.5383 62.9624 56.7883 63.7124C56.7883 63.7124 57.0383 63.7124 57.0383 63.9624C57.5383 64.4624 57.7883 64.9624 57.7883 65.7124C58.0383 66.2124 57.7883 66.4624 57.7883 66.9624V66.9624Z" fill="#455A64"/>
</svg>
