<svg width="60" height="60" viewBox="0 0 60 60" fill="none" xmlns="http://www.w3.org/2000/svg">
<path d="M31.1626 56.2497L29.7544 55.7828C29.7544 55.7828 29.9419 48.6578 27.3638 48.1572C25.6763 46.1922 27.6132 -35.7322 33.7819 47.8778C32.6115 48.4715 31.716 49.4947 31.2826 50.7335C31.0503 52.563 31.01 54.4118 31.1626 56.2497V56.2497Z" fill="url(#paint0_linear)"/>
<path d="M31.9237 49.3672C35.673 46.5449 38.5442 42.7165 40.2037 38.327C41.8633 33.9375 42.243 29.1671 41.2987 24.5703C38.5425 12.411 32.0156 8.41346 31.3125 6.88721C30.7059 5.93683 30.188 4.93258 29.7656 3.88721L30.285 37.7666C30.285 37.7666 29.2087 48.1203 31.9237 49.3672Z" fill="url(#paint1_linear)"/>
<path d="M29.0381 49.8169C29.0381 49.8169 17.5612 42 18.225 28.1719C18.2869 24.0031 19.2427 19.8961 21.0279 16.1284C22.8131 12.3607 25.3861 9.01996 28.5731 6.33188C28.9455 6.01546 29.2414 5.61877 29.4386 5.17159C29.6357 4.72441 29.7289 4.23838 29.7112 3.75C30.4256 5.2875 30.3094 26.7056 30.3844 29.2106C30.675 38.955 29.8425 47.9775 29.0381 49.8169V49.8169Z" fill="url(#paint2_linear)"/>
<defs>
<linearGradient id="paint0_linear" x1="21.6969" y1="30.4728" x2="37.8813" y2="35.9649" gradientUnits="userSpaceOnUse">
<stop offset="0.231" stop-color="#999875"/>
<stop offset="0.563" stop-color="#9B9977"/>
<stop offset="0.683" stop-color="#A09F7E"/>
<stop offset="0.768" stop-color="#A9A889"/>
<stop offset="0.837" stop-color="#B7B69A"/>
<stop offset="0.896" stop-color="#C9C7B0"/>
<stop offset="0.948" stop-color="#DEDDCB"/>
<stop offset="0.994" stop-color="#F8F6EB"/>
<stop offset="1" stop-color="#FBF9EF"/>
</linearGradient>
<linearGradient id="paint1_linear" x1="27.6318" y1="3.64512" x2="34.7868" y2="48.3244" gradientUnits="userSpaceOnUse">
<stop stop-color="#48A547"/>
<stop offset="1" stop-color="#3F9143"/>
</linearGradient>
<linearGradient id="paint2_linear" x1="17.2377" y1="29.5407" x2="36.4389" y2="23.1102" gradientUnits="userSpaceOnUse">
<stop stop-color="#41A247"/>
<stop offset="0.352" stop-color="#4BA74B"/>
<stop offset="0.956" stop-color="#67B554"/>
<stop offset="1" stop-color="#69B655"/>
</linearGradient>
</defs>
</svg>
