<svg width="60" height="60" viewBox="0 0 60 60" fill="none" xmlns="http://www.w3.org/2000/svg">
<path d="M49.332 19.4472C48.6934 19.201 48.0495 18.9729 47.4007 18.7631C47.5097 18.2626 47.61 17.7681 47.6991 17.2824C49.1611 9.30552 48.2053 2.87921 44.9407 0.763366C41.8106 -1.26502 36.6916 0.850034 31.5218 5.90705C31.0123 6.40633 30.5141 6.92 30.0277 7.44757C29.702 7.09675 29.3706 6.75275 29.0337 6.41573C23.6154 1.00862 18.1845 -1.27029 14.9234 0.851615C11.7961 2.88633 10.8701 8.9275 12.1863 16.4873C12.3173 17.2361 12.4651 17.9809 12.6298 18.7212C11.861 18.9667 11.1192 19.228 10.4093 19.5062C4.0568 21.9956 0 25.8967 0 29.9432C0 34.1225 4.35516 38.3144 10.9716 40.8562C11.508 41.0614 12.0488 41.2516 12.5937 41.4265C12.4167 42.2238 12.2596 43.0266 12.1226 43.8337C10.8677 51.2624 11.8477 57.1608 14.9665 59.1826C18.1877 61.2705 23.5943 59.1246 28.8586 53.9522C29.2855 53.5317 29.7029 53.0993 30.1106 52.6554C30.6374 53.2266 31.1782 53.7813 31.7325 54.3187C36.832 59.2505 41.8683 61.2421 44.9841 59.2147C48.2023 57.1207 49.2483 50.7843 47.8903 43.0751C47.7833 42.4711 47.6634 41.8701 47.5305 41.2727C47.9102 41.1462 48.2829 41.0161 48.6462 40.8807C55.5246 38.3194 60 34.1783 60 29.9432C60 25.8819 55.8122 21.9545 49.332 19.4472V19.4472ZM47.8402 38.1463C47.512 38.2683 47.1755 38.3861 46.8323 38.5006C46.073 35.7987 45.0483 32.9257 43.7941 29.9572C44.9909 27.0595 45.9762 24.2231 46.7142 21.5388C47.328 21.7385 47.9236 21.949 48.4978 22.171C54.0502 24.3196 57.4369 27.4957 57.4369 29.9432C57.4369 32.5501 53.7792 35.9343 47.8402 38.1463V38.1463ZM45.3759 43.6346C45.9764 47.0433 46.062 50.1254 45.6642 52.535C45.307 54.7001 44.5884 56.1434 43.6997 56.7216C41.809 57.9519 37.7653 56.3528 33.4043 52.1349C32.8888 51.6352 32.3857 51.1196 31.8956 50.5885C33.5864 48.5104 35.276 46.0945 36.9251 43.4112C39.8257 43.122 42.566 42.6488 45.0511 42.0032C45.1734 42.5582 45.2822 43.1025 45.3759 43.6346V43.6346ZM20.4553 56.5091C18.608 57.2422 17.1366 57.2633 16.2471 56.6869C14.3545 55.4601 13.5677 50.7239 14.6409 44.3711C14.7685 43.6204 14.9146 42.8738 15.079 42.1323C17.5366 42.7434 20.257 43.1828 23.1645 43.4478C24.8248 46.0734 26.5631 48.4866 28.3151 50.5999C27.9428 51.0048 27.5616 51.3993 27.172 51.7832C24.844 54.0702 22.5113 55.693 20.4553 56.5091V56.5091ZM11.8008 38.1303C8.87508 37.0062 6.45891 35.5455 4.80281 33.9515C3.31453 32.5193 2.56336 31.097 2.56336 29.9432C2.56336 27.4875 5.82047 24.3554 11.253 22.2266C11.9123 21.9685 12.6023 21.7248 13.3184 21.4961C14.0693 24.2411 15.0541 27.1111 16.2427 30.0133C15.0387 32.9584 14.0398 35.8743 13.2816 38.6516C12.7842 38.4915 12.2905 38.3176 11.8008 38.1303V38.1303ZM14.7019 15.9339C13.5743 9.45699 14.3231 4.57121 16.2077 3.34495C18.2149 2.03888 22.6535 3.90105 27.3319 8.57003C27.6369 8.87518 27.9371 9.18652 28.2321 9.50388C26.4888 11.6079 24.7664 14.0032 23.1209 16.6133C20.299 16.9072 17.5978 17.3793 15.1144 18.0118C14.9614 17.3232 14.8238 16.6305 14.7019 15.9341V15.9339ZM40.5832 23.117C39.9966 21.9782 39.3883 20.8537 38.7586 19.7444C40.673 20.0165 42.5072 20.3776 44.2296 20.8191C43.7126 22.6821 43.068 24.6296 42.3094 26.6264C41.7548 25.4438 41.1793 24.2738 40.5832 23.117V23.117ZM30.0288 11.5628C31.211 13.0025 32.3951 14.6096 33.5597 16.3535C31.1972 16.2281 28.8307 16.2276 26.4682 16.3519C27.634 14.6241 28.8281 13.0191 30.0288 11.5628ZM19.4067 23.1368C18.818 24.2842 18.2533 25.447 17.7129 26.624C16.9666 24.6344 16.328 22.6779 15.8065 20.7886C17.5184 20.3581 19.3439 20.0062 21.2461 19.7391C20.6094 20.8552 19.9961 21.988 19.4067 23.1365V23.1368ZM21.3007 40.3523C19.3355 40.1057 17.4825 39.7719 15.7711 39.3531C16.3008 37.4301 16.9535 35.432 17.7159 33.3996C18.2585 34.5776 18.8256 35.741 19.4168 36.889C20.0248 38.0692 20.6543 39.2251 21.3007 40.3523ZM30.0996 48.5264C28.8846 47.0533 27.6729 45.4235 26.4895 43.6707C27.6384 43.7212 28.8096 43.7471 30 43.7471C31.223 43.7471 32.4319 43.7162 33.6218 43.6567C32.4534 45.4412 31.2738 47.0734 30.0996 48.5264ZM42.3335 33.2958C43.1355 35.3506 43.8115 37.3381 44.3482 39.2282C42.6087 39.6745 40.7304 40.0338 38.7513 40.3006C39.3855 39.1707 39.9996 38.0267 40.5933 36.8692C41.1969 35.6928 41.7771 34.5013 42.3335 33.2958V33.2958ZM38.373 35.4299C37.4642 37.2044 36.5042 38.9453 35.4947 40.6497C33.666 40.7953 31.8333 40.8676 30 40.8665C28.1327 40.8665 26.3166 40.8012 24.5677 40.6737C23.5318 38.9732 22.5535 37.2293 21.6349 35.4457H21.6352C20.7209 33.6715 19.8669 31.859 19.0751 30.012C19.8649 28.1645 20.7163 26.3511 21.6274 24.5756L21.6272 24.5759C22.538 22.7999 23.5084 21.0635 24.5365 19.3703C26.3208 19.2186 28.1505 19.1395 29.9998 19.1395H30C31.8577 19.1395 33.6898 19.2193 35.4736 19.3721C36.4913 21.0628 37.4555 22.7932 38.3646 24.5603C39.2788 26.3319 40.1414 28.1365 40.9512 29.9711C40.1497 31.8245 39.2898 33.6453 38.373 35.4299V35.4299ZM43.6605 3.25908C45.6696 4.56146 46.451 9.81341 45.1887 16.7007C45.108 17.1401 45.0176 17.5877 44.9191 18.0416C42.4296 17.3956 39.7266 16.9154 36.8965 16.6169C35.2479 13.9782 33.5395 11.5792 31.8246 9.5023C32.2741 9.01536 32.7342 8.54105 33.2046 8.0798C37.6343 3.74721 41.7743 2.03651 43.6605 3.25908V3.25908ZM30 23.9213C32.959 23.9213 35.3578 26.6174 35.3578 29.9432C35.3578 33.269 32.959 35.9652 30 35.9652C27.041 35.9652 24.6422 33.269 24.6422 29.9432C24.6422 26.6174 27.041 23.9213 30 23.9213V23.9213Z" fill="#00D8FF"/>
</svg>
