<svg width="120" height="120" viewBox="0 0 120 120" fill="none" xmlns="http://www.w3.org/2000/svg">
<path d="M98.6639 38.8549C97.3868 38.3629 96.0989 37.9072 94.8014 37.4881C95.0194 36.4881 95.22 35.5002 95.3981 34.5296C98.3222 18.5923 96.4106 5.75279 89.8814 1.52542C83.6212 -2.52722 73.3833 1.69857 63.0436 11.8023C62.0246 12.7998 61.0282 13.8261 60.0553 14.8802C59.404 14.1792 58.7413 13.4919 58.0673 12.8186C47.2308 2.01542 36.3689 -2.53774 29.8467 1.70173C23.5922 5.767 21.7402 17.837 24.3727 32.9412C24.6346 34.4371 24.9303 35.9253 25.2595 37.4044C23.722 37.8949 22.2384 38.417 20.8186 38.9728C8.11359 43.9465 0 51.7407 0 59.8254C0 68.1754 8.71031 76.5507 21.9431 81.6291C23.0159 82.0392 24.0977 82.4191 25.1873 82.7686C24.8334 84.3616 24.5193 85.9654 24.2452 87.5781C21.7355 102.42 23.6953 114.205 29.933 118.244C36.3755 122.416 47.1886 118.129 57.7172 107.794C58.5709 106.954 59.4059 106.09 60.2213 105.203C61.2748 106.345 62.3565 107.453 63.465 108.527C73.6641 118.38 83.7366 122.359 89.9681 118.309C96.4045 114.125 98.4966 101.465 95.7806 86.0623C95.5667 84.8556 95.3268 83.6549 95.0611 82.4612C95.8205 82.2086 96.5658 81.9486 97.2923 81.6781C111.049 76.5607 120 68.287 120 59.8254C120 51.7112 111.624 43.8644 98.6639 38.8549V38.8549ZM95.6803 76.2149C95.0241 76.4586 94.3509 76.6939 93.6647 76.9228C92.1459 71.5244 90.0966 65.7844 87.5883 59.8533C89.9817 54.0639 91.9523 48.397 93.4284 43.0339C94.6561 43.4328 95.8472 43.8533 96.9956 44.297C108.1 48.5897 114.874 54.9354 114.874 59.8254C114.874 65.0339 107.558 71.7955 95.6803 76.2149V76.2149ZM90.7519 87.1802C91.9528 93.9907 92.1239 100.149 91.3284 104.963C90.6141 109.289 89.1769 112.172 87.3994 113.328C83.618 115.785 75.5306 112.591 66.8086 104.163C65.7775 103.165 64.7713 102.135 63.7912 101.074C67.1728 96.9218 70.552 92.0949 73.8502 86.7339C79.6514 86.156 85.132 85.2107 90.1022 83.9207C90.3469 85.0297 90.5644 86.117 90.7519 87.1802V87.1802ZM40.9106 112.903C37.2159 114.368 34.2731 114.41 32.4942 113.258C28.7091 110.807 27.1355 101.344 29.2819 88.6518C29.537 87.1519 29.8292 85.6603 30.158 84.1786C35.0733 85.3997 40.5141 86.2776 46.3289 86.807C49.6495 92.0528 53.1262 96.8744 56.6302 101.097C55.8855 101.906 55.1233 102.694 54.3441 103.461C49.688 108.03 45.0225 111.272 40.9106 112.903V112.903ZM23.6016 76.1828C17.7502 73.937 12.9178 71.0186 9.60563 67.8339C6.62906 64.9723 5.12672 62.1307 5.12672 59.8254C5.12672 54.9191 11.6409 48.6612 22.5061 44.4081C23.8247 43.8923 25.2047 43.4054 26.6367 42.9486C28.1386 48.4328 30.1083 54.167 32.4853 59.9654C30.0773 65.8497 28.0795 71.6755 26.5631 77.2244C25.5685 76.9045 24.581 76.5572 23.6016 76.1828V76.1828ZM29.4038 31.8354C27.1486 18.8949 28.6462 9.13331 32.4155 6.68331C36.4298 4.07384 45.307 7.79437 54.6637 17.1228C55.2739 17.7325 55.8741 18.3545 56.4642 18.9886C52.9777 23.1923 49.5328 27.9781 46.2417 33.1928C40.598 33.7802 35.1956 34.7233 30.2287 35.987C29.9227 34.6113 29.6476 33.2272 29.4038 31.836V31.8354ZM81.1664 46.187C79.9932 43.9117 78.7765 41.6651 77.5172 39.4486C81.3459 39.9923 85.0144 40.7139 88.4592 41.596C87.4252 45.3181 86.1361 49.2091 84.6188 53.1986C83.5097 50.8358 82.3586 48.4982 81.1664 46.187V46.187ZM60.0577 23.1023C62.422 25.9786 64.7902 29.1896 67.1194 32.6739C62.3944 32.4233 57.6615 32.4222 52.9364 32.6707C55.268 29.2186 57.6563 26.0117 60.0577 23.1023ZM38.8134 46.2265C37.6361 48.519 36.5066 50.8421 35.4258 53.1939C33.9333 49.2186 32.6559 45.3096 31.613 41.5349C35.0367 40.6749 38.6878 39.9717 42.4922 39.4381C41.2188 41.6681 39.9922 43.9313 38.8134 46.226V46.2265ZM42.6014 80.6223C38.6709 80.1297 34.965 79.4628 31.5422 78.626C32.6016 74.7839 33.907 70.7918 35.4319 66.7312C36.517 69.0847 37.6512 71.4092 38.8336 73.7028C40.0495 76.0607 41.3086 78.3702 42.6014 80.6223ZM60.1992 96.9539C57.7692 94.0107 55.3458 90.7544 52.9791 87.2523C55.2769 87.3534 57.6192 87.4049 60 87.4049C62.4459 87.4049 64.8638 87.3434 67.2436 87.2244C64.9069 90.7897 62.5477 94.0507 60.1992 96.9539ZM84.667 66.5239C86.2711 70.6291 87.623 74.6002 88.6964 78.3765C85.2173 79.2681 81.4608 79.986 77.5027 80.5191C78.771 78.2615 79.9992 75.9758 81.1866 73.6634C82.3938 71.3128 83.5542 68.9324 84.667 66.5239V66.5239ZM76.7461 70.7876C74.9284 74.333 73.0084 77.8112 70.9894 81.2165C67.332 81.5074 63.6665 81.6518 60 81.6497C56.2655 81.6497 52.6331 81.5191 49.1353 81.2644C47.0635 77.8669 45.107 74.3827 43.2698 70.8191H43.2703C41.4418 67.2744 39.7339 63.6531 38.1502 59.9628C39.7298 56.2717 41.4326 52.6486 43.2548 49.1012L43.2544 49.1018C45.0759 45.5534 47.0169 42.0841 49.073 38.7012C52.6416 38.3981 56.3011 38.2402 59.9995 38.2402H60C63.7153 38.2402 67.3795 38.3996 70.9472 38.7049C72.9825 42.0827 74.9111 45.5401 76.7292 49.0707C78.5575 52.6103 80.2828 56.2157 81.9023 59.8812C80.2995 63.5843 78.5796 67.222 76.7461 70.7876V70.7876ZM87.3211 6.51173C91.3392 9.11384 92.902 19.607 90.3773 33.3675C90.2161 34.2454 90.0352 35.1396 89.8383 36.0465C84.8592 34.756 79.4531 33.7965 73.793 33.2002C70.4958 27.9281 67.0791 23.1349 63.6492 18.9854C64.5481 18.0125 65.4684 17.0649 66.4092 16.1433C75.2686 7.487 83.5486 4.0691 87.3211 6.51173V6.51173ZM60 47.7939C65.918 47.7939 70.7156 53.1807 70.7156 59.8254C70.7156 66.4702 65.918 71.857 60 71.857C54.082 71.857 49.2844 66.4702 49.2844 59.8254C49.2844 53.1807 54.082 47.7939 60 47.7939V47.7939Z" fill="#00D8FF"/>
</svg>
