<svg width="120" height="120" viewBox="0 0 120 120" fill="none" xmlns="http://www.w3.org/2000/svg">
<path d="M103.257 69.0716C99.0821 69.1004 95.4535 70.441 92.4155 72.4229C91.3003 69.4791 90.1857 66.8566 89.9893 64.9329C89.7703 62.6891 89.5083 61.3191 89.7703 58.6379C90.0328 55.9566 91.2132 52.1385 91.1911 51.8473C91.1696 51.556 90.9286 50.186 88.5244 50.1573C86.1202 50.1279 84.0436 50.7691 83.8032 51.6141C83.5627 52.4591 83.1038 54.3829 82.7977 56.3641C82.3824 59.2791 77.9892 69.6829 75.4758 75.1329C74.6667 73.006 73.9674 71.1404 73.8141 69.6541C73.5957 67.4104 73.3332 66.0404 73.5957 63.3591C73.8582 60.6779 75.0385 56.8604 75.0164 56.5685C74.9944 56.2773 74.7539 54.9073 72.3497 54.8785C69.945 54.8491 67.8685 55.4904 67.6285 56.3354C67.388 57.181 67.1255 59.1623 66.623 61.086C66.12 63.0098 60.2841 80.3798 58.7541 84.8673C58.1358 86.6836 57.4872 88.4814 56.8088 90.2592C56.8088 90.2592 56.7867 90.3467 56.7211 90.4923C56.508 91.0497 56.2895 91.6035 56.0658 92.1535V92.1823C55.7377 92.9698 55.388 93.6979 55.2131 93.6979C55.0819 93.6979 54.8414 91.5998 55.2567 88.7435C56.131 82.711 58.2075 73.3266 58.186 73.006C58.186 72.831 58.5792 71.1991 56.8308 70.3535C55.1255 69.5085 54.5138 70.9073 54.3605 70.9073C54.2077 70.9073 54.098 71.4029 54.098 71.4029C54.098 71.4029 56.0002 60.8529 50.4699 60.8529C47.0166 60.8529 42.2513 65.8948 39.8906 70.441C37.2071 72.3882 34.5259 74.3409 31.8469 76.2992C30.5578 77.261 29.2242 78.2229 27.9783 79.126C27.8906 79.0098 27.8035 78.8635 27.7158 78.7473C21.0272 69.2173 8.65595 62.4848 9.18048 49.691C9.37735 45.0279 10.5792 32.7873 32.94 17.9241C51.3441 5.82912 65.9892 9.18037 68.5247 16.6123C72.1528 27.221 60.6778 46.9223 41.6611 49.7779C34.4044 50.8566 30.601 47.126 29.6395 45.7273C28.6341 44.2698 28.4808 44.1823 28.1091 44.4741C27.4974 44.9116 27.8906 46.2229 28.1091 46.9804C28.6777 48.9616 31.0163 52.4591 34.9725 54.1791C38.4699 55.6941 46.9725 56.5398 57.2677 51.2354C68.7867 45.2898 77.7924 28.7654 75.1477 14.9222C72.5025 0.874744 55.0163 -3.75901 38.4699 4.08037C28.6341 8.74412 17.9672 16.0879 10.2952 25.6473C1.18032 37.0129 -0.262492 46.8929 0.327664 51.0316C2.44829 65.7198 17.6395 75.2791 23.716 82.361C23.4099 82.5941 23.1253 82.7985 22.8853 82.9735C19.8469 84.9842 8.2622 93.0566 5.37704 101.596C2.0986 111.272 5.90204 118.209 8.41548 119.14C16.2188 122.026 24.2405 116.839 28.5464 108.27C32.8524 99.7017 32.3278 88.5685 30.3389 83.4685C30.3169 83.4104 30.2953 83.3516 30.2513 83.2935C31.0383 82.6816 31.8469 82.0404 32.6339 81.4285C34.0804 80.2884 35.5453 79.1902 37.0275 78.1348C36.2841 80.8454 35.7375 84.0804 35.4755 88.7435C35.1474 94.2229 36.8302 101.334 39.038 104.131C40.0219 105.356 41.1802 105.385 41.9236 105.385C44.5027 105.385 45.6614 102.529 46.951 99.1479C48.5246 95.0098 49.9453 90.201 49.9453 90.201C49.9453 90.201 48.1749 103.199 52.9838 103.199C54.7322 103.199 56.5027 100.168 57.2897 98.6235V98.6523C57.2897 98.6523 57.3333 98.5648 57.421 98.361C57.5958 97.9823 57.705 97.7485 57.705 97.7485V97.691C58.4044 96.0585 59.9785 92.3573 62.3171 86.2079C65.3335 78.281 68.2407 68.3723 68.2407 68.3723C68.2407 68.3723 68.5031 70.791 69.3989 74.8129C69.9239 77.1735 71.0161 79.7673 71.8908 82.2735C71.1914 83.5854 70.7541 84.3135 70.7541 84.3135L70.7761 84.3429C70.2075 85.3335 69.5958 86.4117 68.918 87.4617C66.5353 91.2498 63.6942 95.5929 63.3005 96.8454C62.8411 98.3317 62.9508 99.4104 63.8255 100.285C64.4592 100.926 65.5955 101.013 66.7542 100.926C68.8964 100.722 70.4044 100.022 71.1474 99.5854C72.3061 99.0317 73.6613 98.186 74.9288 96.9329C77.2678 94.6304 78.6882 91.3373 78.5574 86.9954C78.4917 84.6054 77.9016 82.2154 77.1802 79.971C77.3991 79.5635 77.5955 79.1554 77.8144 78.7473C81.5082 71.5485 84.3717 63.6504 84.3717 63.6504C84.3717 63.6504 84.6343 66.0691 85.53 70.0916C85.9674 72.1317 86.8636 74.3466 87.6502 76.5029C84.1749 80.2629 82.0327 84.6341 81.2677 87.4904C79.891 92.7948 80.9616 95.1841 82.9946 95.7379C83.9124 96.0004 85.2239 95.4173 86.1858 94.8635C87.4097 94.3392 88.8525 93.436 90.2297 92.0948C92.5688 89.7929 94.8197 86.5867 94.6885 82.2448C94.6228 80.2629 94.2296 78.3098 93.683 76.4154C96.6338 74.7841 100.437 73.8804 105.289 74.6379C115.694 76.2698 117.749 84.9254 117.355 88.5692C116.962 92.2117 114.776 94.1935 114.055 94.8054C113.333 95.4179 113.093 95.6216 113.159 96.0585C113.246 96.6998 113.596 96.671 114.208 96.5541C115.06 96.3504 119.672 93.6104 119.869 86.9073C120.197 78.3391 114.076 68.9841 103.257 69.0716V69.0716ZM22.9945 105.152C19.5408 110.164 14.7324 112.059 12.6558 110.456C10.4264 108.736 11.3006 101.334 15.5409 96.0298C18.12 92.7948 21.4425 89.7923 23.6503 87.9566C24.1528 87.5485 24.8963 86.966 25.7925 86.2373C25.9453 86.1204 26.033 86.0623 26.033 86.0623L26.5575 85.6248C28.1091 93.2023 26.6231 99.8767 22.9945 105.152V105.152ZM48.1313 82.361C46.9289 86.2666 44.4155 96.2629 42.8855 95.7092C41.5739 95.2429 40.7649 87.6654 42.623 80.1754C43.5628 76.4154 45.5517 71.9273 46.7105 70.1791C48.5902 67.381 50.6667 66.4479 51.1692 67.5854C51.8035 69.0716 48.8742 79.9129 48.1313 82.361V82.361ZM68.8744 95.5923C68.3714 95.9423 67.891 96.1754 67.6721 96.0004C67.5192 95.8835 67.891 95.4173 67.891 95.4173C67.891 95.4173 70.4921 91.6873 71.5191 89.9967C72.1097 89.006 72.8086 87.8404 73.5521 86.5285V86.9073C73.5521 91.3666 70.3167 94.3685 68.8739 95.5923H68.8744ZM84.8743 90.7254C84.5025 90.3754 84.5682 89.2098 85.8141 85.5667C86.295 84.1385 87.4313 81.7492 89.3771 79.4467C89.5955 80.3792 89.7488 81.2829 89.7268 82.1279C89.7047 87.7529 86.6888 89.851 84.8743 90.7254Z" fill="#CD6799"/>
</svg>
