<svg width="60" height="60" viewBox="0 0 60 60" fill="none" xmlns="http://www.w3.org/2000/svg">
<path d="M33.8437 55.5001C33.9225 55.322 34.1212 55.1982 34.2656 55.0482C36.4687 52.7382 38.6906 50.4488 40.8637 48.1107C41.5438 47.4827 42.0692 46.7058 42.3991 45.8409C42.7289 44.976 42.8542 44.0464 42.765 43.1251C42.6968 42.7305 42.6073 42.34 42.4969 41.9551C41.9044 42.5176 41.3531 43.0295 40.7981 43.5451C39.9356 44.3476 39.0769 45.1538 38.2069 45.947C37.6939 46.47 37.0342 46.8251 36.3152 46.9654C35.5961 47.1057 34.8513 47.0245 34.1794 46.7326C33.4991 46.4827 32.9073 46.0385 32.4773 45.4552C32.0473 44.8718 31.7981 44.175 31.7606 43.4513C31.7405 43.3582 31.7135 43.2667 31.68 43.1776C31.0181 43.7401 30.3844 44.2576 29.7562 44.7901L16.7006 55.8526C16.6106 55.9295 16.5131 56.0251 16.4287 56.1001H33.8344L33.8081 56.0832C33.7144 56.0176 33.7631 55.6726 33.8437 55.5001V55.5001Z" fill="#FFCEBF"/>
<path d="M15.6319 55.5C15.7867 55.2984 15.9736 55.1235 16.185 54.9825L34.2525 39.6543C35.485 38.6081 36.7119 37.5562 37.9331 36.4987C38.084 36.3935 38.2023 36.2479 38.2744 36.0787C38.5665 34.8058 38.6079 33.4881 38.3963 32.1993C38.2088 32.3306 38.1075 32.3868 38.0213 32.4787C36.5419 33.8025 35.07 35.1375 33.5831 36.4537C33.0906 36.9494 32.4535 37.2762 31.7635 37.3871C31.0735 37.4979 30.3662 37.3871 29.7431 37.0706C29.1075 36.7705 28.5755 36.2881 28.2149 35.6848C27.8543 35.0814 27.6814 34.3844 27.7181 33.6825V33.075C27.4463 33.2737 27.2475 33.4068 27.0619 33.5568C19.8306 39.3468 12.6006 45.1325 5.37188 50.9137C5.04563 51.1743 4.65563 51.7556 4.22813 51.1912C3.80063 50.6268 4.45125 50.3943 4.77938 50.1318C12.4856 43.9481 20.1956 37.77 27.9094 31.5975C29.1656 30.5906 29.2481 30.1687 28.4306 28.5693L27.9431 29.0268C26.6063 30.27 25.2544 31.4962 23.9381 32.76C23.3982 33.2808 22.722 33.6382 21.9876 33.7911C21.2531 33.9439 20.4904 33.886 19.7876 33.6238C19.0847 33.3617 18.4703 32.9061 18.0153 32.3097C17.5603 31.7132 17.2833 31.0003 17.2163 30.2531C16.9669 30.4406 16.7513 30.5775 16.5469 30.7368L5.10938 39.6018C4.91211 39.7953 4.68715 39.9583 4.44188 40.0856C4.25677 40.1415 4.05799 40.1316 3.87938 40.0575V56.1093H15.6094C15.5658 56.0129 15.5451 55.9077 15.549 55.802C15.5529 55.6963 15.5813 55.5929 15.6319 55.5V55.5Z" fill="#FFCEBF"/>
<path d="M47.3194 4.54313C47.0006 5.5875 46.6912 6.63375 46.4119 7.68937C46.1538 8.43536 46.1838 9.25085 46.496 9.97584C46.8082 10.7008 47.3801 11.283 48.0994 11.6081C50.2995 12.7646 52.7788 13.2841 55.2581 13.1081V4.72125C55.2306 4.53737 55.2408 4.34981 55.2881 4.17C55.3406 4.06829 55.4069 3.97429 55.485 3.89062H47.3119C47.4375 4.03688 47.3944 4.29375 47.3194 4.54313V4.54313Z" fill="#FF6196"/>
<path d="M30.9037 22.5603C30.8649 23.4964 30.5374 24.3976 29.9662 25.1403C27.9244 27.7761 25.5795 30.1625 22.98 32.2503C22.5608 32.6384 22.0295 32.8837 21.4622 32.951C20.8949 33.0184 20.3209 32.9044 19.8225 32.6253C19.3264 32.4134 18.9081 32.053 18.6251 31.5937C18.342 31.1344 18.2082 30.5988 18.2419 30.0603C18.3019 29.399 18.5765 28.7755 19.0237 28.2847C21.9306 25.5129 25.0801 23.0073 28.4344 20.7978C28.6541 20.6256 28.9223 20.5267 29.2013 20.5153C29.4802 20.5038 29.7557 20.5804 29.9887 20.7341C30.2951 20.9243 30.5427 21.1956 30.7042 21.518C30.8657 21.8403 30.9348 22.2011 30.9037 22.5603V22.5603Z" fill="#FF87AF"/>
<path d="M28.6575 33.9243C28.614 33.5099 28.6672 33.091 28.8129 32.7006C28.9587 32.3102 29.193 31.9589 29.4975 31.6743C32.3437 29.0492 35.3974 26.6583 38.6287 24.525C38.7262 24.4631 38.8162 24.4012 38.9231 24.3375C39.2054 24.1337 39.5474 24.0296 39.8953 24.0414C40.2432 24.0533 40.5773 24.1805 40.845 24.4031C41.104 24.6225 41.2873 24.918 41.3687 25.2475C41.4502 25.5771 41.4257 25.9239 41.2987 26.2387C40.8899 27.6003 40.1354 28.8328 39.1087 29.8162C37.0236 31.8704 34.8982 33.8833 32.7337 35.8537C32.4078 36.1889 31.9796 36.4062 31.5166 36.4714C31.0536 36.5366 30.5821 36.4459 30.1762 36.2137C29.7498 35.9921 29.3867 35.6658 29.121 35.2653C28.8554 34.8648 28.6959 34.4034 28.6575 33.9243Z" fill="#FF87AF"/>
<path d="M42.1875 35.1638C41.6625 35.7262 41.1225 36.2625 40.6181 36.8381C40.4665 37.0606 40.3407 37.2997 40.2431 37.5506C40.5206 37.6331 40.845 37.8506 41.07 37.7737C42.2156 37.3894 43.3331 36.9281 44.5913 36.4425C44.3175 37.0725 44.1113 37.6537 43.8206 38.1862C42.6233 40.1984 41.124 42.0146 39.375 43.5712C38.71 44.2125 38.0194 44.8256 37.3031 45.4106C36.9238 45.7254 36.4677 45.9338 35.9815 46.0144C35.4952 46.0951 34.9962 46.0451 34.5356 45.8696C34.075 45.6941 33.6693 45.3995 33.3599 45.0157C33.0506 44.632 32.8487 44.173 32.775 43.6856C32.7449 43.4147 32.7689 43.1404 32.8455 42.8788C32.9221 42.6171 33.0498 42.3732 33.2213 42.1612C35.7728 39.3905 38.6888 36.9791 41.8894 34.9931C41.9283 34.978 41.9695 34.9698 42.0113 34.9688L42.1875 35.1638Z" fill="#FF87AF"/>
<path d="M46.4888 27.6953L49.6969 13.4453L51.9469 13.9722L50.7863 17.4991C49.7025 20.7803 48.6056 24.0616 47.5481 27.3466C47.3419 27.9541 47.0719 28.0666 46.4888 27.6953V27.6953Z" fill="#FF6196"/>
<path d="M42.8662 36.0768C43.2056 34.7812 43.5431 33.5831 43.8281 32.3718C44.1059 31.1972 44.6342 30.0965 45.3769 29.145C45.8325 28.5468 46.3444 28.785 46.8675 28.9143C47.3513 29.0325 47.4731 29.3868 47.4938 29.8518C47.57 31.1377 47.1784 32.4078 46.3913 33.4275C45.4541 34.5892 44.2428 35.4997 42.8662 36.0768V36.0768Z" fill="#FF6196"/>
<path d="M56.2369 5.42659C56.2649 5.009 56.2542 4.58972 56.205 4.17409C56.1663 4.058 56.0897 3.95828 55.9875 3.89097C55.9043 3.82329 55.8069 3.77522 55.7025 3.75034C55.6425 3.73909 55.5581 3.80097 55.4775 3.88909C55.3994 3.97276 55.3331 4.06676 55.2806 4.16847C55.2333 4.34827 55.2231 4.53584 55.2506 4.71972V13.1047C52.7713 13.2807 50.292 12.7612 48.0919 11.6047C47.3726 11.2796 46.8007 10.6974 46.4885 9.97244C46.1764 9.24744 46.1463 8.43195 46.4044 7.68597C46.6838 6.63034 46.9931 5.58409 47.3119 4.53972C47.3869 4.29034 47.43 4.03347 47.3119 3.88722C47.2462 3.81602 47.1555 3.77302 47.0588 3.76722C46.9349 3.76855 46.8149 3.81074 46.7175 3.88722C46.5773 3.97109 46.4656 4.09522 46.3969 4.24347C46.0219 5.36847 45.6919 6.50472 45.405 7.65222C45.2967 8.10441 45.2675 8.57194 45.3188 9.03409C45.3913 9.8703 45.7023 10.6681 46.2148 11.3328C46.7273 11.9975 47.4198 12.5012 48.21 12.7841C48.5644 12.9322 48.7725 13.0785 48.6731 13.5453C48.5363 14.1378 48.4031 14.7303 48.2681 15.3247C47.3494 19.3522 46.4356 23.3816 45.5269 27.4128C45.5013 27.5926 45.4222 27.7605 45.3 27.8947C44.701 28.3708 44.1978 28.9561 43.8169 29.6197C43.3315 30.4954 42.9956 31.446 42.8231 32.4322C42.79 32.7468 42.6763 33.0476 42.4931 33.3054C42.3098 33.5632 42.0631 33.7694 41.7769 33.9041C40.995 34.2997 40.2769 34.8116 39.4088 35.3441C39.4666 34.3001 39.4554 33.2535 39.375 32.211C39.3089 31.8903 39.323 31.5583 39.4158 31.2443C39.5087 30.9303 39.6776 30.6441 39.9075 30.411C41.0511 29.2781 41.8662 27.8564 42.2663 26.2972C42.3857 25.9358 42.4185 25.5513 42.3619 25.1749C42.3053 24.7984 42.1609 24.4406 41.9404 24.1303C41.7199 23.82 41.4295 23.5659 41.0926 23.3886C40.7557 23.2113 40.3819 23.1158 40.0013 23.1097C39.385 23.1029 38.7799 23.2748 38.2594 23.6047C36.4702 24.8265 34.7122 26.0931 32.9869 27.4035C31.9613 28.176 30.9956 29.031 30.0019 29.841C29.9591 29.795 29.9219 29.744 29.8913 29.6891C29.8723 29.551 29.8351 29.4161 29.7806 29.2878C28.95 28.0053 29.5256 27.0735 30.4275 26.1153C31.3671 25.1304 31.8863 23.8184 31.875 22.4572C31.9041 21.7637 31.6869 21.0822 31.2619 20.5335C31.0354 20.2549 30.7564 20.0236 30.4406 19.8528C29.9921 19.6074 29.4793 19.5049 28.9709 19.5592C28.4625 19.6135 27.9828 19.8219 27.5963 20.1566L27.0731 20.5316C25.8788 21.3866 24.6694 22.2191 23.52 23.1341C21.8421 24.4737 20.2002 25.858 18.5963 27.2853C17.8463 27.9472 17.2988 28.851 16.5206 29.466C12.4631 32.6703 8.36251 35.8166 4.27688 38.9835C4.1364 39.0673 4.00722 39.1687 3.89251 39.2853C3.8807 39.3024 3.87065 39.3206 3.86251 39.3397C3.77626 39.5403 3.70313 39.8722 3.80438 39.9941C3.8292 40.0205 3.8592 40.0416 3.89251 40.056C4.07112 40.1301 4.2699 40.14 4.45501 40.0841C4.70028 39.9569 4.92524 39.7938 5.12251 39.6003L16.56 30.7353C16.7644 30.576 16.98 30.4316 17.2294 30.2516C17.2964 30.9988 17.5734 31.7117 18.0284 32.3082C18.4834 32.9046 19.0978 33.3602 19.8007 33.6223C20.5036 33.8845 21.2663 33.9424 22.0007 33.7896C22.7351 33.6367 23.4113 33.2793 23.9513 32.7585C25.2638 31.4947 26.6194 30.2685 27.9563 29.0253L28.4438 28.5678C29.2613 30.1672 29.1788 30.5891 27.9225 31.596C20.2025 37.7735 12.4881 43.9522 4.77938 50.1322C4.45126 50.3947 3.80251 50.6328 4.22813 51.1916C4.65376 51.7503 5.04563 51.1747 5.37188 50.9141C12.6044 45.1378 19.8319 39.3541 27.0544 33.5628C27.2419 33.4128 27.4388 33.2797 27.7106 33.081V33.6885C27.6739 34.3904 27.8468 35.0874 28.2074 35.6908C28.568 36.2941 29.1 36.7765 29.7356 37.0766C30.3587 37.3931 31.066 37.5039 31.756 37.3931C32.446 37.2822 33.0831 36.9555 33.5756 36.4597C35.0625 35.1472 36.5344 33.8085 38.0138 32.4847C38.1075 32.4003 38.2163 32.3366 38.3888 32.2053C38.6004 33.4941 38.559 34.8118 38.2669 36.0847C38.1948 36.254 38.0765 36.3995 37.9256 36.5047C36.7031 37.561 35.4763 38.6128 34.245 39.6603L16.185 54.9903C15.9736 55.1314 15.7867 55.3062 15.6319 55.5078C15.5825 55.5998 15.5548 55.7019 15.5509 55.8062C15.547 55.9105 15.567 56.0143 15.6094 56.1097C15.6941 56.1732 15.792 56.2168 15.8959 56.2372C15.9998 56.2577 16.1069 56.2545 16.2094 56.2278C16.2902 56.2044 16.3646 56.1627 16.4269 56.106C16.5206 56.031 16.6144 55.9353 16.6988 55.8585L29.7544 44.796C30.3825 44.2635 31.0163 43.7385 31.6781 43.1835C31.7117 43.2726 31.7386 43.3641 31.7588 43.4572C31.7962 44.1809 32.0454 44.8777 32.4754 45.4611C32.9054 46.0444 33.4973 46.4886 34.1775 46.7385C34.8495 47.0304 35.5942 47.1116 36.3133 46.9713C37.0324 46.831 37.692 46.4759 38.205 45.9528C39.075 45.1597 39.9338 44.3535 40.7963 43.551C41.3588 43.0353 41.9025 42.5178 42.495 41.961C42.6054 42.3459 42.6949 42.7364 42.7631 43.131C42.8493 44.0493 42.7226 44.9751 42.3929 45.8366C42.0631 46.698 41.5392 47.4718 40.8619 48.0978C38.6888 50.4378 36.4669 52.7272 34.2638 55.0353C34.1194 55.1853 33.9206 55.3091 33.8419 55.4872C33.7631 55.6653 33.7125 56.0141 33.8063 56.0891L33.8325 56.106C34.0291 56.2016 34.2502 56.2349 34.4663 56.2016C34.5268 56.1892 34.5808 56.1552 34.6181 56.106C34.6706 56.0516 34.7213 55.9841 34.7719 55.9335C36.5569 54.0885 38.3513 52.2528 40.1231 50.3947C40.8383 49.6701 41.5107 48.9044 42.1369 48.1016C42.9534 47.1977 43.4948 46.0795 43.6974 44.8784C43.9 43.6773 43.7554 42.4433 43.2806 41.3216C43.2296 41.0715 43.2795 40.8113 43.4194 40.5978C43.5413 40.3878 43.6763 40.1835 43.815 39.981C44.259 39.4045 44.6287 38.7746 44.9156 38.106C45.47 36.465 46.321 34.9397 47.4263 33.606C47.9344 32.9618 48.2839 32.2072 48.4468 31.403C48.6096 30.5989 48.5812 29.7677 48.3638 28.9766C48.2869 28.6758 48.2869 28.3605 48.3638 28.0597C49.3125 25.1216 50.2894 22.1928 51.2569 19.2622L52.5506 15.336L52.95 14.1228C53.8013 14.1228 54.6038 14.106 55.4025 14.1228C56.0663 14.1416 56.2688 13.8303 56.2613 13.1853C56.2219 10.5978 56.2369 8.01222 56.2369 5.42659V5.42659ZM22.98 32.2503C22.5608 32.6384 22.0295 32.8837 21.4622 32.9511C20.895 33.0184 20.3209 32.9044 19.8225 32.6253C19.3264 32.4134 18.9081 32.053 18.6251 31.5937C18.342 31.1344 18.2082 30.5988 18.2419 30.0603C18.3019 29.399 18.5765 28.7755 19.0238 28.2847C21.9306 25.5129 25.0801 23.0073 28.4344 20.7978C28.6175 20.6684 28.8257 20.579 29.0456 20.5353C29.1931 20.5081 29.3444 20.5081 29.4919 20.5353C29.6685 20.5697 29.8371 20.6372 29.9888 20.7341C30.2954 20.9244 30.5432 21.1961 30.7047 21.5188C30.8663 21.8415 30.9352 22.2027 30.9038 22.5622C30.8649 23.4983 30.5374 24.3995 29.9663 25.1422C27.9243 27.7773 25.5794 30.1631 22.98 32.2503V32.2503ZM32.73 35.8672C32.404 36.2024 31.9759 36.4197 31.5129 36.4849C31.0499 36.5501 30.5783 36.4594 30.1725 36.2272C29.7453 36.0051 29.3817 35.6779 29.116 35.2764C28.8503 34.8748 28.6912 34.4122 28.6538 33.9322C28.6102 33.5178 28.6634 33.0989 28.8092 32.7084C28.955 32.318 29.1893 31.9668 29.4938 31.6822C32.34 29.057 35.3937 26.6661 38.625 24.5328C38.7225 24.471 38.8125 24.4091 38.9194 24.3453C39.2016 24.1416 39.5436 24.0374 39.8915 24.0493C40.2395 24.0612 40.5736 24.1884 40.8413 24.411C41.1003 24.6304 41.2835 24.9259 41.365 25.2554C41.4465 25.5849 41.422 25.9318 41.295 26.2466C40.8862 27.6082 40.1317 28.8407 39.105 29.8241C37.0369 31.8903 34.8863 33.8797 32.7338 35.8597L32.73 35.8672ZM43.8131 38.1941C42.6175 40.203 41.1207 42.0166 39.375 43.5716C38.71 44.2128 38.0194 44.826 37.3031 45.411C36.9238 45.7257 36.4677 45.9341 35.9815 46.0148C35.4952 46.0954 34.9963 46.0454 34.5356 45.87C34.075 45.6945 33.6693 45.3998 33.36 45.0161C33.0506 44.6323 32.8487 44.1733 32.775 43.686C32.7449 43.415 32.7689 43.1408 32.8455 42.8791C32.9221 42.6174 33.0498 42.3736 33.2213 42.1616C35.7728 39.3908 38.6888 36.9794 41.8894 34.9935C41.9283 34.9784 41.9695 34.9701 42.0113 34.9691L42.1988 35.1566C41.6738 35.7191 41.1338 36.2553 40.6294 36.831C40.4777 37.0534 40.3519 37.2925 40.2544 37.5435C40.5319 37.626 40.8563 37.8435 41.0813 37.7666C41.9869 37.4628 42.8775 37.1103 43.8319 36.7353L44.6025 36.4353C44.3138 37.0728 44.1075 37.6541 43.8169 38.1866L43.8131 38.1941ZM46.3875 33.441C45.6881 34.3314 44.8115 35.0669 43.8131 35.601C43.5044 35.7735 43.1875 35.9347 42.8625 36.0847C43.1963 34.8078 43.53 33.6247 43.8131 32.4285L43.8244 32.3797C44.1021 31.2051 44.6304 30.1043 45.3731 29.1528C45.8288 28.5547 46.3406 28.7928 46.8638 28.9222C47.3475 29.0403 47.4694 29.3947 47.49 29.8597C47.5669 31.1445 47.1767 32.4138 46.3913 33.4335L46.3875 33.441ZM50.775 17.5035C49.6913 20.7847 48.5944 24.066 47.5369 27.351C47.3381 27.9678 47.0681 28.0803 46.485 27.7091L49.2656 15.3472L49.6931 13.4497L51.9431 13.9766L51.4913 15.3472L50.775 17.5035Z" fill="black"/>
</svg>
