<svg width="120" height="120" viewBox="0 0 120 120" fill="none" xmlns="http://www.w3.org/2000/svg">
<path d="M67.6875 111C67.845 110.644 68.2425 110.396 68.5313 110.096C72.9375 105.476 77.3813 100.897 81.7275 96.2212C83.0876 94.9651 84.1385 93.4113 84.7982 91.6815C85.4579 89.9517 85.7084 88.0927 85.53 86.2499C85.3936 85.4608 85.2146 84.6797 84.9938 83.9099C83.8088 85.0349 82.7063 86.0587 81.5963 87.0899C79.8713 88.6949 78.1538 90.3074 76.4138 91.8937C75.3878 92.9398 74.0685 93.65 72.6304 93.9306C71.1922 94.2111 69.7027 94.0487 68.3588 93.4649C66.9983 92.9651 65.8146 92.0767 64.9546 90.9101C64.0946 89.7434 63.5962 88.3499 63.5213 86.9024C63.481 86.7162 63.4271 86.5332 63.36 86.3549C62.0363 87.4799 60.7688 88.5149 59.5125 89.5799L33.4013 111.705C33.2213 111.859 33.0263 112.05 32.8575 112.2H67.6688L67.6163 112.166C67.4288 112.035 67.5263 111.345 67.6875 111V111Z" fill="#FFCEBF"/>
<path d="M31.2637 111C31.5734 110.596 31.9471 110.247 32.37 109.965L68.505 79.3084C70.97 77.2159 73.4237 75.1122 75.8662 72.9972C76.168 72.7867 76.4045 72.4956 76.5487 72.1572C77.133 69.6113 77.2158 66.976 76.7925 64.3984C76.4175 64.6609 76.215 64.7734 76.0425 64.9572C73.0837 67.6047 70.14 70.2747 67.1662 72.9072C66.1811 73.8986 64.907 74.5522 63.527 74.7739C62.147 74.9956 60.7323 74.774 59.4862 74.1409C58.215 73.5408 57.151 72.576 56.4298 71.3693C55.7086 70.1626 55.3627 68.7686 55.4362 67.3647V66.1497C54.8925 66.5472 54.495 66.8134 54.1237 67.1134C39.6612 78.6934 25.2012 90.2647 10.7437 101.827C10.0912 102.348 9.31123 103.511 8.45623 102.382C7.60123 101.253 8.90248 100.788 9.55873 100.263C24.9712 87.8959 40.3912 75.5397 55.8187 63.1947C58.3312 61.1809 58.4962 60.3372 56.8612 57.1384L55.8862 58.0534C53.2125 60.5397 50.5087 62.9922 47.8762 65.5197C46.7964 66.5613 45.4439 67.2762 43.9751 67.5819C42.5062 67.8876 40.9808 67.7717 39.5751 67.2474C38.1693 66.7231 36.9405 65.8119 36.0306 64.6191C35.1206 63.4262 34.5666 62.0003 34.4325 60.5059C33.9337 60.8809 33.5025 61.1547 33.0937 61.4734L10.2187 79.2034C9.8242 79.5904 9.37427 79.9164 8.88373 80.1709C8.5135 80.2828 8.11594 80.2629 7.75873 80.1147V112.218H31.2187C31.1315 112.026 31.0902 111.815 31.098 111.604C31.1058 111.392 31.1625 111.186 31.2637 111V111Z" fill="#FFCEBF"/>
<path d="M94.6388 9.08625C94.0013 11.175 93.3825 13.2675 92.8238 15.3787C92.3077 16.8707 92.3677 18.5017 92.9921 19.9517C93.6165 21.4017 94.7602 22.566 96.1988 23.2162C100.599 25.5292 105.558 26.5682 110.516 26.2163V9.4425C110.461 9.07474 110.482 8.69961 110.576 8.34C110.681 8.13658 110.814 7.94857 110.97 7.78125H94.6238C94.875 8.07375 94.7888 8.5875 94.6388 9.08625V9.08625Z" fill="#FF6196"/>
<path d="M61.8075 45.1197C61.7297 46.9919 61.0748 48.7943 59.9325 50.2797C55.8488 55.5512 51.159 60.3241 45.96 64.4997C45.1215 65.2758 44.0589 65.7664 42.9244 65.9011C41.7899 66.0359 40.6418 65.8078 39.645 65.2497C38.6527 64.8258 37.8161 64.105 37.2501 63.1864C36.684 62.2679 36.4163 61.1966 36.4837 60.1197C36.6038 58.7971 37.153 57.55 38.0475 56.5684C43.8612 51.0249 50.1602 46.0136 56.8687 41.5947C57.3081 41.2501 57.8447 41.0525 58.4025 41.0296C58.9604 41.0067 59.5114 41.1598 59.9775 41.4672C60.5901 41.8476 61.0854 42.3902 61.4084 43.0349C61.7314 43.6797 61.8695 44.4012 61.8075 45.1197V45.1197Z" fill="#FF87AF"/>
<path d="M57.315 67.8489C57.228 67.02 57.3344 66.1822 57.6259 65.4014C57.9174 64.6206 58.3861 63.918 58.995 63.3489C64.6875 58.0986 70.7948 53.3168 77.2575 49.0502C77.4525 48.9264 77.6325 48.8027 77.8463 48.6752C78.4108 48.2676 79.0948 48.0594 79.7906 48.0831C80.4864 48.1069 81.1546 48.3613 81.69 48.8064C82.2081 49.2452 82.5746 49.8362 82.7375 50.4953C82.9004 51.1544 82.8514 51.848 82.5975 52.4777C81.7799 55.2009 80.2709 57.6659 78.2175 59.6327C74.0472 63.741 69.7964 67.7668 65.4675 71.7077C64.8156 72.3781 63.9592 72.8127 63.0332 72.943C62.1072 73.0733 61.1642 72.8921 60.3525 72.4277C59.4996 71.9845 58.7734 71.3318 58.2421 70.5308C57.7107 69.7299 57.3917 68.807 57.315 67.8489Z" fill="#FF87AF"/>
<path d="M84.375 70.3275C83.325 71.4525 82.245 72.525 81.2362 73.6763C80.9329 74.1212 80.6813 74.5993 80.4862 75.1013C81.0412 75.2663 81.69 75.7013 82.14 75.5475C84.4312 74.7788 86.6662 73.8563 89.1825 72.885C88.635 74.145 88.2225 75.3075 87.6412 76.3725C85.2467 80.3968 82.2479 84.0292 78.75 87.1425C77.42 88.425 76.0387 89.6513 74.6062 90.8213C73.8476 91.4508 72.9354 91.8675 71.9629 92.0288C70.9904 92.1901 69.9925 92.0902 69.0713 91.7392C68.15 91.3883 67.3386 90.799 66.7199 90.0315C66.1012 89.264 65.6975 88.346 65.55 87.3713C65.4899 86.8293 65.5378 86.2808 65.691 85.7575C65.8442 85.2342 66.0996 84.7465 66.4425 84.3225C71.5456 78.781 77.3776 73.9581 83.7787 69.9863C83.8566 69.9561 83.939 69.9396 84.0225 69.9375L84.375 70.3275Z" fill="#FF87AF"/>
<path d="M92.9775 55.3916L99.3937 26.8916L103.894 27.9454L101.572 34.9991C99.405 41.5616 97.2112 48.1241 95.0962 54.6941C94.6837 55.9091 94.1437 56.1341 92.9775 55.3916V55.3916Z" fill="#FF6196"/>
<path d="M85.7325 72.1534C86.4113 69.5622 87.0863 67.1659 87.6563 64.7434C88.2118 62.3942 89.2684 60.1927 90.7538 58.2897C91.665 57.0934 92.6888 57.5697 93.735 57.8284C94.7025 58.0647 94.9463 58.7734 94.9875 59.7034C95.1401 62.2752 94.3569 64.8154 92.7825 66.8547C90.9083 69.1782 88.4856 70.9991 85.7325 72.1534V72.1534Z" fill="#FF6196"/>
<path d="M112.474 10.8522C112.53 10.017 112.508 9.17846 112.41 8.34721C112.333 8.11502 112.179 7.91559 111.975 7.78096C111.809 7.6456 111.614 7.54947 111.405 7.49971C111.285 7.47721 111.116 7.60096 110.955 7.77721C110.799 7.94453 110.666 8.13255 110.561 8.33596C110.467 8.69557 110.446 9.0707 110.501 9.43846V26.2085C105.543 26.5604 100.584 25.5215 96.1837 23.2085C94.7451 22.5582 93.6015 21.3939 92.9771 19.9439C92.3527 18.4939 92.2926 16.8629 92.8087 15.371C93.3675 13.2597 93.9862 11.1672 94.6237 9.07846C94.7737 8.57971 94.86 8.06596 94.6237 7.77346C94.4923 7.63107 94.3109 7.54506 94.1175 7.53346C93.8698 7.53613 93.6298 7.6205 93.435 7.77346C93.1545 7.9412 92.9311 8.18947 92.7937 8.48596C92.0437 10.736 91.3837 13.0085 90.81 15.3035C90.5934 16.2078 90.535 17.1429 90.6375 18.0672C90.7826 19.7396 91.4045 21.3353 92.4295 22.6647C93.4545 23.9941 94.8395 25.0015 96.42 25.5672C97.1287 25.8635 97.545 26.156 97.3462 27.0897C97.0725 28.2747 96.8062 29.4597 96.5362 30.6485C94.6987 38.7035 92.8712 46.7622 91.0537 54.8247C91.0025 55.1842 90.8444 55.52 90.6 55.7885C89.402 56.7406 88.3955 57.9113 87.6337 59.2385C86.663 60.9899 85.9912 62.891 85.6462 64.8635C85.58 65.4927 85.3526 66.0941 84.9861 66.6098C84.6195 67.1255 84.1262 67.5379 83.5537 67.8072C81.99 68.5985 80.5537 69.6222 78.8175 70.6872C78.9332 68.5993 78.9107 66.5059 78.75 64.421C78.6178 63.7796 78.6459 63.1155 78.8317 62.4876C79.0174 61.8597 79.3552 61.2872 79.815 60.821C82.1021 58.5552 83.7324 55.7119 84.5325 52.5935C84.7714 51.8706 84.837 51.1016 84.7238 50.3488C84.6105 49.5959 84.3218 48.8802 83.8808 48.2596C83.4398 47.639 82.8589 47.1308 82.1852 46.7762C81.5114 46.4217 80.7637 46.2306 80.0025 46.2185C78.7699 46.2047 77.5599 46.5486 76.5187 47.2085C72.9405 49.652 69.4243 52.1853 65.9737 54.806C63.9225 56.351 61.9912 58.061 60.0037 59.681C59.9181 59.5889 59.8438 59.487 59.7825 59.3772C59.7445 59.1011 59.6701 58.8313 59.5612 58.5747C57.9 56.0097 59.0512 54.146 60.855 52.2297C62.7342 50.2599 63.7725 47.6358 63.75 44.9135C63.8082 43.5264 63.3739 42.1635 62.5237 41.066C62.0709 40.5088 61.5127 40.0463 60.8812 39.7047C59.9842 39.2138 58.9585 39.0088 57.9417 39.1174C56.9249 39.226 55.9656 39.6429 55.1925 40.3122L54.1462 41.0622C51.7575 42.7722 49.3387 44.4372 47.04 46.2672C43.6841 48.9465 40.4004 51.715 37.1925 54.5697C35.6925 55.8935 34.5975 57.701 33.0412 58.931C24.9262 65.3397 16.725 71.6322 8.55374 77.966C8.27277 78.1336 8.01442 78.3365 7.78499 78.5697C7.76137 78.6038 7.74127 78.6403 7.72499 78.6785C7.55249 79.0797 7.40624 79.7435 7.60874 79.9872C7.65838 80.0401 7.71837 80.0822 7.78499 80.111C8.1422 80.2592 8.53976 80.2791 8.90999 80.1672C9.40053 79.9127 9.85046 79.5867 10.245 79.1997L33.12 61.4697C33.5287 61.151 33.96 60.8622 34.4587 60.5022C34.5928 61.9965 35.1468 63.4225 36.0568 64.6153C36.9668 65.8082 38.1956 66.7194 39.6013 67.2437C41.0071 67.7679 42.5325 67.8839 44.0013 67.5782C45.4702 67.2725 46.8226 66.5576 47.9025 65.516C50.5275 62.9885 53.2387 60.536 55.9125 58.0497L56.8875 57.1347C58.5225 60.3335 58.3575 61.1772 55.845 63.191C40.405 75.546 24.9762 87.9035 9.55874 100.263C8.90249 100.788 7.60499 101.265 8.45624 102.382C9.30749 103.5 10.0912 102.348 10.7437 101.827C25.2087 90.2747 39.6637 78.7072 54.1087 67.1247C54.4837 66.8247 54.8775 66.5585 55.4212 66.161V67.376C55.3477 68.7798 55.6936 70.1738 56.4148 71.3805C57.136 72.5872 58.2 73.5521 59.4712 74.1522C60.7173 74.7853 62.132 75.0069 63.512 74.7852C64.892 74.5635 66.1661 73.9099 67.1512 72.9185C70.125 70.2935 73.0687 67.616 76.0275 64.9685C76.215 64.7997 76.4325 64.6722 76.7775 64.4097C77.2008 66.9873 77.118 69.6226 76.5337 72.1685C76.3895 72.5069 76.153 72.798 75.8512 73.0085C73.4062 75.121 70.9525 77.2247 68.49 79.3197L32.37 109.98C31.9471 110.262 31.5734 110.612 31.2637 111.015C31.1649 111.199 31.1095 111.403 31.1017 111.611C31.0939 111.82 31.1339 112.028 31.2187 112.218C31.3882 112.345 31.584 112.433 31.7918 112.473C31.9995 112.514 32.2138 112.508 32.4187 112.455C32.5804 112.408 32.7293 112.324 32.8537 112.211C33.0412 112.061 33.2287 111.87 33.3975 111.716L59.5087 89.591C60.765 88.526 62.0325 87.476 63.3562 86.366C63.4233 86.5443 63.4772 86.7273 63.5175 86.9135C63.5924 88.3609 64.0908 89.7545 64.9508 90.9211C65.8108 92.0878 66.9945 92.9762 68.355 93.476C69.6989 94.0598 71.1884 94.2222 72.6266 93.9416C74.0647 93.6611 75.384 92.9508 76.41 91.9047C78.15 90.3185 79.8675 88.706 81.5925 87.101C82.7175 86.0697 83.805 85.0347 84.99 83.921C85.2108 84.6907 85.3898 85.4719 85.5262 86.261C85.6986 88.0976 85.4452 89.9493 84.7857 91.6722C84.1263 93.395 83.0784 94.9426 81.7237 96.1947C77.3775 100.875 72.9337 105.453 68.5275 110.07C68.2387 110.37 67.8412 110.617 67.6837 110.973C67.5262 111.33 67.425 112.027 67.6125 112.177L67.665 112.211C68.0582 112.402 68.5004 112.469 68.9325 112.402C69.0536 112.377 69.1615 112.309 69.2362 112.211C69.3412 112.102 69.4425 111.967 69.5437 111.866C73.1137 108.176 76.7025 104.505 80.2462 100.788C81.6766 99.3392 83.0214 97.8079 84.2737 96.2022C85.9067 94.3944 86.9895 92.1579 87.3947 89.7558C87.7999 87.3536 87.5108 84.8856 86.5612 82.6422C86.4592 82.142 86.5589 81.6217 86.8387 81.1947C87.0825 80.7747 87.3525 80.366 87.63 79.961C88.5179 78.8081 89.2575 77.5482 89.8312 76.211C90.94 72.9289 92.642 69.8784 94.8525 67.211C95.8687 65.9226 96.5679 64.4134 96.8935 62.8051C97.2192 61.1968 97.1624 59.5345 96.7275 57.9522C96.5738 57.3506 96.5738 56.7201 96.7275 56.1185C98.625 50.2422 100.579 44.3847 102.514 38.5235L105.101 30.671L105.9 28.2447C107.602 28.2447 109.207 28.211 110.805 28.2447C112.132 28.2822 112.537 27.6597 112.522 26.3697C112.444 21.1947 112.474 16.0235 112.474 10.8522V10.8522ZM45.96 64.4997C45.1216 65.2758 44.0589 65.7664 42.9244 65.9011C41.7899 66.0359 40.6419 65.8078 39.645 65.2497C38.6528 64.8258 37.8162 64.105 37.2501 63.1865C36.6841 62.2679 36.4163 61.1966 36.4837 60.1197C36.6038 58.7971 37.153 57.55 38.0475 56.5685C43.8612 51.0249 50.1602 46.0136 56.8687 41.5947C57.2349 41.3359 57.6514 41.157 58.0912 41.0697C58.3862 41.0153 58.6887 41.0153 58.9837 41.0697C59.337 41.1385 59.6742 41.2734 59.9775 41.4672C60.5907 41.8479 61.0864 42.3911 61.4094 43.0366C61.7325 43.682 61.8703 44.4044 61.8075 45.1235C61.7297 46.9957 61.0748 48.7981 59.9325 50.2835C55.8485 55.5537 51.1588 60.3253 45.96 64.4997V64.4997ZM65.46 71.7335C64.808 72.4039 63.9517 72.8384 63.0257 72.9688C62.0997 73.0991 61.1566 72.9178 60.345 72.4535C59.4906 72.0093 58.7634 71.3548 58.2319 70.5517C57.7005 69.7487 57.3823 68.8235 57.3075 67.8635C57.2204 67.0346 57.3268 66.1967 57.6184 65.4159C57.9099 64.6351 58.3785 63.9325 58.9875 63.3635C64.6799 58.1131 70.7873 53.3313 77.25 49.0647C77.445 48.941 77.625 48.8172 77.8387 48.6897C78.4032 48.2822 79.0872 48.0739 79.7831 48.0977C80.4789 48.1214 81.1471 48.3759 81.6825 48.821C82.2005 49.2598 82.567 49.8507 82.73 50.5098C82.8929 51.1689 82.8439 51.8626 82.59 52.4922C81.7724 55.2154 80.2634 57.6805 78.21 59.6472C74.0737 63.7797 69.7725 67.7585 65.4675 71.7185L65.46 71.7335ZM87.6262 76.3872C85.235 80.4051 82.2414 84.0323 78.75 87.1422C77.42 88.4247 76.0387 89.651 74.6062 90.821C73.8476 91.4505 72.9354 91.8672 71.9629 92.0285C70.9904 92.1898 69.9925 92.0899 69.0713 91.7389C68.15 91.388 67.3386 90.7987 66.7199 90.0312C66.1012 89.2637 65.6974 88.3457 65.55 87.371C65.4899 86.829 65.5378 86.2805 65.691 85.7572C65.8442 85.2339 66.0996 84.7462 66.4425 84.3222C71.5456 78.7807 77.3776 73.9578 83.7787 69.986C83.8566 69.9558 83.939 69.9393 84.0225 69.9372L84.3975 70.3122C83.3475 71.4372 82.2675 72.5097 81.2587 73.661C80.9554 74.1059 80.7038 74.584 80.5087 75.086C81.0637 75.251 81.7125 75.686 82.1625 75.5322C83.9737 74.9247 85.755 74.2197 87.6637 73.4697L89.205 72.8697C88.6275 74.1447 88.215 75.3072 87.6337 76.3722L87.6262 76.3872ZM92.775 66.881C91.3762 68.6617 89.6229 70.1328 87.6262 71.201C87.0087 71.546 86.375 71.8685 85.725 72.1685C86.3925 69.6147 87.06 67.2485 87.6262 64.856L87.6487 64.7585C88.2042 62.4092 89.2609 60.2077 90.7462 58.3047C91.6575 57.1085 92.6812 57.5847 93.7275 57.8435C94.695 58.0797 94.9387 58.7885 94.98 59.7185C95.1337 62.288 94.3533 64.8266 92.7825 66.866L92.775 66.881ZM101.55 35.006C99.3825 41.5685 97.1887 48.131 95.0737 54.701C94.6762 55.9347 94.1362 56.1597 92.97 55.4172L98.5312 30.6935L99.3862 26.8985L103.886 27.9522L102.982 30.6935L101.55 35.006Z" fill="black"/>
</svg>
