<svg width="120" height="120" viewBox="0 0 120 120" fill="none" xmlns="http://www.w3.org/2000/svg">
<path d="M33.75 51.375C37.25 37.375 46 30.375 60 30.375C81 30.375 83.625 46.125 94.125 48.75C101.125 50.5 107.25 47.875 112.5 40.875C109 54.875 100.25 61.875 86.25 61.875C65.25 61.875 62.625 46.125 52.125 43.5C45.125 41.75 39 44.375 33.75 51.375ZM7.5 82.875C11 68.875 19.75 61.875 33.75 61.875C54.75 61.875 57.375 77.625 67.875 80.25C74.875 82 81 79.375 86.25 72.375C82.75 86.375 74 93.375 60 93.375C39 93.375 36.375 77.625 25.875 75C18.875 73.25 12.75 75.875 7.5 82.875Z" fill="#44A8B3"/>
</svg>
