<svg width="886" height="506" viewBox="0 0 886 506" fill="none" xmlns="http://www.w3.org/2000/svg">
<path d="M615.923 55.8535H696.34C700.729 55.8535 704.939 57.544 708.043 60.5532C711.147 63.5623 712.891 67.6435 712.891 71.8991V223.012C712.891 226.38 711.511 229.61 709.054 231.991C706.598 234.373 703.266 235.71 699.792 235.71H612.469C608.995 235.71 605.663 234.373 603.206 231.991C600.75 229.61 599.37 226.38 599.37 223.012V71.8991C599.37 69.7918 599.798 67.7051 600.63 65.7582C601.462 63.8113 602.681 62.0424 604.218 60.5524C605.756 59.0624 607.58 57.8805 609.589 57.0743C611.597 56.2681 613.75 55.8532 615.923 55.8535Z" fill="#64FFDA"/>
<path d="M829.776 55.8535H749.69C740.457 55.8535 732.972 63.1095 732.972 72.0601V219.504C732.972 228.454 740.457 235.71 749.69 235.71H829.776C839.009 235.71 846.493 228.454 846.493 219.504V72.0601C846.493 63.1095 839.009 55.8535 829.776 55.8535Z" fill="#64FFDA"/>
<path d="M655.437 111.955L679.941 79.9756" stroke="white" stroke-width="7" stroke-linecap="round" stroke-linejoin="round"/>
<path d="M598.69 186.013L639.843 132.308" stroke="white" stroke-width="7" stroke-linecap="round" stroke-linejoin="round"/>
<path d="M589.524 496.491V71.6757C589.527 64.6191 592.42 57.8523 597.567 52.8625C602.714 47.8728 609.694 45.0683 616.973 45.0654H828.893C836.176 45.0654 843.16 47.8701 848.31 52.8625C853.46 57.8549 856.353 64.6261 856.353 71.6864V496.491" stroke="#592D29" stroke-width="5" stroke-linecap="round" stroke-linejoin="round"/>
<path d="M722.932 45.0654V496.025" stroke="#592D29" stroke-width="5" stroke-linecap="round" stroke-linejoin="round"/>
<path d="M807.923 108.775L832.577 76.6025" stroke="white" stroke-width="7" stroke-linecap="round" stroke-linejoin="round"/>
<path d="M784.961 158.144L822.789 108.775" stroke="white" stroke-width="7" stroke-linecap="round" stroke-linejoin="round"/>
<path d="M797.287 122.657L802.245 116.188" stroke="white" stroke-width="7" stroke-linecap="round" stroke-linejoin="round"/>
<path d="M747.309 187.882L787.341 135.639" stroke="white" stroke-width="7" stroke-linecap="round" stroke-linejoin="round"/>
<path d="M340.521 55.8535H25.9802C13.2886 55.8535 3 65.8277 3 78.1314V213.433C3 225.736 13.2886 235.71 25.9802 235.71H340.521C353.212 235.71 363.501 225.736 363.501 213.433V78.1314C363.501 65.8277 353.212 55.8535 340.521 55.8535Z" fill="#64FFDA"/>
<path d="M286.996 119.836L316.54 81.2783" stroke="white" stroke-width="7" stroke-linecap="round" stroke-linejoin="round"/>
<path d="M248.272 193.621L304.811 119.836" stroke="white" stroke-width="7" stroke-linecap="round" stroke-linejoin="round"/>
<path d="M214.35 214.641L275.577 134.737" stroke="white" stroke-width="7" stroke-linecap="round" stroke-linejoin="round"/>
<path d="M84.2666 203.737L115.418 163.082" stroke="white" stroke-width="7" stroke-linecap="round" stroke-linejoin="round"/>
<path d="M60.1968 212.464L131.491 119.424" stroke="white" stroke-width="7" stroke-linecap="round" stroke-linejoin="round"/>
<path d="M450.791 249.955H462.528C473.372 249.955 483.771 254.131 491.439 261.565C499.107 268.998 503.415 279.08 503.415 289.592V322.094C503.415 324.334 502.497 326.482 500.863 328.066C499.229 329.65 497.013 330.539 494.703 330.539H418.616C416.305 330.539 414.09 329.65 412.456 328.066C410.822 326.482 409.904 324.334 409.904 322.094V289.592C409.904 279.08 414.212 268.998 421.88 261.565C429.547 254.131 439.947 249.955 450.791 249.955Z" fill="#66757F"/>
<path d="M317.066 249.955H328.803C339.647 249.955 350.047 254.131 357.715 261.565C365.383 268.998 369.69 279.08 369.69 289.592V322.094C369.69 324.334 368.772 326.482 367.139 328.066C365.505 329.65 363.289 330.539 360.978 330.539H284.9C282.59 330.539 280.374 329.65 278.74 328.066C277.106 326.482 276.188 324.334 276.188 322.094V289.592C276.188 279.081 280.495 269.001 288.161 261.568C295.827 254.134 306.224 249.957 317.066 249.955Z" fill="#66757F"/>
<path d="M4.10742 363.918H535.087C535.108 360.987 534.531 358.081 533.389 355.367C532.247 352.653 530.562 350.185 528.432 348.105C526.301 346.025 523.767 344.375 520.975 343.249C518.184 342.123 515.19 341.543 512.166 341.544H27.185C21.0642 341.545 15.1944 343.902 10.8666 348.098C6.53873 352.294 4.10742 357.985 4.10742 363.918V363.918Z" fill="#66757F"/>
<path d="M535.111 363.97H5.90552" stroke="#592D29" stroke-width="5" stroke-linecap="round" stroke-linejoin="round"/>
<path d="M183.36 249.955H195.097C205.941 249.955 216.341 254.131 224.008 261.565C231.676 268.998 235.984 279.08 235.984 289.592V321.332C235.984 323.774 234.983 326.116 233.202 327.842C231.421 329.569 229.005 330.539 226.486 330.539H151.973C149.454 330.539 147.039 329.569 145.257 327.842C143.476 326.116 142.475 323.774 142.475 321.332V289.592C142.475 279.08 146.783 268.999 154.45 261.565C162.117 254.132 172.516 249.956 183.36 249.955Z" fill="#66757F"/>
<path d="M49.6446 249.955H61.3816C66.7519 249.954 72.0698 250.978 77.0317 252.969C81.9936 254.961 86.5023 257.88 90.3001 261.561C94.098 265.242 97.1107 269.612 99.1661 274.421C101.222 279.231 102.28 284.386 102.28 289.592V321.332C102.28 323.774 101.279 326.116 99.4976 327.842C97.7163 329.569 95.3005 330.539 92.7814 330.539H18.2559C15.7369 330.539 13.321 329.569 11.5397 327.842C9.7585 326.116 8.75781 323.774 8.75781 321.332V289.592C8.75781 279.08 13.0655 268.998 20.7333 261.565C28.401 254.131 38.8008 249.955 49.6446 249.955V249.955Z" fill="#66757F"/>
<path d="M499.196 102.056H397.334V216.14H499.196V102.056Z" fill="#FED4C7"/>
<path d="M407.335 129.708L418.47 144.015H434.04L457.603 172.261V192.309L440.491 204.659" stroke="#F3B304" stroke-width="5" stroke-miterlimit="10"/>
<path d="M441.146 206.254C442.308 206.254 443.25 205.341 443.25 204.215C443.25 203.088 442.308 202.175 441.146 202.175C439.984 202.175 439.042 203.088 439.042 204.215C439.042 205.341 439.984 206.254 441.146 206.254Z" fill="white" stroke="#F3B304" stroke-width="5" stroke-miterlimit="10"/>
<path d="M457.682 193.923C458.844 193.923 459.786 193.01 459.786 191.884C459.786 190.757 458.844 189.844 457.682 189.844C456.52 189.844 455.578 190.757 455.578 191.884C455.578 193.01 456.52 193.923 457.682 193.923Z" fill="white" stroke="#F3B304" stroke-width="5" stroke-miterlimit="10"/>
<path d="M457.682 175.119C458.844 175.119 459.786 174.205 459.786 173.079C459.786 171.953 458.844 171.04 457.682 171.04C456.52 171.04 455.578 171.953 455.578 173.079C455.578 174.205 456.52 175.119 457.682 175.119Z" fill="white" stroke="#F3B304" stroke-width="5" stroke-miterlimit="10"/>
<path d="M434.468 146.448C435.629 146.448 436.571 145.535 436.571 144.408C436.571 143.282 435.629 142.369 434.468 142.369C433.306 142.369 432.364 143.282 432.364 144.408C432.364 145.535 433.306 146.448 434.468 146.448Z" fill="white" stroke="#F3B304" stroke-width="5" stroke-miterlimit="10"/>
<path d="M418.569 146.448C419.731 146.448 420.673 145.535 420.673 144.408C420.673 143.282 419.731 142.369 418.569 142.369C417.407 142.369 416.466 143.282 416.466 144.408C416.466 145.535 417.407 146.448 418.569 146.448Z" fill="white" stroke="#F3B304" stroke-width="5" stroke-miterlimit="10"/>
<path d="M407.435 130.724C408.597 130.724 409.538 129.811 409.538 128.685C409.538 127.558 408.597 126.645 407.435 126.645C406.273 126.645 405.331 127.558 405.331 128.685C405.331 129.811 406.273 130.724 407.435 130.724Z" fill="white" stroke="#F3B304" stroke-width="5" stroke-miterlimit="10"/>
<path d="M479.972 113.04L466.804 123.75V148.106L449.221 163.368H429.706L416.242 173.896" stroke="#59221D" stroke-width="5" stroke-linecap="round" stroke-linejoin="round"/>
<path d="M416.342 175.936C417.503 175.936 418.445 175.023 418.445 173.896C418.445 172.77 417.503 171.857 416.342 171.857C415.18 171.857 414.238 172.77 414.238 173.896C414.238 175.023 415.18 175.936 416.342 175.936Z" fill="white" stroke="#59221D" stroke-width="5" stroke-linejoin="round"/>
<path d="M430.335 165.455C431.497 165.455 432.439 164.542 432.439 163.416C432.439 162.29 431.497 161.376 430.335 161.376C429.173 161.376 428.231 162.29 428.231 163.416C428.231 164.542 429.173 165.455 430.335 165.455Z" fill="white" stroke="#59221D" stroke-width="5" stroke-linejoin="round"/>
<path d="M449.732 165.455C450.894 165.455 451.836 164.542 451.836 163.416C451.836 162.29 450.894 161.376 449.732 161.376C448.57 161.376 447.628 162.29 447.628 163.416C447.628 164.542 448.57 165.455 449.732 165.455Z" fill="white" stroke="#59221D" stroke-width="5" stroke-linejoin="round"/>
<path d="M466.587 149.732C467.749 149.732 468.691 148.819 468.691 147.692C468.691 146.566 467.749 145.653 466.587 145.653C465.425 145.653 464.483 146.566 464.483 147.692C464.483 148.819 465.425 149.732 466.587 149.732Z" fill="white" stroke="#59221D" stroke-width="5" stroke-linejoin="round"/>
<path d="M466.587 126.301C467.749 126.301 468.691 125.388 468.691 124.262C468.691 123.135 467.749 122.222 466.587 122.222C465.425 122.222 464.483 123.135 464.483 124.262C464.483 125.388 465.425 126.301 466.587 126.301Z" fill="white" stroke="#59221D" stroke-width="5" stroke-linejoin="round"/>
<path d="M480.262 114.279C481.424 114.279 482.366 113.366 482.366 112.239C482.366 111.113 481.424 110.2 480.262 110.2C479.1 110.2 478.158 111.113 478.158 112.239C478.158 113.366 479.1 114.279 480.262 114.279Z" fill="white" stroke="#59221D" stroke-width="5" stroke-linejoin="round"/>
<path d="M440.491 115.707V132.692L470.039 169.234H482.5" stroke="white" stroke-width="5" stroke-miterlimit="10" stroke-linecap="round"/>
<path d="M440.4 115.93C441.562 115.93 442.504 115.017 442.504 113.891C442.504 112.764 441.562 111.851 440.4 111.851C439.238 111.851 438.296 112.764 438.296 113.891C438.296 115.017 439.238 115.93 440.4 115.93Z" fill="#F5BBBB" stroke="white" stroke-width="5" stroke-miterlimit="10"/>
<path d="M440.4 134.736C441.562 134.736 442.504 133.823 442.504 132.696C442.504 131.57 441.562 130.657 440.4 130.657C439.238 130.657 438.296 131.57 438.296 132.696C438.296 133.823 439.238 134.736 440.4 134.736Z" fill="#F5BBBB" stroke="white" stroke-width="5" stroke-miterlimit="10"/>
<path d="M469.021 170.805C470.182 170.805 471.124 169.892 471.124 168.766C471.124 167.639 470.182 166.726 469.021 166.726C467.859 166.726 466.917 167.639 466.917 168.766C466.917 169.892 467.859 170.805 469.021 170.805Z" fill="#F5BBBB" stroke="white" stroke-width="5" stroke-miterlimit="10"/>
<path d="M485.24 170.805C486.402 170.805 487.344 169.892 487.344 168.766C487.344 167.639 486.402 166.726 485.24 166.726C484.078 166.726 483.136 167.639 483.136 168.766C483.136 169.892 484.078 170.805 485.24 170.805Z" fill="#F5BBBB" stroke="white" stroke-width="5" stroke-miterlimit="10"/>
<path d="M456.528 90.728H499.196V71.2904H456.528V90.728Z" fill="#FFC200"/>
<path d="M491.598 77.5376H464.461" stroke="white" stroke-width="5" stroke-miterlimit="10" stroke-linecap="round"/>
<path d="M491.598 82.1665H464.565" stroke="white" stroke-width="5" stroke-miterlimit="10" stroke-linecap="round"/>
<path d="M482.691 85.8667H473.904" stroke="white" stroke-width="5" stroke-miterlimit="10" stroke-linecap="round"/>
<path d="M397.733 90.728H441.146V58.7206L397.733 58.7206V90.728Z" fill="#7EBAD2"/>
<path d="M417.442 65.3506H403.375V90.7285H417.442V65.3506Z" fill="#FED4C7"/>
<path d="M411.808 69.3628H432.47" stroke="white" stroke-width="5" stroke-miterlimit="10" stroke-linecap="round"/>
<path d="M411.808 73.5464H432.47" stroke="white" stroke-width="5" stroke-miterlimit="10" stroke-linecap="round"/>
<path d="M429.113 85.8674C431.486 85.8674 433.409 84.0027 433.409 81.7025C433.409 79.4023 431.486 77.5376 429.113 77.5376C426.74 77.5376 424.817 79.4023 424.817 81.7025C424.817 84.0027 426.74 85.8674 429.113 85.8674Z" fill="#FFC200"/>
<path d="M666.579 470.677C666.579 470.677 641.311 495.4 612.524 494.769L535.251 266.558L609.566 263.722L666.579 470.677Z" fill="#59221D"/>
<path d="M653.896 387.594L568.504 469.215C565.875 466.098 546.802 442.594 546.988 411.613L605.05 353.388L574.122 321.7C552.608 299.435 542.614 288.11 535.251 266.558L614.843 244.843L662.639 326.075C668.381 335.83 670.637 347.15 669.056 358.275C667.475 369.401 662.145 379.708 653.896 387.594V387.594Z" fill="#A74602"/>
<path d="M588.142 254.6C587.753 257.423 582.606 290.773 556.207 302.4C553.706 299.482 551.452 296.677 549.397 293.881C576.591 279.839 586.49 252.979 586.49 252.979C587.026 253.538 587.577 254.078 588.142 254.6Z" fill="#59221D"/>
<path d="M604.089 353.388L613.643 344.339" stroke="#59221D" stroke-width="5" stroke-linecap="round" stroke-linejoin="round"/>
<path d="M692.471 502.446V503H615.979L612.062 491.529C646.788 491.725 665.875 470.308 665.875 470.308L686.583 489.292C690.267 492.747 692.385 497.478 692.471 502.446V502.446Z" fill="white" stroke="#592D29" stroke-width="5" stroke-linecap="round" stroke-linejoin="round"/>
<path d="M614.601 498.968H692.001" stroke="#592D29" stroke-width="5" stroke-linecap="round" stroke-linejoin="round"/>
<path d="M675.871 498.449C675.854 495.941 676.427 493.462 677.548 491.201C678.668 488.94 680.305 486.956 682.335 485.4" stroke="#592D29" stroke-width="5" stroke-linecap="round" stroke-linejoin="round"/>
<path d="M661.386 481.173L669.996 473.23C670.374 472.88 670.879 472.687 671.402 472.693C671.925 472.7 672.425 472.903 672.795 473.262V473.262C673.154 473.61 673.363 474.077 673.38 474.569C673.397 475.06 673.221 475.54 672.888 475.911" stroke="#592D29" stroke-width="5" stroke-linecap="round" stroke-linejoin="round"/>
<path d="M664.984 484.196L673.592 476.252C673.971 475.902 674.475 475.71 674.998 475.716C675.521 475.722 676.021 475.926 676.391 476.284V476.284C676.752 476.631 676.963 477.099 676.98 477.591C676.997 478.084 676.82 478.564 676.484 478.934" stroke="#592D29" stroke-width="5" stroke-linecap="round" stroke-linejoin="round"/>
<path d="M539.54 502.972L535.231 503L535.124 422.66L546.994 412.141C546.46 445.803 568.36 469.129 568.36 469.129L545.366 500.576C544.605 501.327 543.699 501.925 542.699 502.336C541.7 502.747 540.626 502.963 539.54 502.972V502.972Z" fill="white" stroke="#592D29" stroke-width="5" stroke-linecap="round" stroke-linejoin="round"/>
<path d="M539.733 483.378C542.241 483.993 544.571 485.155 546.547 486.775C548.522 488.396 550.09 490.431 551.131 492.727" stroke="#592D29" stroke-width="5" stroke-linecap="round" stroke-linejoin="round"/>
<path d="M539.633 418.667V502.972" stroke="#592D29" stroke-width="5" stroke-linecap="round" stroke-linejoin="round"/>
<path d="M556.596 468.726L564.363 477.455C564.706 477.837 564.881 478.336 564.849 478.843C564.816 479.349 564.58 479.823 564.19 480.162C563.813 480.492 563.322 480.672 562.814 480.664C562.306 480.657 561.821 480.462 561.455 480.121" stroke="#592D29" stroke-width="5" stroke-linecap="round" stroke-linejoin="round"/>
<path d="M553.305 472.06L561.072 480.789C561.416 481.171 561.59 481.67 561.558 482.177C561.525 482.683 561.289 483.157 560.899 483.496V483.496C560.523 483.826 560.031 484.006 559.523 483.998C559.016 483.99 558.53 483.796 558.164 483.455" stroke="#592D29" stroke-width="5" stroke-linecap="round" stroke-linejoin="round"/>
<path d="M626.214 179.825V244.248C626.215 246.419 627.105 248.502 628.689 250.037C630.273 251.573 632.421 252.435 634.661 252.436C636.901 252.436 639.049 251.573 640.633 250.038C642.217 248.502 643.107 246.42 643.107 244.248V207.846" stroke="#59221D" stroke-width="5" stroke-linecap="round" stroke-linejoin="round"/>
<path d="M657.8 194.375L651.208 211.105C644.675 227.323 629.031 237.997 611.074 237.997L629.76 270.2C629.76 270.2 601.813 268.967 586.49 252.973C586.49 252.973 573.203 289.019 535.142 299.429L535.251 266.55V170.968C535.251 143.623 558.124 121.461 586.331 121.474H586.444C595.397 121.474 604.01 124.793 610.52 130.751C617.03 136.709 620.943 144.855 621.458 153.52L622.37 168.881L622.696 174.405C622.696 174.405 623.373 196.148 657.8 194.375Z" fill="#1572B6"/>
<path d="M540.745 148.614V297.655C540.428 297.771 540.109 297.885 539.784 297.994V150.544C539.846 150.418 539.906 150.291 539.965 150.164C540.116 149.853 540.266 149.542 540.426 149.235C540.528 149.024 540.634 148.82 540.745 148.614Z" fill="#1572B6"/>
<path d="M546.585 139.862V295.254C546.268 295.4 545.949 295.546 545.626 295.683V141.056C545.94 140.657 546.27 140.259 546.585 139.862Z" fill="#1572B6"/>
<path d="M552.424 133.943V292.227C552.108 292.411 551.789 292.593 551.465 292.772V134.789C551.782 134.495 552.101 134.22 552.424 133.943Z" fill="#1572B6"/>
<path d="M558.266 129.602V288.469C557.949 288.683 557.628 288.917 557.307 289.141V130.228C557.626 130.017 557.946 129.808 558.266 129.602Z" fill="#1572B6"/>
<path d="M564.108 126.386V283.881C563.791 284.156 563.473 284.431 563.147 284.701V126.847C563.428 126.708 563.712 126.57 563.995 126.439C564.032 126.419 564.069 126.401 564.108 126.386Z" fill="#1572B6"/>
<path d="M569.948 124.069V278.28C569.636 278.615 569.317 278.948 568.989 279.278V124.404C569.301 124.282 569.627 124.175 569.948 124.069Z" fill="#1572B6"/>
<path d="M575.788 122.526V271.4C575.476 271.81 575.154 272.222 574.829 272.636V122.73C575.148 122.659 575.467 122.591 575.788 122.526Z" fill="#1572B6"/>
<path d="M581.629 121.678V262.726C581.505 262.941 581.375 263.155 581.244 263.37C581.058 263.673 580.87 263.984 580.675 264.3V121.772C580.989 121.738 581.308 121.706 581.629 121.678Z" fill="#1572B6"/>
<path d="M587.471 121.487V253.966C587.146 253.652 586.825 253.321 586.512 253.004V121.475C586.834 121.475 587.152 121.479 587.471 121.487Z" fill="#1572B6"/>
<path d="M593.311 122.127V258.701L593.165 258.602C592.892 258.416 592.622 258.224 592.352 258.033V121.955C592.673 122.009 592.996 122.067 593.311 122.127Z" fill="#1572B6"/>
<path d="M599.151 123.777V262.136C598.829 261.975 598.511 261.807 598.192 261.637V123.432C598.515 123.545 598.834 123.657 599.151 123.777Z" fill="#1572B6"/>
<path d="M604.993 126.616V264.742C604.674 264.618 604.353 264.489 604.034 264.36V126.056C604.255 126.18 604.477 126.309 604.698 126.44C604.798 126.498 604.897 126.552 604.993 126.616Z" fill="#1572B6"/>
<path d="M610.834 131.046V266.74C610.516 266.644 610.197 266.547 609.875 266.444V130.175C610.097 130.364 610.305 130.555 610.52 130.75C610.624 130.845 610.73 130.943 610.834 131.046Z" fill="#1572B6"/>
<path d="M616.674 247.651V268.261C616.358 268.19 616.039 268.115 615.716 268.046V246L615.782 246.112L616.32 247.041L616.674 247.651Z" fill="#1572B6"/>
<path d="M616.674 138.23V237.644C616.356 237.685 616.037 237.724 615.716 237.756V136.742C615.961 137.1 616.199 137.465 616.431 137.837C616.515 137.966 616.597 138.097 616.674 138.23Z" fill="#1572B6"/>
<path d="M622.514 172.028V236.503C622.197 236.588 621.876 236.67 621.555 236.747V172.028H622.514Z" fill="#1572B6"/>
<path d="M622.514 257.724V269.392C622.202 269.345 621.881 269.292 621.555 269.236V256.071L622.487 257.679L622.514 257.724Z" fill="#1572B6"/>
<path d="M628.356 186.157V234.482C628.174 234.562 627.99 234.639 627.807 234.712L627.397 234.877V185.124C627.696 185.47 628.015 185.815 628.356 186.157Z" fill="#1572B6"/>
<path d="M628.356 267.785V270.108C628.075 270.084 627.754 270.056 627.397 270.018V266.132L628.356 267.785Z" fill="#1572B6"/>
<path d="M634.198 190.423V231.428C633.881 231.629 633.562 231.82 633.237 232.011V189.884L633.518 190.045C633.744 190.178 633.965 190.3 634.198 190.423Z" fill="#1572B6"/>
<path d="M640.037 192.735V227.041C639.725 227.325 639.402 227.602 639.079 227.874V192.44C639.393 192.543 639.723 192.64 640.037 192.735Z" fill="#1572B6"/>
<path d="M645.88 193.963V220.642C645.57 221.071 645.248 221.479 644.921 221.887V193.812C645.235 193.862 645.554 193.911 645.88 193.963Z" fill="#1572B6"/>
<path d="M651.719 194.443V209.808L651.208 211.096C651.097 211.369 650.986 211.642 650.869 211.91C650.833 211.994 650.798 212.077 650.76 212.161V194.392C651.077 194.42 651.396 194.43 651.719 194.443Z" fill="#1572B6"/>
<path d="M657.561 194.392V194.988L657.256 195.757L656.591 197.423V194.428C656.917 194.417 657.236 194.402 657.561 194.392Z" fill="#1572B6"/>
<path d="M616.32 247.042H535.251V246.112H615.782L616.32 247.042Z" fill="#1572B6"/>
<path d="M613.014 241.344H535.251V240.414H612.474L613.014 241.344Z" fill="#1572B6"/>
<path d="M627.807 234.712L627.397 234.877C626.717 235.152 626.026 235.407 625.331 235.644H535.251V234.712H627.807Z" fill="#1572B6"/>
<path d="M637.664 229.015C637.255 229.335 636.838 229.646 636.413 229.946H535.251V229.015H637.664Z" fill="#1572B6"/>
<path d="M643.723 223.314C643.448 223.63 643.169 223.941 642.886 224.244H535.26V223.314H643.723Z" fill="#1572B6"/>
<path d="M647.917 217.617C647.724 217.931 647.527 218.242 647.326 218.547H535.251V217.617H647.917Z" fill="#1572B6"/>
<path d="M650.869 211.919C650.834 212.003 650.798 212.086 650.76 212.17C650.665 212.398 650.563 212.623 650.457 212.849H535.251V211.919H650.869Z" fill="#1572B6"/>
<path d="M653.134 206.219L652.767 207.148H535.251V206.219H653.134Z" fill="#1572B6"/>
<path d="M655.378 200.521L655.012 201.451H535.251V200.521H655.378Z" fill="#1572B6"/>
<path d="M657.623 194.823L657.561 194.984L657.256 195.753H535.251V194.823H657.623Z" fill="#1572B6"/>
<path d="M633.523 190.053H535.251V189.123H631.995C632.391 189.385 632.807 189.645 633.237 189.892L633.523 190.053Z" fill="#1572B6"/>
<path d="M626.764 184.355H535.251V183.426H626.075C626.292 183.735 626.518 184.044 626.764 184.355Z" fill="#1572B6"/>
<path d="M623.63 178.658H535.251V177.729H623.336C623.413 178.027 623.515 178.336 623.63 178.658Z" fill="#1572B6"/>
<path d="M622.609 172.958H535.251V172.028H622.558L622.609 172.958Z" fill="#1572B6"/>
<path d="M622.275 167.261H535.393C535.417 166.949 535.441 166.64 535.47 166.331H622.229L622.275 167.261Z" fill="#1572B6"/>
<path d="M621.934 161.562H536.172C536.234 161.251 536.298 160.942 536.364 160.633H621.878L621.934 161.562Z" fill="#1572B6"/>
<path d="M621.595 155.862H537.665C537.766 155.551 537.873 155.24 537.983 154.933H621.564V155.173L621.595 155.862Z" fill="#1572B6"/>
<path d="M621.088 150.167H539.965C540.116 149.856 540.267 149.544 540.426 149.237H620.922C620.982 149.544 621.037 149.853 621.088 150.167Z" fill="#1572B6"/>
<path d="M619.635 144.467H543.17C543.374 144.155 543.582 143.844 543.794 143.537H619.283C619.409 143.846 619.525 144.155 619.635 144.467Z" fill="#1572B6"/>
<path d="M616.993 138.767H547.535C547.809 138.453 548.09 138.143 548.376 137.837H616.431C616.515 137.966 616.597 138.097 616.674 138.23C616.783 138.406 616.889 138.584 616.993 138.767Z" fill="#1572B6"/>
<path d="M612.823 133.069H553.474C553.859 132.754 554.253 132.442 554.65 132.14H611.955C612.25 132.442 612.54 132.754 612.823 133.069Z" fill="#1572B6"/>
<path d="M606.182 127.369H562.113C562.452 127.191 562.795 127.017 563.138 126.847C563.419 126.708 563.703 126.57 563.986 126.439H604.692C604.789 126.497 604.889 126.555 604.984 126.615C605.398 126.856 605.79 127.107 606.182 127.369Z" fill="#1572B6"/>
<path d="M553.049 291.858L552.425 292.221C552.109 292.406 551.789 292.588 551.466 292.767V292.788H535.165V291.858H553.049Z" fill="#1572B6"/>
<path d="M561.349 286.165C560.955 286.476 560.554 286.788 560.147 287.095H535.185V286.165H561.349Z" fill="#1572B6"/>
<path d="M567.806 280.466C567.49 280.777 567.171 281.088 566.845 281.395H535.198V280.466H567.806Z" fill="#1572B6"/>
<path d="M573.086 274.768C572.825 275.077 572.557 275.388 572.289 275.697H535.22V274.768H573.086Z" fill="#1572B6"/>
<path d="M577.495 269.07C577.273 269.377 577.052 269.689 576.83 270H535.237V269.07H577.495Z" fill="#1572B6"/>
<path d="M629.64 270H627.204C625.991 269.873 624.396 269.68 622.523 269.384C622.21 269.337 621.889 269.283 621.564 269.227C621.238 269.171 620.964 269.126 620.656 269.07H629.093L629.64 270Z" fill="#1572B6"/>
<path d="M581.244 263.37C581.058 263.673 580.87 263.984 580.675 264.3H535.251V263.37H581.244Z" fill="#1572B6"/>
<path d="M626.334 264.3H603.887C603.166 264.003 602.444 263.694 601.724 263.37H625.794L626.334 264.3Z" fill="#1572B6"/>
<path d="M584.382 257.67C584.234 257.968 584.074 258.277 583.911 258.602H535.251V257.67H584.382Z" fill="#1572B6"/>
<path d="M623.028 258.602H593.165C592.893 258.415 592.622 258.224 592.352 258.033L591.858 257.67H622.487L622.514 257.715L623.028 258.602Z" fill="#1572B6"/>
<path d="M619.722 252.902H535.251V251.971H619.181L619.722 252.902Z" fill="#1572B6"/>
<path d="M568.32 124.635L576.049 115.721C576.412 115.302 576.872 114.971 577.392 114.757C577.912 114.543 578.477 114.451 579.04 114.489L599.839 115.869C600.442 115.91 601.025 116.097 601.534 116.413C602.042 116.73 602.46 117.166 602.749 117.681L609.393 129.553C609.393 129.553 600.18 121.513 584.86 121.805C574.974 121.992 568.32 124.635 568.32 124.635Z" fill="#7EBAD2"/>
<path d="M609.641 129.321C609.641 129.321 599.873 121.513 584.026 121.807C573.792 121.994 566.907 124.636 566.907 124.636" stroke="white" stroke-width="5" stroke-linecap="round" stroke-linejoin="round"/>
<path d="M657.242 194.923C618.488 195.29 622.439 172.533 622.439 172.533L602.411 192.441" stroke="white" stroke-width="5" stroke-linecap="round" stroke-linejoin="round"/>
<path d="M564.476 184.834C564.476 184.834 575.823 238.265 613.067 238.645" stroke="white" stroke-width="5" stroke-linecap="round" stroke-linejoin="round"/>
<path d="M602.298 111.648L600.929 116.107C600.584 115.974 600.221 115.894 599.851 115.869L579.045 114.486C578.943 114.486 578.844 114.486 578.744 114.486L588.156 97.4614L602.298 111.648Z" fill="#FFC200"/>
<path d="M602.298 111.648L600.929 116.107C600.584 115.974 600.22 115.894 599.85 115.869L595.778 115.603C594.336 114.235 593.603 112.369 593.634 110.235L593.672 107.46L594.285 103.617L602.298 111.648Z" fill="#A74602"/>
<path d="M595.767 96.1539C595.767 96.1539 604.124 97.5279 609.138 93.5777C614.907 89.0436 613.089 81.6562 608.046 81.1625C602.455 80.615 601.509 85.804 601.925 86.3342C601.925 86.3342 600.207 87.3518 595.864 86.5489C592.565 85.9414 589.945 85.3188 586.621 87.9594C583.151 90.716 583.784 98.1677 589.382 100.136C592.79 101.347 595.767 96.1539 595.767 96.1539Z" fill="#A74602"/>
<path d="M596.122 96.1968C605.865 97.1929 609.581 93.1611 609.581 93.1611C612.155 95.952 611.796 104.67 611.796 104.67C607.097 106.757 606.847 112.792 606.847 112.792C605.03 112.918 603.206 112.911 601.39 112.773C599.613 112.639 597.956 111.854 596.754 110.578C595.553 109.302 594.897 107.63 594.921 105.903L594.943 104.348H594.489C593.924 104.361 593.362 104.264 592.835 104.063C592.309 103.861 591.83 103.56 591.425 103.177C591.021 102.794 590.699 102.336 590.48 101.831C590.26 101.325 590.147 100.782 590.147 100.234C590.147 99.6856 590.26 99.1427 590.48 98.6373C590.699 98.1319 591.021 97.6741 591.425 97.2908C591.83 96.9075 592.309 96.6064 592.835 96.4053C593.362 96.2041 593.924 96.107 594.489 96.1195L596.122 96.1968Z" fill="#FFC200"/>
<path d="M604.069 97.7014C604.069 97.7014 606.37 96.2479 608.523 96.4369" stroke="#59221D" stroke-width="5" stroke-linecap="round" stroke-linejoin="round"/>
<path d="M606.634 101.038C607.052 101.038 607.391 100.51 607.391 99.8593C607.391 99.2084 607.052 98.6807 606.634 98.6807C606.215 98.6807 605.876 99.2084 605.876 99.8593C605.876 100.51 606.215 101.038 606.634 101.038Z" fill="#59221D"/>
<path d="M605.194 106.554C605.194 106.554 605.238 107.96 607.672 108.072" stroke="#59221D" stroke-width="5" stroke-linecap="round" stroke-linejoin="round"/>
<path d="M593.118 100.085C593.118 99.8455 593.166 99.6087 593.261 99.3877C593.355 99.1667 593.493 98.9659 593.668 98.7968C593.842 98.6276 594.049 98.4936 594.277 98.4022C594.505 98.3108 594.75 98.2639 594.996 98.2642" stroke="#59221D" stroke-width="5" stroke-linecap="round" stroke-linejoin="round"/>
<path d="M595.189 95.0767H593.504C590.995 95.0767 588.962 97.048 588.962 99.4799V101.114C588.962 103.545 590.995 105.517 593.504 105.517H595.189C597.697 105.517 599.731 103.545 599.731 101.114V99.4799C599.731 97.048 597.697 95.0767 595.189 95.0767Z" fill="white" stroke="#59221D" stroke-width="5" stroke-linecap="round" stroke-linejoin="round"/>
<path d="M594.668 94.8725V85.976C594.668 85.619 594.815 85.2766 595.075 85.0241C595.336 84.7717 595.689 84.6299 596.057 84.6299V84.6299C596.425 84.6299 596.778 84.7717 597.039 85.0241C597.299 85.2766 597.445 85.619 597.445 85.976" stroke="#59221D" stroke-width="5" stroke-linecap="round" stroke-linejoin="round"/>
<path d="M594.104 105.635V112.367C594.104 115.178 594.95 117.927 596.538 120.278C598.127 122.629 600.389 124.48 603.046 125.603V125.603C617.113 131.549 626.206 145.476 626.206 160.354V172.806" stroke="#59221D" stroke-width="5" stroke-linecap="round" stroke-linejoin="round"/>
<path d="M658.465 193.516C624.038 195.289 623.141 173.336 623.141 173.336L653.084 127.438C654.265 125.614 655.903 124.111 657.847 123.068C659.791 122.026 661.975 121.479 664.196 121.478H668.087L667.439 122.642C667.199 123.072 667.079 123.556 667.09 124.045C667.1 124.534 667.242 125.011 667.5 125.431C667.759 125.851 668.125 126.199 668.564 126.441C669.003 126.682 669.498 126.809 670.003 126.809H672.789C673.319 126.809 673.839 126.67 674.293 126.405C674.747 126.14 675.118 125.76 675.367 125.306L682.404 112.346L684.763 119.417C685.524 121.697 685.458 124.161 684.577 126.399L658.465 193.516Z" fill="#FFC200"/>
<path d="M682.184 112.741L675.377 125.296C675.129 125.75 674.758 126.13 674.304 126.395C673.85 126.66 673.329 126.8 672.799 126.798H669.92C669.422 126.798 668.932 126.673 668.497 126.436C668.062 126.2 667.697 125.859 667.437 125.446C667.177 125.034 667.031 124.563 667.012 124.08C666.993 123.597 667.102 123.118 667.329 122.687L672.644 112.762C672.953 112.181 673.421 111.694 673.996 111.353C674.571 111.012 675.232 110.831 675.906 110.83H681C681.231 110.831 681.458 110.889 681.659 111C681.86 111.111 682.028 111.27 682.147 111.462C682.266 111.654 682.332 111.873 682.339 112.097C682.345 112.321 682.292 112.542 682.184 112.741V112.741Z" fill="#59221D"/>
<path d="M667.084 171.599C667.084 171.599 670.197 194.355 656.762 194.458C621.622 194.697 622.698 174.626 622.698 174.626C622.698 165.472 631.053 161.008 631.053 161.008C631.053 161.008 631.552 169.572 645.118 173.37C658.684 177.168 667.084 171.599 667.084 171.599Z" fill="#7EBAD2"/>
<path d="M535.142 34.2363H3" stroke="#592D29" stroke-width="5" stroke-linecap="round" stroke-linejoin="round"/>
<path d="M535.142 3V502.792" stroke="#592D29" stroke-width="5" stroke-linecap="round" stroke-linejoin="round"/>
<path d="M479.553 34.2363L535.142 83.2061" stroke="#592D29" stroke-width="5" stroke-linecap="round" stroke-linejoin="round"/>
<path d="M476.223 503H883" stroke="#592D29" stroke-width="5" stroke-linecap="round" stroke-linejoin="round"/>
</svg>
