<svg width="2914" height="3210" viewBox="0 0 2914 3210" fill="none" xmlns="http://www.w3.org/2000/svg">
<path d="M1006.24 3206.3H2142.24" stroke="#FFCF2D" stroke-width="6" stroke-miterlimit="10" stroke-linecap="round"/>
<path d="M1573.84 2201.4V2646.4C1573.84 2783.4 1644.84 2910.6 1761.44 2982.5L1925.54 3083.7" stroke="#66B0F0" stroke-width="6" stroke-miterlimit="10" stroke-linecap="round" stroke-linejoin="round"/>
<path d="M1484.94 2201.4V2646.4C1484.94 2783.4 1413.94 2910.6 1297.34 2982.5L1133.24 3083.7" stroke="#66B0F0" stroke-width="6" stroke-miterlimit="10" stroke-linecap="round" stroke-linejoin="round"/>
<path d="M1425.24 2201.4H1625.34C1643.04 2201.4 1657.34 2187.1 1657.34 2169.4V2118.9H1393.24V2169.4C1393.24 2187.1 1407.54 2201.4 1425.24 2201.4Z" fill="white" stroke="#66B0F0" stroke-width="6" stroke-miterlimit="10"/>
<path d="M1932.94 3206.3C1892.34 3206.3 1859.44 3173.4 1859.44 3132.8C1859.44 3092.2 1892.34 3059.3 1932.94 3059.3C1973.54 3059.3 2006.44 3092.2 2006.44 3132.8C2006.44 3173.4 1973.54 3206.3 1932.94 3206.3Z" fill="white" stroke="#FFCF2D" stroke-width="6" stroke-miterlimit="10"/>
<path d="M1131.64 3206.3C1091.04 3206.3 1058.14 3173.4 1058.14 3132.8C1058.14 3092.2 1091.04 3059.3 1131.64 3059.3C1172.24 3059.3 1205.14 3092.2 1205.14 3132.8C1205.14 3173.4 1172.24 3206.3 1131.64 3206.3Z" fill="white" stroke="#FFCF2D" stroke-width="6" stroke-miterlimit="10"/>
<path d="M1131.64 3190.8C1099.64 3190.8 1073.64 3164.8 1073.64 3132.8C1073.64 3100.8 1099.64 3074.8 1131.64 3074.8C1163.64 3074.8 1189.64 3100.8 1189.64 3132.8C1189.64 3164.8 1163.64 3190.8 1131.64 3190.8Z" fill="white" stroke="#FFCF2D" stroke-width="6" stroke-miterlimit="10"/>
<path d="M1932.64 3190.8C1900.64 3190.8 1874.64 3164.8 1874.64 3132.8C1874.64 3100.8 1900.64 3074.8 1932.64 3074.8C1964.64 3074.8 1990.64 3100.8 1990.64 3132.8C1990.64 3164.8 1964.64 3190.8 1932.64 3190.8Z" fill="white" stroke="#FFCF2D" stroke-width="6" stroke-miterlimit="10"/>
<path d="M1421.34 2861.4C1421.34 2861.4 1516.54 2791.6 1637.64 2861.4" stroke="#66B0F0" stroke-width="6" stroke-miterlimit="10" stroke-linecap="round" stroke-linejoin="round"/>
<path d="M1571.54 2079L1479.54 3020.3H1763.04L1996.14 2173.3C2039.04 2035.1 1946.74 1894.5 1803.04 1894.2H1783.04C1676.64 1893.9 1586.44 1972.8 1571.54 2079Z" fill="#31A1A9"/>
<path d="M1534.94 3020.3H1684.34L1660.84 3097.2C1631.34 3067.8 1590.24 3046.6 1545.34 3043.9C1541.14 3043.6 1537.04 3043.5 1532.94 3043.5L1534.94 3020.3Z" fill="#E57281"/>
<path d="M1706.34 3205.7C1714.14 3133.3 1637.74 3049.5 1545.24 3043.8C1452.74 3038.1 1395.64 3099.2 1391.14 3171.8C1390.44 3182.8 1389.44 3196.2 1391.84 3206L1706.34 3205.7Z" fill="white" stroke="#FE5244" stroke-width="6" stroke-miterlimit="10"/>
<path d="M1393.84 3179.4L1706.34 3183.1" stroke="#FE5244" stroke-width="6" stroke-miterlimit="10"/>
<path d="M1652.14 3020.3L1888.64 2876.3L1359.84 1990.4C1292.94 1884.3 1123.14 1851.5 1016.04 1916.7C892.544 1991.9 868.344 2161 965.744 2267.8L1652.14 3020.3Z" fill="#3FB1B5"/>
<path d="M1653.14 3016.3L1890.64 2874.3L1360.84 1990.4C1293.94 1884.3 1124.14 1851.5 1017.04 1916.7C893.544 1991.9 869.344 2161 966.744 2267.8L1653.14 3016.3Z" stroke="white" stroke-width="6" stroke-miterlimit="10"/>
<path d="M1884.94 2870C1874.44 2852.6 1812.94 2870.3 1747.54 2909.7C1682.14 2949 1637.84 2996.4 1648.34 3013.8C1658.84 3031.2 1720.14 3012.1 1785.54 2972.8C1850.84 2933.5 1895.34 2887.5 1884.94 2870Z" fill="#73325A"/>
<path d="M1870.54 2982.6L1760.14 3052L1728.94 3017L1719.44 3006.3L1679.84 2961.9C1696.84 2944.5 1720.14 2926.1 1747.64 2909.7C1769.84 2896.4 1791.74 2885.8 1811.54 2878.6L1842.44 2932.9L1849.24 2944.8L1870.54 2982.6Z" fill="#E57281"/>
<path d="M2044.74 3057.9L1769.74 3206.2C1762.84 3198.8 1756.94 3190.1 1752.24 3180.2C1748.24 3171.9 1745.14 3163.2 1742.74 3154.4C1726.54 3093.6 1749.44 3023.9 1822.54 2989.1C1887.04 2958.4 1967.34 2976 2013.74 3016.4C2027.44 3028.5 2038.24 3042.6 2044.74 3057.9Z" fill="white" stroke="#FE5244" stroke-width="6" stroke-miterlimit="10"/>
<path d="M2030.04 3035.4L1754.94 3183.7" stroke="#FE5244" stroke-width="6" stroke-miterlimit="10" stroke-linecap="round"/>
<path d="M1842.24 2932.8C1826.44 2946 1807.04 2959.8 1785.34 2972.8C1762.14 2986.8 1739.34 2998.2 1719.24 3006.3L1677.64 2961.9C1694.64 2944.5 1719.94 2926.1 1747.44 2909.7C1769.64 2896.4 1791.54 2884.8 1811.34 2877.6L1842.24 2932.8Z" fill="#9A3B82"/>
<path d="M1878.84 2854.6C1868.34 2837.2 1801.94 2854.5 1735.44 2894.5C1668.94 2934.5 1626.74 2981.4 1637.24 2998.8" stroke="white" stroke-width="6" stroke-miterlimit="10"/>
<path d="M2799.44 2118.9C2825.54 2118.9 2846.74 2097.7 2846.74 2071.6V1890.6C2846.74 1864.5 2825.54 1843.3 2799.44 1843.3H169.044C142.944 1843.3 121.744 1864.5 121.744 1890.6V2071.6C121.744 2097.7 142.944 2118.9 169.044 2118.9H2799.44Z" fill="#9A3B82"/>
<path d="M2798.64 1802.3H169.744C143.644 1802.3 122.444 1823.5 122.444 1849.6V2030.6C122.444 2056.7 143.644 2077.9 169.744 2077.9H2798.64C2824.74 2077.9 2845.94 2056.7 2845.94 2030.6V1849.6C2845.94 1823.5 2824.74 1802.3 2798.64 1802.3Z" fill="white" stroke="#FFCF2D" stroke-width="6" stroke-miterlimit="10"/>
<path d="M2661.74 2078.1V3206.7" stroke="#FFCF2D" stroke-width="6" stroke-miterlimit="10" stroke-linecap="round"/>
<path d="M366.844 2078.1V3206.7" stroke="#FFCF2D" stroke-width="6" stroke-miterlimit="10" stroke-linecap="round"/>
<path d="M280.444 2925.8L276.244 2928.5L123.644 2693.4L77.7441 2696.9C67.9441 2697.7 60.1442 2688.8 62.1442 2679.1C64.2442 2669.5 74.9442 2664.5 83.6442 2669.3L121.344 2690L93.6442 2647.2L47.7441 2650.8C37.9441 2651.6 30.1441 2642.6 32.2441 2633C34.3441 2623.4 45.0441 2618.4 53.7441 2623.2L91.4442 2643.8L63.7441 2601L17.8442 2604.6C8.04423 2605.4 0.244169 2596.4 2.34417 2586.8C4.44417 2577.2 15.1442 2572.2 23.8442 2577L61.5442 2597.7L44.8442 2572L13.8442 2545.5C6.34423 2539.1 7.14423 2527.3 15.3442 2521.9C23.6442 2516.5 34.7442 2520.6 37.5442 2530.1L49.0442 2569.2L66.2441 2595.7L62.6442 2551.7C61.8442 2541.9 70.7442 2534.1 80.3442 2536.1C89.9442 2538.1 94.9441 2548.9 90.2441 2557.5L68.0442 2598.5L96.1442 2641.8L92.5442 2597.9C91.7442 2588.1 100.644 2580.3 110.244 2582.3C119.844 2584.3 124.844 2595.1 120.144 2603.7L97.9442 2644.7L126.044 2688L122.444 2644.1C121.644 2634.3 130.544 2626.4 140.144 2628.5C149.744 2630.5 154.744 2641.3 150.044 2649.9L127.844 2690.9L280.444 2925.8Z" fill="#9A3B82"/>
<path d="M536.844 2842.7C463.544 2990.4 364.544 3093.1 306.044 3086C301.244 3085.4 296.744 3084.1 292.544 3082C236.944 3054.4 256.144 2902.5 335.544 2742.7C369.544 2674.2 409.044 2615.5 447.444 2572.8C498.744 2515.9 548.044 2487.6 579.844 2503.4C635.444 2531 616.144 2682.9 536.844 2842.7Z" fill="#9A3B82"/>
<path d="M445.044 2726C428.744 2913.2 368.844 3064.2 306.144 3086C301.344 3085.4 296.844 3084.1 292.644 3082C237.044 3054.4 256.244 2902.5 335.644 2742.7C369.644 2674.2 409.144 2615.5 447.544 2572.8C450.344 2619.9 449.744 2671.8 445.044 2726Z" fill="#FFCF2D"/>
<path d="M579.844 2503.4L306.144 3086" stroke="#FFCF2D" stroke-width="6" stroke-miterlimit="10"/>
<path d="M574.644 2935.4L535.944 2948.4L510.144 2966.5L553.944 2961.3C563.744 2960.1 571.844 2968.7 570.244 2978.4C568.544 2988.1 558.044 2993.5 549.144 2989.1L507.344 2968.4L465.044 2998.1L508.844 2992.9C518.644 2991.7 526.744 3000.3 525.144 3010C523.444 3019.7 512.944 3025.1 504.044 3020.7L462.244 3000L420.044 3029.7L463.844 3024.5C473.644 3023.3 481.744 3031.9 480.044 3041.6C478.344 3051.3 467.844 3056.7 458.944 3052.3L417.144 3031.6L339.844 3085.9H331.144L414.444 3027.4L409.244 2981.7C408.144 2971.9 416.744 2963.8 426.444 2965.5C436.144 2967.2 441.444 2977.8 437.044 2986.6L417.744 3025.1L459.444 2995.8L454.244 2950.1C453.144 2940.3 461.744 2932.2 471.444 2933.9C481.144 2935.6 486.444 2946.2 482.044 2955L462.844 2993.4L504.544 2964.1L499.344 2918.4C498.244 2908.6 506.844 2900.5 516.544 2902.2C526.244 2903.9 531.544 2914.5 527.144 2923.3L507.844 2961.8L532.944 2944.2L558.244 2912.2C564.344 2904.5 576.244 2904.8 581.844 2912.9C587.744 2921 584.044 2932.3 574.644 2935.4Z" fill="#FFCF2D"/>
<path d="M260.944 3078.2C255.944 3079.9 250.644 3081.1 245.244 3081.8C182.244 3090 95.2441 3031.2 42.6441 2941.9C-14.4559 2844.9 -9.2559 2748.7 54.2441 2726.9C74.8441 2719.8 99.1442 2721.5 124.344 2730.3C176.944 2748.6 233.944 2797.6 272.544 2863.1C329.544 2960.2 324.344 3056.4 260.944 3078.2Z" fill="white" stroke="#FFCF2D" stroke-width="6" stroke-miterlimit="10"/>
<path d="M260.944 3078.2C255.944 3079.9 250.644 3081.1 245.244 3081.8C187.044 3055.4 136.444 2943.6 125.744 2807.8C123.644 2781 123.244 2755 124.344 2730.3C176.944 2748.6 233.944 2797.6 272.544 2863.1C329.544 2960.2 324.344 3056.4 260.944 3078.2Z" fill="#FFCF2D"/>
<path d="M30.1442 2741L245.144 3081.8" stroke="#FFCF2D" stroke-width="6" stroke-miterlimit="10"/>
<path d="M286.544 3090C356.132 3090 412.544 2922.15 412.544 2715.1C412.544 2508.05 356.132 2340.2 286.544 2340.2C216.956 2340.2 160.544 2508.05 160.544 2715.1C160.544 2922.15 216.956 3090 286.544 3090Z" fill="white" stroke="#FFCF2D" stroke-width="6" stroke-miterlimit="10"/>
<path d="M286.544 2340.1V3090" stroke="#FFCF2D" stroke-width="6" stroke-miterlimit="10"/>
<path d="M366.844 2430L286.544 2537.6L218.444 2402.8" stroke="#FFCF2D" stroke-width="6" stroke-miterlimit="10" stroke-linecap="round"/>
<path d="M392.944 2521.2L285.744 2668.6L189.344 2482.1" stroke="#FFCF2D" stroke-width="6" stroke-miterlimit="10" stroke-linecap="round"/>
<path d="M409.644 2626.4L284.744 2798.6L170.644 2578.6" stroke="#FFCF2D" stroke-width="6" stroke-miterlimit="10" stroke-linecap="round"/>
<path d="M417.444 2766.8L285.344 2951.6L160.844 2715.4" stroke="#FFCF2D" stroke-width="6" stroke-miterlimit="10" stroke-linecap="round"/>
<path d="M473.344 3206.7H99.4442C70.6442 3206.7 47.2441 3183.3 47.2441 3154.5V3138.2C47.2441 3109.4 70.6442 3086 99.4442 3086H473.344C502.144 3086 525.544 3109.4 525.544 3138.2V3154.5C525.544 3183.4 502.144 3206.7 473.344 3206.7Z" fill="white" stroke="#66B0F0" stroke-width="6" stroke-miterlimit="10"/>
<path d="M2674.54 1907.4C2674.54 1922.3 2662.64 1934.4 2648.04 1934.4H2240.74C2226.04 1934.4 2214.24 1922.3 2214.24 1907.4C2214.24 1892.5 2226.14 1880.4 2240.74 1880.4H2648.04C2662.64 1880.4 2674.54 1892.5 2674.54 1907.4Z" fill="#FE5244"/>
<path d="M2502.64 1626.2H2335.94V1742.2H2657.94C2637.54 1673.4 2574.34 1626.2 2502.64 1626.2Z" fill="white" stroke="#FFCF2D" stroke-width="6" stroke-miterlimit="10"/>
<path d="M2365.94 1626.2V1742.2L2296.94 1742.3V1626.2H2365.94Z" fill="#FFCF2D" stroke="#FFCF2D" stroke-width="6" stroke-miterlimit="10"/>
<path d="M2913.24 1739.9L2657.94 1742.2C2657.94 1742.2 2721.84 1655.6 2897.24 1678.5C2897.24 1678.5 2760.04 1649.9 2620.84 1678.5" stroke="#FFCF2D" stroke-width="6" stroke-miterlimit="10"/>
<path d="M2657.94 1742.2C2657.94 1742.2 2769.84 1680.7 2906.24 1710.5" stroke="#FFCF2D" stroke-width="6" stroke-miterlimit="10"/>
<path d="M2686.44 1837.1C2686.44 1848 2688.14 1857.9 2690.84 1865.2H2568.34C2562.04 1865.2 2556.84 1859.7 2556.84 1853V1821.3C2556.84 1814.5 2561.94 1809.1 2568.34 1809.1H2690.84C2688.14 1816.3 2686.44 1826.2 2686.44 1837.1Z" fill="#FFCF2D"/>
<path d="M2556.94 1821.3V1853C2556.94 1859.8 2562.44 1865.2 2569.14 1865.2H2700.74V1867.5C2700.74 1873.1 2696.24 1877.6 2690.64 1877.6H2230.34C2224.74 1877.6 2220.24 1873.1 2220.24 1867.5V1806.7C2220.24 1801.1 2224.74 1796.6 2230.34 1796.6H2690.64C2696.24 1796.6 2700.74 1801.1 2700.74 1806.7V1809H2569.14C2562.44 1809.1 2556.94 1814.5 2556.94 1821.3Z" fill="white"/>
<path d="M2556.94 1821.3V1853C2556.94 1859.8 2562.44 1865.2 2569.14 1865.2H2700.74V1867.5C2700.74 1873.1 2696.24 1877.6 2690.64 1877.6H2230.34C2224.74 1877.6 2220.24 1873.1 2220.24 1867.5V1806.7C2220.24 1801.1 2224.74 1796.6 2230.34 1796.6H2690.64C2696.24 1796.6 2700.74 1801.1 2700.74 1806.7V1809H2569.14C2562.44 1809.1 2556.94 1814.5 2556.94 1821.3Z" stroke="#FFCF2D" stroke-width="6" stroke-miterlimit="10"/>
<path d="M2385.44 1956.1C2380.64 1960.6 2377.64 1968.8 2377.64 1975.7C2377.64 1989.4 2389.64 2003.5 2404.44 2003.5H2773.24C2773.24 2009.9 2768.04 2015.2 2761.54 2015.2H2316.44C2304.54 2015.2 2293.74 2010.7 2285.94 2003.5C2278.14 1996.3 2273.24 1986.3 2273.24 1975.2C2273.24 1953.1 2292.54 1935.2 2316.44 1935.2H2761.54C2767.94 1935.2 2773.24 1940.4 2773.24 1946.9V1949H2404.44C2396.94 1948.9 2390.24 1951.7 2385.44 1956.1Z" fill="#FFCF2D"/>
<path d="M2746.54 1948.9V2002.5H2773.14V2007H2403.14C2399.04 2007 2395.04 2006.2 2391.44 2004.7C2387.54 2003.1 2383.94 2000.8 2381.04 1997.8C2375.34 1992.1 2371.84 1984.3 2371.84 1975.7C2371.84 1958.4 2385.84 1944.4 2403.14 1944.4H2773.14V1948.9H2746.54Z" fill="#FE5244"/>
<path d="M2756.84 1948.9V2002.5H2404.44C2389.64 2002.5 2377.64 1990.5 2377.64 1975.7C2377.64 1968.3 2380.64 1961.6 2385.44 1956.7C2390.24 1951.9 2396.94 1948.9 2404.34 1948.9H2756.84Z" fill="white"/>
<path d="M2756.84 1948.9V2002.5" stroke="#FE5244" stroke-width="5" stroke-miterlimit="10"/>
<path d="M2453.54 1986.9V2031.6H2422.64V1992.6C2422.64 1983.3 2415.14 1975.7 2405.74 1975.7H2391.94V1970H2436.64C2446.04 1970 2453.54 1977.6 2453.54 1986.9Z" fill="#FE5244"/>
<path d="M2774.64 1744.7H2249.24C2235.64 1744.7 2224.64 1755.7 2224.64 1769.3C2224.74 1782.8 2235.64 1793.8 2249.24 1793.8H2774.64C2788.24 1793.8 2799.24 1782.8 2799.24 1769.2C2799.14 1755.7 2788.14 1744.7 2774.64 1744.7Z" fill="#66B0F0"/>
<path d="M2655.44 1793.9H2650.14C2650.74 1795.5 2652.24 1799.5 2655.54 1799.5C2657.54 1799.5 2667.34 1798 2667.34 1769.3C2667.34 1759.1 2666.14 1751.3 2663.74 1746C2660.84 1739.7 2657.04 1739 2655.64 1739C2652.24 1739 2650.74 1743.1 2650.14 1744.7H2655.44C2655.64 1744.3 2655.84 1744.1 2655.94 1744C2657.74 1744.5 2662.54 1749.5 2662.54 1769.3C2662.54 1789.1 2657.74 1794 2655.94 1794.6C2655.74 1794.4 2655.54 1794.2 2655.44 1793.9Z" fill="#9A3B82"/>
<path d="M2698.84 1793.9H2693.54C2694.14 1795.5 2695.64 1799.5 2698.94 1799.5C2700.94 1799.5 2710.74 1798 2710.74 1769.3C2710.74 1759.1 2709.54 1751.3 2707.14 1746C2704.24 1739.7 2700.44 1739 2699.04 1739C2695.64 1739 2694.14 1743.1 2693.54 1744.7H2698.84C2699.04 1744.3 2699.24 1744.1 2699.34 1744C2701.14 1744.5 2705.94 1749.5 2705.94 1769.3C2705.94 1789.1 2701.14 1794 2699.34 1794.6C2699.24 1794.4 2699.04 1794.2 2698.84 1793.9Z" fill="#9A3B82"/>
<path d="M2742.34 1793.9H2737.04C2737.64 1795.5 2739.14 1799.5 2742.44 1799.5C2745.24 1799.5 2754.24 1797.3 2754.24 1769.3C2754.24 1741.2 2745.24 1739.1 2742.44 1739.1C2739.04 1739.1 2737.54 1743.2 2736.94 1744.8H2742.24C2742.44 1744.4 2742.64 1744.2 2742.74 1744.1C2744.74 1744.6 2749.34 1749.8 2749.34 1769.4C2749.34 1781.4 2747.64 1787.6 2746.14 1790.8C2744.94 1793.4 2743.64 1794.5 2742.74 1794.7C2742.64 1794.4 2742.54 1794.2 2742.34 1793.9Z" fill="#9A3B82"/>
<path d="M2524.94 1793.9H2519.64C2520.24 1795.5 2521.74 1799.5 2525.04 1799.5C2527.04 1799.5 2536.84 1798 2536.84 1769.3C2536.84 1741.2 2527.84 1739.1 2525.04 1739.1C2521.64 1739.1 2520.14 1743.2 2519.54 1744.8H2524.84C2525.04 1744.4 2525.24 1744.2 2525.34 1744.1C2527.34 1744.6 2531.94 1749.8 2531.94 1769.4C2531.94 1789.2 2527.14 1794.1 2525.34 1794.7C2525.34 1794.4 2525.14 1794.2 2524.94 1793.9Z" fill="#9A3B82"/>
<path d="M2568.44 1793.9H2563.14C2563.74 1795.5 2565.24 1799.5 2568.54 1799.5C2570.44 1799.5 2573.94 1798.7 2576.64 1793.1C2579.04 1788 2580.34 1780 2580.34 1769.3C2580.34 1758.6 2579.14 1750.6 2576.64 1745.5C2573.94 1739.9 2570.44 1739.1 2568.54 1739.1C2565.14 1739.1 2563.64 1743.2 2563.04 1744.8H2568.34C2568.54 1744.4 2568.74 1744.2 2568.84 1744.1C2570.04 1744.3 2571.24 1745.6 2572.24 1747.7C2573.64 1750.7 2575.44 1756.9 2575.44 1769.4C2575.44 1781.8 2573.74 1788 2572.24 1791.1C2571.24 1793.2 2569.94 1794.5 2568.84 1794.7C2568.74 1794.4 2568.64 1794.2 2568.44 1793.9Z" fill="#9A3B82"/>
<path d="M2611.94 1793.9H2606.64C2607.24 1795.5 2608.74 1799.5 2612.04 1799.5C2614.84 1799.5 2623.84 1797.3 2623.84 1769.3C2623.84 1740.5 2614.04 1739.1 2612.04 1739.1C2608.64 1739.1 2607.14 1743.2 2606.54 1744.8H2611.84C2612.04 1744.4 2612.24 1744.2 2612.34 1744.1C2614.14 1744.6 2618.94 1749.6 2618.94 1769.4C2618.94 1789 2614.34 1794.2 2612.34 1794.7C2612.24 1794.4 2612.14 1794.2 2611.94 1793.9Z" fill="#9A3B82"/>
<path d="M2394.54 1793.9H2389.24C2389.84 1795.5 2391.34 1799.5 2394.64 1799.5C2396.14 1799.5 2399.94 1798.8 2402.74 1792.5C2405.14 1787.3 2406.34 1779.4 2406.34 1769.2C2406.34 1759.8 2405.04 1751.9 2402.74 1746.5C2400.64 1741.7 2397.64 1738.9 2394.54 1738.9C2391.14 1738.9 2389.64 1743 2389.04 1744.6H2394.34C2394.54 1744.3 2394.64 1744 2394.74 1743.9C2395.34 1744.2 2396.74 1745.3 2398.14 1748.5C2399.64 1751.8 2401.34 1758.1 2401.34 1769.1C2401.34 1788.9 2396.54 1793.8 2394.74 1794.4C2394.84 1794.4 2394.74 1794.2 2394.54 1793.9Z" fill="#9A3B82"/>
<path d="M2438.04 1793.9H2432.74C2433.34 1795.5 2434.84 1799.5 2438.14 1799.5C2439.64 1799.5 2443.44 1798.8 2446.24 1792.5C2448.64 1787.3 2449.84 1779.4 2449.84 1769.2C2449.84 1741.1 2440.84 1739 2438.04 1739C2434.64 1739 2433.14 1743.1 2432.54 1744.7H2437.84C2438.04 1744.3 2438.24 1744.1 2438.34 1744C2440.34 1744.5 2444.94 1749.7 2444.94 1769.3C2444.94 1789.1 2440.14 1794 2438.34 1794.6C2438.34 1794.4 2438.24 1794.2 2438.04 1793.9Z" fill="#9A3B82"/>
<path d="M2481.54 1793.9H2476.24C2476.84 1795.5 2478.34 1799.5 2481.64 1799.5C2484.44 1799.5 2493.44 1797.3 2493.44 1769.3C2493.44 1758.6 2492.24 1750.6 2489.74 1745.5C2487.04 1739.9 2483.54 1739.1 2481.64 1739.1C2478.24 1739.1 2476.74 1743.2 2476.14 1744.8H2481.44C2481.64 1744.4 2481.84 1744.2 2481.94 1744.1C2483.14 1744.3 2484.34 1745.6 2485.34 1747.7C2486.74 1750.7 2488.54 1756.9 2488.54 1769.4C2488.54 1789 2483.94 1794.2 2481.94 1794.7C2481.84 1794.4 2481.64 1794.2 2481.54 1793.9Z" fill="#9A3B82"/>
<path d="M2264.14 1793.9H2258.84C2259.44 1795.5 2260.94 1799.5 2264.24 1799.5C2267.34 1799.5 2270.24 1796.7 2272.44 1791.9C2274.84 1786.5 2276.04 1778.7 2276.04 1769.2C2276.04 1758.1 2274.04 1751.1 2272.44 1747.2C2270.24 1742 2267.24 1739 2264.24 1739C2260.84 1739 2259.34 1743.1 2258.74 1744.7H2264.04C2264.24 1744.4 2264.34 1744.2 2264.44 1744C2265.14 1744.4 2266.64 1745.8 2268.04 1749.6C2269.44 1753.1 2271.04 1759.3 2271.04 1769.2C2271.04 1780.3 2269.34 1786.5 2267.84 1789.9C2266.44 1793.1 2265.04 1794.2 2264.44 1794.5C2264.44 1794.4 2264.24 1794.2 2264.14 1793.9Z" fill="#9A3B82"/>
<path d="M2307.54 1793.9H2302.24C2302.84 1795.5 2304.34 1799.5 2307.64 1799.5C2310.74 1799.5 2313.64 1796.7 2315.84 1791.9C2318.24 1786.5 2319.44 1778.7 2319.44 1769.2C2319.44 1749.6 2313.34 1739 2307.64 1739C2304.24 1739 2302.74 1743.1 2302.14 1744.7H2307.44C2307.64 1744.4 2307.74 1744.2 2307.84 1744C2308.54 1744.4 2309.94 1745.8 2311.44 1749.4C2312.84 1752.8 2314.44 1759.1 2314.44 1769.2C2314.44 1780.3 2312.74 1786.5 2311.24 1789.9C2309.84 1793.1 2308.44 1794.2 2307.84 1794.5C2307.84 1794.4 2307.74 1794.2 2307.54 1793.9Z" fill="#9A3B82"/>
<path d="M2351.04 1793.9H2345.74C2346.34 1795.5 2347.84 1799.5 2351.14 1799.5C2352.64 1799.5 2356.34 1798.8 2359.34 1792.1C2361.74 1786.7 2362.94 1779 2362.94 1769.3C2362.94 1759.9 2361.64 1752 2359.34 1746.6C2357.24 1741.8 2354.24 1739 2351.14 1739C2347.74 1739 2346.24 1743.1 2345.64 1744.7H2350.94C2351.14 1744.4 2351.24 1744.1 2351.34 1744C2351.94 1744.3 2353.34 1745.4 2354.74 1748.6C2356.24 1751.9 2357.94 1758.2 2357.94 1769.2C2357.94 1780.5 2356.24 1786.7 2354.74 1790C2353.34 1793.1 2351.94 1794.2 2351.34 1794.4C2351.34 1794.4 2351.24 1794.2 2351.04 1793.9Z" fill="#9A3B82"/>
<path d="M2589.04 1041.8H2238.44C2218.14 1041.8 2201.74 1025.4 2201.74 1005.1V654.501C2201.74 634.201 2218.14 617.801 2238.44 617.801H2589.04C2609.34 617.801 2625.74 634.201 2625.74 654.501V1005.1C2625.74 1025.4 2609.24 1041.8 2589.04 1041.8Z" fill="#FFCF2D"/>
<path d="M2563.44 1018.3H2205.94C2185.64 1018.3 2169.24 1001.9 2169.24 981.6V624.1C2169.24 603.8 2185.64 587.4 2205.94 587.4H2563.44C2583.74 587.4 2600.14 603.8 2600.14 624.1V981.6C2600.14 1001.9 2583.74 1018.3 2563.44 1018.3Z" fill="white" stroke="#FFCF2D" stroke-width="6" stroke-miterlimit="10"/>
<path d="M2384.74 967.801C2475.87 967.801 2549.74 893.928 2549.74 802.801C2549.74 711.674 2475.87 637.801 2384.74 637.801C2293.62 637.801 2219.74 711.674 2219.74 802.801C2219.74 893.928 2293.62 967.801 2384.74 967.801Z" stroke="#FFCF2D" stroke-width="6" stroke-miterlimit="10"/>
<path d="M2291.94 732L2384.74 802.8L2361.94 732.9" stroke="#FFCF2D" stroke-width="6" stroke-miterlimit="10" stroke-linecap="round"/>
<path d="M2090.94 2077.9H1808.24L1689.54 1935.3H1965.44L2090.94 2077.9Z" fill="#FFCF2D"/>
<path d="M2244.04 2085.3V2173.3L2020.04 2174.2C1991.34 2174.3 1968.04 2151.1 1968.04 2122.4V2095.1C1968.04 2076.9 1961.34 2059.4 1949.34 2045.9L1875.44 1962.9H2151.34L2221.94 2032.6C2236.14 2046.5 2244.04 2065.4 2244.04 2085.3Z" fill="white" stroke="#66B0F0" stroke-width="6" stroke-miterlimit="10"/>
<path d="M2344.84 2142.3C2335.34 2161.3 2315.74 2174.3 2293.04 2174.3H2017.04C2039.64 2174.3 2059.24 2161.3 2068.84 2142.3H2344.84Z" fill="white" stroke="#66B0F0" stroke-width="6" stroke-miterlimit="10"/>
<path d="M2173.74 1594.2L2005.34 1298.4C1965.14 1227.7 1890.04 1184.1 1808.74 1184.1H1178.04L1200.14 1136.4C1198.34 1140.3 1188.84 1141.3 1174.34 1139.3C1152.14 1136.3 1118.34 1126.6 1082.34 1110.6C1061.74 1101.5 1043.04 1092 1027.54 1083.2C998.244 1066.5 980.544 1051.9 983.444 1045.4L661.444 1573.5C590.744 1676.6 664.544 1816.7 789.544 1816.7C806.344 1816.7 822.944 1814 838.744 1808.7C854.544 1803.4 869.444 1795.6 882.844 1785.5L1130.14 1599.6C1145.04 1588.4 1166.34 1597.1 1169.34 1615.4L1201.64 1816.7H2044.24C2158.54 1816.8 2230.24 1693.4 2173.74 1594.2ZM1798.94 1617.3L1825.94 1555.9C1830.54 1545.4 1845.34 1545.2 1850.14 1555.6L1879.44 1617.4H1798.94V1617.3Z" fill="#FE5244"/>
<path d="M1278.44 1183.9C1278.44 1132.2 1385.14 1068.3 1514.54 1052C1708.64 1027.7 1750.64 1132.2 1750.64 1183.9" stroke="#FE5244" stroke-width="6" stroke-miterlimit="10"/>
<path d="M1728.24 1184.8C1728.24 1231.1 1514.54 1325.9 1514.54 1325.9C1514.54 1325.9 1300.84 1231.1 1300.84 1184.8C1300.84 1138.5 1402.44 1084.9 1519.54 1070.6C1688.04 1050 1728.24 1138.4 1728.24 1184.8Z" fill="#FE5244"/>
<path d="M1728.24 1184.8C1728.24 1231.1 1514.54 1325.9 1514.54 1325.9C1514.54 1325.9 1300.84 1231.1 1300.84 1184.8C1300.84 1184.6 1300.84 1184.4 1300.84 1184.2H1728.24C1728.24 1184.3 1728.24 1184.5 1728.24 1184.8Z" fill="white"/>
<path d="M1750.54 1183.8C1750.54 1234.9 1514.54 1351.1 1514.54 1351.1C1514.54 1351.1 1278.54 1235 1278.54 1183.8" stroke="white" stroke-width="6" stroke-miterlimit="10"/>
<path d="M1696.64 1814.5C1709.84 1814.5 1720.54 1770.8 1720.54 1717C1720.54 1663.2 1709.84 1619.5 1696.64 1619.5" stroke="white" stroke-width="5" stroke-miterlimit="10" stroke-linecap="round"/>
<path d="M1195.24 1156L1010.14 1526.1" stroke="white" stroke-width="5" stroke-miterlimit="10"/>
<path d="M1155.04 1517.6L1185.64 1719" stroke="white" stroke-width="5" stroke-miterlimit="10" stroke-linecap="round"/>
<path d="M1504.54 1374.8H1524.54" stroke="white" stroke-width="5" stroke-miterlimit="10" stroke-linecap="round"/>
<path d="M1504.54 1398.6H1524.54" stroke="white" stroke-width="5" stroke-miterlimit="10" stroke-linecap="round"/>
<path d="M1504.54 1422.3H1524.54" stroke="white" stroke-width="5" stroke-miterlimit="10" stroke-linecap="round"/>
<path d="M1504.54 1446H1524.54" stroke="white" stroke-width="5" stroke-miterlimit="10" stroke-linecap="round"/>
<path d="M1504.54 1469.7H1524.54" stroke="white" stroke-width="5" stroke-miterlimit="10" stroke-linecap="round"/>
<path d="M1504.54 1493.5H1524.54" stroke="white" stroke-width="5" stroke-miterlimit="10" stroke-linecap="round"/>
<path d="M1504.54 1494.6H1524.54" stroke="white" stroke-width="5" stroke-miterlimit="10" stroke-linecap="round"/>
<path d="M1504.54 1518.3H1524.54" stroke="white" stroke-width="5" stroke-miterlimit="10" stroke-linecap="round"/>
<path d="M1504.54 1542H1524.54" stroke="white" stroke-width="5" stroke-miterlimit="10" stroke-linecap="round"/>
<path d="M1504.54 1564.6H1524.54" stroke="white" stroke-width="5" stroke-miterlimit="10" stroke-linecap="round"/>
<path d="M1504.54 1588.4H1524.54" stroke="white" stroke-width="5" stroke-miterlimit="10" stroke-linecap="round"/>
<path d="M1504.54 1612.1H1524.54" stroke="white" stroke-width="5" stroke-miterlimit="10" stroke-linecap="round"/>
<path d="M1504.54 1635.8H1524.54" stroke="white" stroke-width="5" stroke-miterlimit="10" stroke-linecap="round"/>
<path d="M1504.54 1659.5H1524.54" stroke="white" stroke-width="5" stroke-miterlimit="10" stroke-linecap="round"/>
<path d="M1504.54 1683.3H1524.54" stroke="white" stroke-width="5" stroke-miterlimit="10" stroke-linecap="round"/>
<path d="M1504.54 1707H1524.54" stroke="white" stroke-width="5" stroke-miterlimit="10" stroke-linecap="round"/>
<path d="M1504.54 1730.7H1524.54" stroke="white" stroke-width="5" stroke-miterlimit="10" stroke-linecap="round"/>
<path d="M1504.54 1754.4H1524.54" stroke="white" stroke-width="5" stroke-miterlimit="10" stroke-linecap="round"/>
<path d="M1504.54 1755.6H1524.54" stroke="white" stroke-width="5" stroke-miterlimit="10" stroke-linecap="round"/>
<path d="M1504.54 1779.3H1524.54" stroke="white" stroke-width="5" stroke-miterlimit="10" stroke-linecap="round"/>
<path d="M1504.54 1803H1524.54" stroke="white" stroke-width="5" stroke-miterlimit="10" stroke-linecap="round"/>
<path d="M1502.44 1342.5V1719" stroke="white" stroke-width="5" stroke-miterlimit="10"/>
<path d="M1685.04 1619.3H1925.54" stroke="white" stroke-width="5" stroke-miterlimit="10" stroke-linecap="round"/>
<path d="M1015.84 2012.8H1783.74L1711.54 1817.5H1099.04L1015.84 2012.8Z" fill="white" stroke="#66B0F0" stroke-width="6" stroke-miterlimit="10"/>
<path d="M1015.84 2012.8C1015.84 1985.2 1089.04 1935.3 1207.94 1928.5C1335.24 1921.3 1401.94 2001.3 1400.04 2012.8H1015.84Z" fill="#66B0F0"/>
<path d="M1399.94 2012.8C1399.94 2012.8 1366.14 1854.8 1069.44 1887L1133.54 1731.1C1133.54 1731.1 1376.54 1686.9 1400.04 1817.5L1399.94 2012.8Z" fill="white" stroke="#66B0F0" stroke-width="6" stroke-miterlimit="10" stroke-linejoin="round"/>
<path d="M1779.24 2000.5C1761.54 1976 1693.34 1950.4 1591.74 1944.6C1470.94 1937.7 1404.74 1995.1 1399.94 2010.7V1817.5C1399.94 1817.5 1486.14 1719.1 1711.54 1817.5L1779.24 2000.5Z" fill="white" stroke="#66B0F0" stroke-width="6" stroke-miterlimit="10" stroke-linejoin="round"/>
<path d="M1675.54 1919.7C1650.34 1913.3 1619.84 1908.5 1585.04 1906.5C1567.74 1905.5 1551.64 1906 1536.84 1907.6C1500.14 1911.7 1471.24 1922.7 1450.64 1934.5" stroke="#66B0F0" stroke-width="6" stroke-miterlimit="10" stroke-linecap="round" stroke-linejoin="round"/>
<path d="M1666.64 1886.4C1642.54 1880.7 1613.84 1876.4 1581.44 1874.5C1564.14 1873.5 1548.04 1874 1533.24 1875.6C1496.54 1879.7 1467.64 1890.7 1447.04 1902.5" stroke="#66B0F0" stroke-width="6" stroke-miterlimit="10" stroke-linecap="round" stroke-linejoin="round"/>
<path d="M1658.44 1853.2C1635.44 1848.1 1608.74 1844.3 1578.74 1842.5C1561.44 1841.5 1545.34 1842 1530.54 1843.6C1493.84 1847.7 1464.94 1858.7 1444.34 1870.5" stroke="#66B0F0" stroke-width="6" stroke-miterlimit="10" stroke-linecap="round" stroke-linejoin="round"/>
<path d="M1691.44 1808.7L1755.04 1981.9" stroke="#66B0F0" stroke-width="6" stroke-miterlimit="10"/>
<path d="M1783.84 2012.8H1399.94V2010.7C1404.74 1995.1 1470.94 1937.7 1591.74 1944.6C1693.34 1950.4 1761.54 1976 1779.24 2000.5L1783.84 2012.8Z" fill="#66B0F0"/>
<path d="M1637.04 1184.1C1637.04 1184.1 1565.44 1221.4 1466.04 1206.4C1441.34 1202.7 1414.84 1195.7 1387.44 1184.1V1063.7L1516.24 983.5L1535.54 1015.6L1637.04 1184.1Z" fill="#E57281"/>
<path d="M1523.34 993C1531.04 1007.3 1532.34 1024.3 1526.74 1039.6L1466.04 1206.4C1441.34 1202.7 1414.84 1195.7 1387.44 1184.1V1063.7L1516.84 981L1523.34 993Z" fill="#9A3B82"/>
<path d="M1512.24 939.1C1512.24 939.1 1527.34 804.8 1473.64 792.5C1432.64 783.1 1412.24 814 1412.24 814C1412.24 814 1390.04 781.6 1355.64 796.8C1322.94 811.2 1325.24 856.1 1339.94 852.5C1354.64 848.9 1325.74 820.1 1294.84 841.4C1260.64 864.9 1294.84 903.7 1294.84 903.7C1294.84 903.7 1269.54 891.5 1257.84 916.4C1243.34 947.3 1326.14 1013.9 1326.14 1013.9L1512.24 939.1Z" fill="#9A3B82"/>
<path d="M1430.44 874.201L1344.54 908.701C1323.84 917.001 1313.74 940.7 1322.04 961.3L1359.54 1054.8C1373.34 1089.3 1412.94 1106.1 1447.34 1092.3L1483.04 1078C1517.54 1064.2 1534.34 1024.6 1520.54 990.201L1483.04 896.701C1474.74 876.001 1451.04 865.901 1430.44 874.201Z" fill="#E57281"/>
<path d="M1537.84 983.2L1520.54 990.2L1501.74 943.4L1519.04 936.4C1529.34 932.3 1540.94 937.3 1545.04 947.5L1548.94 957.2C1553.14 967.4 1548.14 979 1537.84 983.2Z" fill="#E57281"/>
<path d="M1340.94 1058.4L1358.24 1051.4L1340.74 1007.9L1323.44 1014.9C1313.14 1019 1308.24 1030.7 1312.34 1040.9L1314.94 1047.3C1319.04 1057.5 1330.64 1062.5 1340.94 1058.4Z" fill="#9A3B82"/>
<path d="M1516.74 968.2C1513.54 960.1 1517.44 951 1525.54 947.7" stroke="#9A3B82" stroke-width="5" stroke-miterlimit="10" stroke-linecap="round"/>
<path d="M1432.64 924.901C1432.64 924.901 1452.94 932.501 1478.74 920.301" stroke="#9A3B82" stroke-width="5" stroke-miterlimit="10" stroke-linecap="round"/>
<path d="M1389.74 959.101C1389.74 959.101 1420.04 956.001 1431.04 1007" stroke="#9A3B82" stroke-width="5" stroke-miterlimit="10" stroke-linecap="round"/>
<path d="M1475.74 1023.6C1475.74 1023.6 1431.04 1011.6 1432.64 1034.7" stroke="#9A3B82" stroke-width="5" stroke-miterlimit="10" stroke-linecap="round"/>
<path d="M1469.49 976.302C1471.63 975.546 1471.85 970.671 1469.98 965.413C1468.12 960.155 1464.88 956.506 1462.75 957.262C1460.61 958.018 1460.39 962.893 1462.25 968.151C1464.12 973.409 1467.36 977.058 1469.49 976.302Z" fill="#9A3B82"/>
<path d="M1387.01 1010.72C1389.15 1009.96 1389.37 1005.08 1387.5 999.826C1385.64 994.568 1382.4 990.919 1380.27 991.675C1378.13 992.431 1377.91 997.306 1379.77 1002.56C1381.64 1007.82 1384.88 1011.47 1387.01 1010.72Z" fill="#9A3B82"/>
<path d="M1468.54 995.5C1484.5 995.5 1497.44 982.561 1497.44 966.6C1497.44 950.639 1484.5 937.7 1468.54 937.7C1452.58 937.7 1439.64 950.639 1439.64 966.6C1439.64 982.561 1452.58 995.5 1468.54 995.5Z" stroke="#FFCF2D" stroke-width="5" stroke-miterlimit="10" stroke-linecap="round"/>
<path d="M1383.54 1028.5C1399.5 1028.5 1412.44 1015.56 1412.44 999.6C1412.44 983.639 1399.5 970.7 1383.54 970.7C1367.58 970.7 1354.64 983.639 1354.64 999.6C1354.64 1015.56 1367.58 1028.5 1383.54 1028.5Z" stroke="#FFCF2D" stroke-width="5" stroke-miterlimit="10" stroke-linecap="round"/>
<path d="M1410.54 989.2L1441.04 975.2" stroke="#FFCF2D" stroke-width="5" stroke-miterlimit="10" stroke-linecap="round"/>
<path d="M1206.14 1125.4C1204.44 1129.3 1194.84 1130.3 1180.34 1128.3C1158.14 1125.3 1124.34 1115.6 1088.34 1099.6C1067.74 1090.4 1049.04 1081 1033.64 1072.2C1004.34 1055.5 986.644 1040.9 989.544 1034.4C992.444 1028 1014.94 1031.1 1046.74 1041.4C1063.84 1046.9 1083.54 1054.5 1104.34 1063.8C1139.94 1079.6 1170.84 1095 1189.04 1106.9C1201.44 1114.9 1207.94 1121.4 1206.14 1125.4Z" fill="white" stroke="#FE5244" stroke-width="6" stroke-miterlimit="10"/>
<path d="M1375.84 922.6L1348.64 1027.7L1324.14 966.7C1314.74 943.3 1326.04 916.5 1349.14 906.7L1375.84 922.6Z" fill="#9A3B82"/>
<path d="M1376.84 920.7L1322.84 1014.3C1316.64 1025.1 1305.04 1031.8 1292.54 1031.8H1236.74C1228.54 1031.8 1221.24 1036.8 1218.14 1044.3L1189.14 1107L1180.64 1125.3C1156.14 1122 1122.04 1111.4 1089.44 1096.9C1077.24 1091.5 1065.34 1085.8 1054.34 1080.1L1069.04 1049.4L1095.34 994.5C1107.94 964.8 1129.64 939.8 1157.34 923.2L1211.74 890.5C1218.94 886.2 1227.24 883.9 1235.64 883.9H1328.04C1333.14 883.9 1338.14 885 1342.64 887.2L1370.44 900.4C1378.14 904.1 1381.04 913.4 1376.84 920.7Z" fill="#E57281"/>
<path d="M1246.24 923.7H1312.24C1317.14 923.7 1321.94 924.8 1326.34 926.9L1353.04 939.7C1360.34 943.2 1363.14 952.2 1359.14 959.2" stroke="#9A3B82" stroke-width="5" stroke-miterlimit="10" stroke-linecap="round"/>
<path d="M1229.84 952.101H1295.84C1300.74 952.101 1305.54 953.201 1309.94 955.301L1336.64 968.101C1343.94 971.601 1346.74 980.601 1342.74 987.601" stroke="#9A3B82" stroke-width="5" stroke-miterlimit="10" stroke-linecap="round"/>
<path d="M1210.54 989.2H1276.54C1281.44 989.2 1286.24 990.3 1290.64 992.4L1317.34 1005.2C1324.64 1008.7 1327.44 1017.7 1323.44 1024.7" stroke="#9A3B82" stroke-width="5" stroke-miterlimit="10" stroke-linecap="round"/>
<path d="M1180.74 1125.3C1156.24 1122 1122.14 1111.4 1089.54 1096.9C1077.34 1091.5 1065.44 1085.8 1054.44 1080.1L1071.04 1046.2C1082.14 1050.4 1093.04 1055.2 1105.24 1060.7C1140.84 1076.5 1171.94 1093 1190.14 1104.9L1180.74 1125.3Z" fill="#9A3B82"/>
<path d="M1191.04 1029.1H1237.84" stroke="#9A3B82" stroke-width="5" stroke-miterlimit="10" stroke-linecap="round"/>
<path d="M1684.64 1816.7C1697.84 1816.7 1708.54 1772.06 1708.54 1717C1708.54 1661.94 1697.84 1617.3 1684.64 1617.3C1671.44 1617.3 1660.74 1661.94 1660.74 1717C1660.74 1772.06 1671.44 1816.7 1684.64 1816.7Z" fill="white"/>
<path d="M1708.54 1717C1708.54 1734.1 1707.54 1750.2 1705.64 1764.3C1699.44 1780.1 1686.74 1792.6 1670.74 1798.5C1664.24 1800.9 1657.14 1802.3 1649.74 1802.3H1559.04C1547.64 1802.3 1538.34 1811.6 1538.34 1823V1825.8C1538.34 1842.5 1520.54 1853.3 1505.74 1845.5L1463.14 1823.2C1455.54 1819.2 1450.74 1811.3 1450.74 1802.7V1769.4C1450.74 1756.9 1456.64 1745.2 1466.54 1737.7L1531.54 1688.8C1542.54 1680.5 1555.94 1676.1 1569.64 1676.1H1706.34C1707.84 1688.6 1708.54 1702.4 1708.54 1717Z" fill="#E57281"/>
<path d="M1547.94 1708.3L1488.24 1753.2C1479.14 1760.1 1473.74 1770.9 1473.74 1782.3V1812.9C1473.74 1820.8 1478.14 1828.1 1485.14 1831.7" stroke="#9A3B82" stroke-width="5" stroke-miterlimit="10" stroke-linecap="round"/>
<path d="M1578.34 1721.7L1518.64 1766.6C1509.54 1773.5 1504.14 1784.3 1504.14 1795.7V1826.3C1504.14 1834.2 1508.54 1841.5 1515.54 1845.1" stroke="#9A3B82" stroke-width="5" stroke-miterlimit="10" stroke-linecap="round"/>
<path d="M1708.54 1717C1708.54 1734.1 1707.54 1750.2 1705.64 1764.3C1699.44 1780.1 1686.74 1792.6 1670.74 1798.5C1664.64 1780.4 1660.64 1750.7 1660.64 1717C1660.64 1702.4 1661.44 1688.6 1662.74 1676.1H1706.44C1707.84 1688.6 1708.54 1702.4 1708.54 1717Z" fill="#9A3B82"/>
<path d="M1882.24 1862.3C1942.11 1862.3 1990.64 1858.23 1990.64 1853.2C1990.64 1848.17 1942.11 1844.1 1882.24 1844.1C1822.38 1844.1 1773.84 1848.17 1773.84 1853.2C1773.84 1858.23 1822.38 1862.3 1882.24 1862.3Z" fill="#FFCF2D"/>
<path d="M1972.44 1860.1H1927.64C1886.04 1860.1 1852.44 1826.4 1852.44 1784.9V1721H2047.74V1784.8C2047.74 1826.4 2014.04 1860.1 1972.44 1860.1Z" fill="white" stroke="#FFCF2D" stroke-width="6" stroke-miterlimit="10"/>
<path d="M2075.04 1775.7H2047.64V1727H2075.04C2086.74 1727 2096.34 1736.5 2096.34 1748.3V1754.5C2096.34 1766.2 2086.74 1775.7 2075.04 1775.7Z" stroke="#FFCF2D" stroke-width="6" stroke-miterlimit="10"/>
<path d="M1950.04 1740C2004.44 1740 2048.54 1731.18 2048.54 1720.3C2048.54 1709.42 2004.44 1700.6 1950.04 1700.6C1895.64 1700.6 1851.54 1709.42 1851.54 1720.3C1851.54 1731.18 1895.64 1740 1950.04 1740Z" fill="#3FB1B5" stroke="white" stroke-width="5" stroke-miterlimit="10"/>
<path d="M1852.54 1736.3C1852.54 1747.2 1896.24 1756 1950.04 1756C2003.84 1756 2047.54 1747.2 2047.54 1736.3" stroke="#FFCF2D" stroke-width="6" stroke-miterlimit="10"/>
<path d="M1852.54 1757.2C1852.54 1768.1 1896.24 1776.9 1950.04 1776.9C2003.84 1776.9 2047.54 1768.1 2047.54 1757.2" stroke="#FFCF2D" stroke-width="6" stroke-miterlimit="10"/>
<path d="M1852.54 1778.1C1852.54 1789 1896.24 1797.8 1950.04 1797.8C2003.84 1797.8 2047.54 1789 2047.54 1778.1" stroke="#FFCF2D" stroke-width="6" stroke-miterlimit="10"/>
<path d="M1854.04 1799C1854.04 1809.9 1897.04 1818.7 1950.04 1818.7C2003.04 1818.7 2046.04 1809.9 2046.04 1799" stroke="#FFCF2D" stroke-width="6" stroke-miterlimit="10"/>
<path d="M1861.54 1819.9C1861.54 1830.8 1901.14 1839.6 1950.04 1839.6C1998.94 1839.6 2038.54 1830.8 2038.54 1819.9" stroke="#FFCF2D" stroke-width="6" stroke-miterlimit="10"/>
<path d="M1946.14 1685.3C1936.54 1678.7 1906.64 1615.8 1943.64 1590.1C1972.04 1570.3 1977.54 1621.6 1964.44 1617.3C1941.64 1609.8 1927.74 1509.4 1987.24 1515.6C2013.44 1518.3 2010.54 1555.6 1987.24 1556.6" stroke="white" stroke-width="5" stroke-miterlimit="10" stroke-linecap="round"/>
<path d="M783.144 1979.1H291.644C278.444 1979.1 266.644 1971.1 261.744 1958.9L127.244 1626.5C120.844 1610.6 132.544 1593.2 149.644 1593.2H641.144C654.344 1593.2 666.144 1601.2 671.044 1613.4L805.544 1945.8C812.044 1961.7 800.344 1979.1 783.144 1979.1Z" fill="white" stroke="#FFCF2D" stroke-width="6" stroke-miterlimit="10"/>
<path d="M760.344 1981.5H291.444C278.944 1981.5 267.644 1973.9 262.944 1962.3L134.644 1645.2C128.544 1630 139.644 1613.5 156.044 1613.5H624.944C637.444 1613.5 648.744 1621.1 653.444 1632.7L781.744 1949.8C787.844 1965 776.644 1981.5 760.344 1981.5Z" fill="#FFCF2D"/>
<path d="M472.444 1837.3C458.644 1837.3 445.644 1831.9 435.844 1822.1C427.844 1814.1 423.444 1803.5 423.444 1792.3C423.444 1781 427.844 1770.4 435.844 1762.5C442.344 1756 451.044 1752.4 460.244 1752.4C469.444 1752.4 478.144 1756 484.644 1762.5C495.744 1773.6 495.744 1791.6 484.644 1802.7C475.444 1811.9 460.544 1811.9 451.344 1802.7C449.744 1801.1 449.744 1798.6 451.344 1797C452.944 1795.4 455.444 1795.4 457.044 1797C463.144 1803.1 472.944 1803.1 479.044 1797C487.044 1789 487.044 1776.1 479.044 1768.1C474.044 1763.1 467.344 1760.3 460.244 1760.3C453.144 1760.3 446.444 1763.1 441.444 1768.1C434.944 1774.6 431.444 1783.1 431.444 1792.3C431.444 1801.4 435.044 1810 441.444 1816.5C449.744 1824.8 460.644 1829.3 472.344 1829.3C484.044 1829.3 495.044 1824.8 503.244 1816.5C504.844 1814.9 507.344 1814.9 508.944 1816.5C510.544 1818.1 510.544 1820.6 508.944 1822.2C499.244 1831.9 486.244 1837.3 472.444 1837.3Z" fill="white"/>
<path d="M959.044 2014.3H292.244C284.544 2014.3 278.344 2008.1 278.344 2000.4V1993.7C278.344 1986 284.544 1979.8 292.244 1979.8H959.044C966.744 1979.8 972.944 1986 972.944 1993.7V2000.4C972.844 2008.1 966.644 2014.3 959.044 2014.3Z" fill="white" stroke="#FFCF2D" stroke-width="6" stroke-miterlimit="10"/>
<path d="M1346.3 191.8L1390.4 147.7L1434.5 191.8" stroke="#FFCF2D" stroke-width="6" stroke-miterlimit="10"/>
<path d="M1390.4 147.7V0" stroke="#FFCF2D" stroke-width="6" stroke-miterlimit="10"/>
<path d="M1390.4 454.6C1429.61 454.6 1461.4 422.812 1461.4 383.6C1461.4 344.388 1429.61 312.6 1390.4 312.6C1351.19 312.6 1319.4 344.388 1319.4 383.6C1319.4 422.812 1351.19 454.6 1390.4 454.6Z" fill="#FFCF2D" stroke="white" stroke-width="6" stroke-miterlimit="10"/>
<path d="M1622.9 377.6H1158L1164.2 349.3C1184.6 256.1 1279.7 188.5 1390.5 188.5C1445.9 188.5 1497.4 205.4 1537.5 233.9C1577.7 262.4 1606.5 302.6 1616.7 349.2L1622.9 377.6Z" stroke="#9A3B82" stroke-width="6" stroke-miterlimit="10" stroke-linecap="round"/>
</svg>
