<svg width="3414" height="2370" viewBox="0 0 3414 2370" fill="none" xmlns="http://www.w3.org/2000/svg">
<path d="M3249.67 2040.32V2369.8H2753.38L2850.07 1863.84C2846.97 1883.82 2908.87 1921.27 2993.57 1958.82C3023.97 1972.3 3057.87 1985.69 3094.07 1998.37C3152.47 2018.94 3206.27 2032.93 3249.67 2040.32C3249.57 2040.32 3249.67 2040.32 3249.67 2040.32Z" fill="#9A3B82"/>
<path d="M3249.67 1941.24V2029.43C3206.27 2022.04 3152.57 2008.16 3093.97 1987.58C2955.87 1939.15 2849.57 1879.32 2855.57 1852.46C2855.67 1852.06 2855.78 1851.66 2855.88 1851.36C2865.18 1825.09 2987.47 1843.27 3127.47 1892.3C3172.47 1908.08 3213.07 1924.36 3247.17 1940.04C3247.97 1940.44 3248.77 1940.84 3249.67 1941.24Z" fill="#FFCF2D"/>
<path d="M3181.57 1177.81C3133.17 1177.81 3093.97 1216.96 3093.97 1265.2V1504.7C3093.97 1552.93 3054.77 1592.08 3006.47 1592.08H2655.67C2704.07 1592.08 2743.17 1552.93 2743.17 1504.7V1265.2C2743.17 1216.86 2782.37 1177.81 2830.67 1177.81H3181.57Z" fill="#CEE4ED" stroke="#FFCF2D" stroke-width="5" stroke-miterlimit="10"/>
<path d="M3028.17 1301.75H2804.77V1508.79H3028.17V1301.75Z" fill="white" stroke="#FFCF2D" stroke-width="5" stroke-miterlimit="10"/>
<path d="M3028.07 1331.31H2804.77" stroke="#FFCF2D" stroke-width="5" stroke-miterlimit="10"/>
<path d="M3028.07 1360.88H2804.77" stroke="#FFCF2D" stroke-width="5" stroke-miterlimit="10"/>
<path d="M3028.07 1390.54H2804.77" stroke="#FFCF2D" stroke-width="5" stroke-miterlimit="10"/>
<path d="M3028.07 1420.1H2804.77" stroke="#FFCF2D" stroke-width="5" stroke-miterlimit="10"/>
<path d="M3028.07 1449.76H2804.77" stroke="#FFCF2D" stroke-width="5" stroke-miterlimit="10"/>
<path d="M3028.07 1479.33H2804.77" stroke="#FFCF2D" stroke-width="5" stroke-miterlimit="10"/>
<path d="M3093.97 1265.2C3093.97 1217.16 3132.77 1178.21 3180.67 1177.81C3228.67 1178.21 3267.37 1217.16 3267.37 1265.2H3093.97Z" fill="#66B0F0" stroke="#FFCF2D" stroke-width="5" stroke-miterlimit="10"/>
<path d="M3006.88 1594.28C3006.77 1594.28 3006.57 1594.28 3006.47 1594.28H2656.97C2656.77 1594.28 2656.58 1594.28 2656.38 1594.28C2620.47 1593.78 2589.77 1571.61 2576.77 1540.25H2926.97C2940.07 1571.61 2970.78 1593.78 3006.88 1594.28Z" fill="#FFCF2D"/>
<path d="M2819.37 1277.98H2778.97V1245.62H2797.97V1263.6C2797.97 1264 2798.17 1264.3 2798.37 1264.4L2798.47 1264.5L2819.37 1277.98Z" fill="#FE5244"/>
<path d="M2835.07 1256.81V1261.1C2835.07 1261.9 2834.97 1262.7 2834.97 1263.5C2834.97 1263.7 2834.88 1264 2834.88 1264.2C2834.77 1264.6 2834.77 1265 2834.67 1265.4C2833.57 1270.89 2830.27 1275.39 2826.17 1277.08C2825.87 1277.18 2825.57 1277.28 2825.27 1277.38C2824.77 1277.58 2824.17 1277.68 2823.67 1277.78C2823.47 1277.78 2823.27 1277.88 2823.07 1277.88L2800.17 1263C2800.37 1259.51 2802.57 1256.71 2805.17 1256.71H2835.07V1256.81Z" fill="#FE5244"/>
<path d="M3058.17 1245.62V1277.98H3017.77L3038.57 1264.5L3038.67 1264.4C3038.77 1264.3 3038.77 1264.3 3038.87 1264.3C3038.87 1264.2 3038.97 1264.2 3038.97 1264.1C3038.97 1264.1 3038.97 1264 3039.07 1264C3039.07 1263.9 3039.07 1263.9 3039.17 1263.9C3039.17 1263.9 3039.17 1263.9 3039.17 1263.8C3039.17 1263.7 3039.17 1263.7 3039.17 1263.6V1245.62H3058.17Z" fill="#FE5244"/>
<path d="M3037.17 1263.1L3014.27 1277.98C3013.67 1277.88 3013.07 1277.78 3012.47 1277.68C3012.27 1277.58 3012.07 1277.58 3011.87 1277.48C3011.57 1277.38 3011.37 1277.28 3011.07 1277.18C3010.87 1277.08 3010.57 1276.98 3010.37 1276.88C3007.27 1275.19 3004.67 1271.89 3003.37 1267.8C3003.17 1267.2 3002.97 1266.6 3002.87 1266C3002.77 1265.8 3002.77 1265.5 3002.67 1265.2C3002.47 1263.9 3002.27 1262.6 3002.27 1261.2V1256.91H3032.27C3034.77 1256.81 3036.97 1259.61 3037.17 1263.1Z" fill="#FE5244"/>
<path d="M3037.17 1229.24V1257.41C3036.97 1257.21 3036.77 1256.91 3036.57 1256.71C3036.17 1256.31 3035.77 1256.01 3035.37 1255.71C3034.37 1255.11 3033.27 1254.71 3032.17 1254.71H2805.07C2803.87 1254.71 2802.77 1255.11 2801.87 1255.71C2801.47 1256.01 2801.07 1256.31 2800.67 1256.71C2800.47 1256.91 2800.27 1257.11 2800.07 1257.41V1229.24C2800.07 1225.45 2802.27 1222.45 2805.07 1222.45H3032.17C3034.87 1222.45 3037.17 1225.55 3037.17 1229.24Z" fill="#FE5244"/>
<path d="M3249.67 1637.93V2029.43H3249.57C3206.17 2022.04 3152.47 2008.16 3093.88 1987.58C3057.67 1974.9 3023.77 1961.42 2993.38 1948.03L3009.67 1857.15L3037.38 1702.84C2950.47 1675.68 2936.38 1592.18 2936.38 1592.18H3006.27C3054.67 1592.18 3093.77 1553.03 3093.77 1504.8V1476.03H3048.88C3017.38 1476.03 2991.77 1445.07 2991.77 1413.61V1403.42H3091.57C3110.07 1403.42 3127.47 1412.11 3138.57 1426.89L3211.57 1524.27C3236.37 1557.03 3249.67 1596.88 3249.67 1637.93Z" fill="#A0505A"/>
<path d="M3249.67 1941.24V2029.43H3249.57C3206.17 2022.04 3152.47 2008.16 3093.88 1987.58C3057.67 1974.9 3023.77 1961.42 2993.38 1948.03L3009.67 1857.15C3045.67 1865.94 3085.67 1877.82 3127.27 1892.4C3172.27 1908.18 3212.88 1924.46 3246.88 1940.14C3247.98 1940.44 3248.77 1940.84 3249.67 1941.24Z" fill="#73325A"/>
<path d="M3098.38 1476.03H3050.18C3018.68 1476.03 2993.08 1445.07 2993.08 1413.61V1403.42H3098.38V1476.03Z" fill="#A0505A"/>
<path d="M3068.08 1573.31C3068.08 1573.31 3137.58 1599.38 3143.88 1688.96" stroke="#73325A" stroke-width="5" stroke-miterlimit="10"/>
<path d="M3037.58 1704.94H3084.88" stroke="#73325A" stroke-width="5" stroke-miterlimit="10"/>
<path d="M2993.47 585.159L3025.17 564.186C3066.47 536.92 3121.77 563.886 3125.67 613.124L3132.57 700.314C3136.37 748.153 3189.07 775.419 3230.37 750.95L3250.37 739.065" stroke="#FFCF2D" stroke-width="6" stroke-miterlimit="10"/>
<path d="M2532.77 261.271L2940.07 497.372L3145.17 957.289L2909.88 798.99L2654.17 499.769L2532.77 261.271Z" fill="#9A3B82"/>
<path d="M2533.88 245.389L2949.77 486.584L3159.27 956.189" stroke="#FFCF2D" stroke-width="6" stroke-miterlimit="10"/>
<path d="M2905.62 809.147C2924.66 793.099 2881.89 711.244 2810.1 626.318C2738.31 541.393 2664.68 485.556 2645.65 501.604C2626.62 517.652 2669.38 599.507 2741.17 684.433C2812.96 769.358 2886.59 825.194 2905.62 809.147Z" fill="white"/>
<path d="M2894.06 814.056C2912.71 798.327 2870.76 718.065 2800.36 634.782C2729.96 551.501 2657.77 496.737 2639.11 512.465C2620.46 528.192 2662.41 608.456 2732.81 691.737C2803.21 775.019 2875.4 829.783 2894.06 814.056Z" fill="#E5E5E5" stroke="#FFCF2D" stroke-width="5" stroke-miterlimit="10"/>
<path d="M2943.67 776.817L2904.88 809.475C2912.07 803.383 2910.47 788.003 2901.77 766.53C2887.47 731.175 2853.97 679.54 2809.38 626.607C2764.67 573.774 2719.27 532.126 2686.77 512.152C2667.07 499.967 2652.07 495.772 2644.88 501.865L2683.67 469.206C2702.67 453.126 2779.67 505.66 2851.47 590.652C2923.27 675.645 2962.77 760.837 2943.67 776.817Z" fill="#FFCF2D"/>
<path d="M3358.17 651.875C3369.17 646.581 3379.87 641.887 3390.17 637.992C3396.27 644.384 3401.57 651.875 3405.67 660.264C3409.77 668.653 3412.37 677.442 3413.57 686.131C3404.07 691.724 3393.77 697.317 3382.87 702.61C3328.17 729.077 3278.37 739.164 3271.57 725.182C3264.67 711.1 3303.47 678.341 3358.17 651.875Z" fill="#FFCF2D"/>
<path d="M3261.57 744.158C3268.26 744.158 3273.67 738.748 3273.67 732.073C3273.67 725.4 3268.26 719.989 3261.57 719.989C3254.89 719.989 3249.47 725.4 3249.47 732.073C3249.47 738.748 3254.89 744.158 3261.57 744.158Z" stroke="#9A3B82" stroke-width="6" stroke-miterlimit="10"/>
<path d="M2547.47 1946.94V2369.8H2065.17L2126.97 1910.58C2126.97 1929.16 2221.07 1952.33 2337.17 1962.32C2453.27 1972.4 2547.47 1965.51 2547.47 1946.94Z" fill="#66B0F0"/>
<path d="M2545.27 1936.05C2545.27 1954.63 2451.97 1961.52 2336.97 1951.43C2221.97 1941.34 2128.67 1918.17 2128.67 1899.7C2128.67 1881.12 2221.97 1874.23 2336.97 1884.31C2452.07 1894.3 2545.27 1917.47 2545.27 1936.05Z" fill="#3FB1B5"/>
<path d="M2612.17 998.636L2641.38 1017.51C2670.58 1040.08 2630.17 1140.96 2551.17 1242.63C2472.17 1344.4 2384.47 1408.52 2355.27 1385.95L2340.88 1372.36" stroke="#66B0F0" stroke-width="6" stroke-miterlimit="10"/>
<path d="M2206.67 1472.44L2538.17 1169.42L2654.07 816.966L2300.27 1138.06L2206.67 1472.44Z" fill="#66B0F0"/>
<path d="M2189.77 1509.19L2550.57 1179.41L2668.27 821.36" stroke="#FE5244" stroke-width="6" stroke-miterlimit="10" stroke-linecap="round"/>
<path d="M2380.57 1168.42L2065.77 1469.14C2050.47 1483.72 2025.47 1469.94 2029.77 1449.17L2038.57 1406.52C2042.57 1387.24 2020.67 1373.16 2004.77 1384.75L1900.77 1460.35" stroke="#FE5244" stroke-width="6" stroke-miterlimit="10"/>
<path d="M1816.07 1568.02C1806.77 1575.81 1797.47 1583 1788.47 1589.29C1780.97 1584.59 1774.07 1578.7 1767.97 1571.51C1761.97 1564.32 1757.27 1556.53 1753.97 1548.34C1761.77 1540.55 1770.37 1532.66 1779.67 1524.77C1826.17 1485.72 1871.97 1463.65 1882.07 1475.63C1892.07 1487.62 1862.57 1528.96 1816.07 1568.02Z" fill="#FFCF2D"/>
<path d="M1891.07 1479.73C1897.76 1479.73 1903.17 1474.31 1903.17 1467.64C1903.17 1460.97 1897.76 1455.56 1891.07 1455.56C1884.39 1455.56 1878.97 1460.97 1878.97 1467.64C1878.97 1474.31 1884.39 1479.73 1891.07 1479.73Z" stroke="#FE5244" stroke-width="6" stroke-miterlimit="10"/>
<path d="M2395.47 1628.64V1955.23C2376.97 1954.43 2357.27 1953.23 2336.97 1951.43C2262.07 1944.94 2196.47 1932.75 2159.77 1919.97L2165.27 1883.82L2183.67 1762.47H2159.87C2125.97 1762.47 2098.57 1735.1 2098.57 1701.25V1581C2098.57 1557.23 2107.17 1534.36 2122.87 1516.48L2201.17 1427.09C2206.27 1421.3 2215.87 1424.9 2215.87 1432.59V1554.13C2215.87 1568.71 2210.67 1582.8 2201.17 1593.88L2194.17 1602.07H2279.17C2291.47 1602.07 2298.67 1588.39 2291.77 1578.2C2281.27 1562.92 2267.47 1541.15 2254.37 1515.98C2228.27 1466.14 2273.57 1438.28 2273.57 1438.28L2377.27 1572.61C2389.07 1588.89 2395.47 1608.56 2395.47 1628.64Z" fill="#FFCF2D"/>
<path d="M2215.88 1426.09V1554.13C2215.88 1568.71 2210.67 1582.8 2201.17 1593.88L2194.17 1602.07" stroke="white" stroke-width="5" stroke-miterlimit="10" stroke-linecap="round"/>
<path d="M2194.17 1601.97L2137.97 1664.99" stroke="white" stroke-width="5" stroke-miterlimit="10" stroke-linecap="round"/>
<path d="M2215.87 1498.5C2215.87 1513.08 2210.67 1527.17 2201.17 1538.25L2194.17 1546.44L2138.07 1609.36" stroke="white" stroke-width="5" stroke-miterlimit="10" stroke-linecap="round"/>
<path d="M2215.87 1442.97C2215.87 1457.56 2210.67 1471.64 2201.17 1482.72L2194.17 1490.91L2138.07 1553.83" stroke="white" stroke-width="5" stroke-miterlimit="10" stroke-linecap="round"/>
<path d="M2183.67 1765.76H2226.77" stroke="white" stroke-width="5" stroke-miterlimit="10" stroke-linecap="round"/>
<path d="M2395.47 1890.71V1955.22C2376.97 1954.43 2357.27 1953.23 2336.97 1951.43C2262.07 1944.94 2196.47 1932.75 2159.77 1919.97L2165.27 1883.82C2202.87 1878.32 2265.77 1878.02 2337.07 1884.21C2357.27 1886.11 2376.87 1888.21 2395.47 1890.71Z" fill="#FE5244"/>
<path d="M1911.47 2369.8H1353.77V1817.6C1353.77 1841.17 1445.47 1860.25 1558.67 1860.25C1671.87 1860.25 1763.57 1841.17 1763.57 1817.6V1817.5L1911.47 2369.8Z" fill="#3FB1B5"/>
<path d="M1762.07 1806.61C1762.07 1830.28 1671.38 1849.36 1559.38 1849.36C1447.38 1849.36 1356.67 1830.28 1356.67 1806.71V1806.61C1356.97 1783.14 1447.57 1764.07 1559.38 1764.07C1671.18 1764.07 1761.87 1783.14 1762.07 1806.61Z" fill="#66B0F0"/>
<path d="M1762.07 1807.01C1761.37 1830.38 1670.88 1849.36 1559.38 1849.36C1537.88 1849.36 1517.27 1848.66 1497.88 1847.36V1641.92H1392.07C1378.57 1641.92 1367.67 1631.04 1367.67 1617.55V1601.07C1367.67 1593.68 1370.97 1587.09 1376.17 1582.6C1370.97 1578.1 1367.67 1571.51 1367.67 1564.12V1547.64C1367.67 1541.15 1370.27 1535.16 1374.47 1530.86C1370.27 1526.47 1367.67 1520.58 1367.67 1514.08V1497.6C1367.67 1490.91 1370.37 1484.82 1374.77 1480.33C1370.37 1475.93 1367.67 1469.84 1367.67 1463.15V1433.29C1367.67 1419.8 1378.57 1408.92 1392.07 1408.92H1527.17C1531.67 1406.32 1538.97 1397.13 1526.57 1391.74L1497.57 1384.95C1474.57 1373.46 1459.97 1354.39 1459.97 1328.62H1561.97C1579.07 1328.62 1594.37 1339.4 1600.17 1355.48L1759.57 1799.92L1762.07 1807.01Z" fill="#E57281"/>
<path d="M1762.57 1807.21C1762.27 1806.91 1762.07 1806.71 1762.07 1806.71C1762.07 1830.28 1671.38 1849.36 1559.38 1849.36C1537.88 1849.36 1517.27 1848.66 1497.88 1847.36V1766.16C1517.27 1764.87 1537.98 1764.17 1559.38 1764.17C1660.38 1764.17 1744.17 1779.75 1759.57 1800.02C1759.97 1800.52 1761.07 1803.22 1762.57 1807.21Z" fill="#9A3B82"/>
<path d="M1529.47 1131.27V1212.27C1529.47 1256.31 1493.77 1291.96 1449.67 1291.96C1405.57 1291.96 1369.88 1256.31 1369.88 1212.27V1131.27C1369.88 1151.04 1405.57 1167.02 1449.67 1167.02C1493.77 1167.02 1529.47 1151.04 1529.47 1131.27Z" fill="#CEE4ED"/>
<path d="M1449.67 1167.02C1493.75 1167.02 1529.47 1151.01 1529.47 1131.27C1529.47 1111.52 1493.75 1095.51 1449.67 1095.51C1405.6 1095.51 1369.88 1111.52 1369.88 1131.27C1369.88 1151.01 1405.6 1167.02 1449.67 1167.02Z" fill="#FFCF2D"/>
<path d="M1529.47 992.843V1212.17C1529.47 1241.73 1513.37 1267.5 1489.47 1281.28C1489.47 1281.28 1489.48 1281.28 1489.38 1281.28C1477.68 1287.97 1464.07 1291.86 1449.67 1291.86C1435.27 1291.86 1421.77 1288.07 1410.07 1281.38C1409.97 1281.38 1409.98 1281.28 1409.88 1281.28C1385.98 1267.5 1369.88 1241.73 1369.88 1212.17V992.843H1529.47Z" stroke="#FFCF2D" stroke-width="6" stroke-miterlimit="10"/>
<path d="M1449.67 1028.6C1494.24 1028.6 1530.37 1012.59 1530.37 992.843C1530.37 973.096 1494.24 957.088 1449.67 957.088C1405.11 957.088 1368.97 973.096 1368.97 992.843C1368.97 1012.59 1405.11 1028.6 1449.67 1028.6Z" fill="white" stroke="#FFCF2D" stroke-width="5" stroke-miterlimit="10"/>
<path d="M1449.67 998.236C1456.19 998.236 1461.47 992.96 1461.47 986.451C1461.47 979.942 1456.19 974.666 1449.67 974.666C1443.16 974.666 1437.88 979.942 1437.88 986.451C1437.88 992.96 1443.16 998.236 1449.67 998.236Z" fill="#FFCF2D"/>
<path d="M1423.67 1238.93C1429.42 1238.93 1434.07 1234.28 1434.07 1228.55C1434.07 1222.81 1429.42 1218.16 1423.67 1218.16C1417.93 1218.16 1413.27 1222.81 1413.27 1228.55C1413.27 1234.28 1417.93 1238.93 1423.67 1238.93Z" fill="white" stroke="#FFCF2D" stroke-width="5" stroke-miterlimit="10"/>
<path d="M1486.07 1139.86C1490.82 1139.86 1494.67 1136.01 1494.67 1131.27C1494.67 1126.52 1490.82 1122.68 1486.07 1122.68C1481.33 1122.68 1477.47 1126.52 1477.47 1131.27C1477.47 1136.01 1481.33 1139.86 1486.07 1139.86Z" fill="white"/>
<path d="M1402.87 1204.28C1407.62 1204.28 1411.47 1200.43 1411.47 1195.69C1411.47 1190.94 1407.62 1187.1 1402.87 1187.1C1398.12 1187.1 1394.27 1190.94 1394.27 1195.69C1394.27 1200.43 1398.12 1204.28 1402.87 1204.28Z" fill="#FFCF2D"/>
<path d="M1526.37 1697.85H1372.97C1370.17 1697.85 1369.37 1694.16 1371.77 1692.86L1425.37 1672.58C1433.77 1669.39 1439.37 1661.3 1439.37 1652.31V1333.11C1439.37 1311.94 1428.37 1292.06 1410.07 1281.38C1421.77 1288.07 1435.27 1291.86 1449.67 1291.86C1464.17 1291.86 1477.67 1287.97 1489.37 1281.28C1470.97 1291.86 1459.97 1311.84 1459.97 1333.01V1652.21C1459.97 1661.2 1465.57 1669.29 1473.97 1672.48L1527.57 1692.76C1529.97 1694.16 1529.17 1697.85 1526.37 1697.85Z" fill="white" stroke="#FFCF2D" stroke-width="5" stroke-miterlimit="10"/>
<path d="M1392.87 872.895C1400.39 872.895 1406.47 866.814 1406.47 859.312C1406.47 851.811 1400.39 845.729 1392.87 845.729C1385.36 845.729 1379.27 851.811 1379.27 859.312C1379.27 866.814 1385.36 872.895 1392.87 872.895Z" fill="#FFCF2D"/>
<path d="M1486.07 894.767C1492.59 894.767 1497.87 889.491 1497.87 882.982C1497.87 876.474 1492.59 871.197 1486.07 871.197C1479.56 871.197 1474.27 876.474 1474.27 882.982C1474.27 889.491 1479.56 894.767 1486.07 894.767Z" fill="white" stroke="#FFCF2D" stroke-width="5" stroke-miterlimit="10"/>
<path d="M1428.27 940.709C1433.02 940.709 1436.88 936.864 1436.88 932.12C1436.88 927.377 1433.02 923.531 1428.27 923.531C1423.53 923.531 1419.67 927.377 1419.67 932.12C1419.67 936.864 1423.53 940.709 1428.27 940.709Z" fill="white" stroke="#FFCF2D" stroke-width="5" stroke-miterlimit="10"/>
<path d="M1423.77 836.142C1427.7 836.142 1430.88 832.967 1430.88 829.05C1430.88 825.134 1427.7 821.959 1423.77 821.959C1419.85 821.959 1416.67 825.134 1416.67 829.05C1416.67 832.967 1419.85 836.142 1423.77 836.142Z" fill="#FFCF2D"/>
<path d="M1552.47 1440.98V1642.02H1392.07C1378.57 1642.02 1367.67 1631.14 1367.67 1617.65V1601.17C1367.67 1593.78 1370.97 1587.19 1376.17 1582.7C1370.97 1578.2 1367.67 1571.61 1367.67 1564.22V1547.74C1367.67 1541.25 1370.27 1535.26 1374.47 1530.96C1370.27 1526.57 1367.67 1520.68 1367.67 1514.18V1497.7C1367.67 1491.01 1370.37 1484.92 1374.77 1480.43C1370.37 1476.03 1367.67 1469.94 1367.67 1463.25V1441.08H1552.47V1440.98Z" fill="#E57281"/>
<path d="M1370.47 1562.82C1370.47 1578.1 1382.87 1590.49 1398.17 1590.49H1527.97C1543.27 1590.49 1555.67 1578.1 1555.67 1562.82" stroke="#9A3B82" stroke-width="5" stroke-miterlimit="10" stroke-linecap="round"/>
<path d="M1370.47 1512.98C1370.47 1528.27 1382.87 1540.65 1398.17 1540.65H1527.97C1543.27 1540.65 1555.67 1528.27 1555.67 1512.98" stroke="#9A3B82" stroke-width="5" stroke-miterlimit="10" stroke-linecap="round"/>
<path d="M1370.47 1463.15C1370.47 1478.43 1382.87 1490.81 1398.17 1490.81H1527.97C1543.27 1490.81 1555.67 1478.43 1555.67 1463.15" stroke="#9A3B82" stroke-width="5" stroke-miterlimit="10" stroke-linecap="round"/>
<path d="M1396.88 1640.32H1527.97C1543.27 1640.32 1555.67 1627.94 1555.67 1612.66V1425.8" stroke="#9A3B82" stroke-width="5" stroke-miterlimit="10" stroke-linecap="round"/>
<path d="M1433.07 1425H1419.77C1415.37 1425 1411.77 1428.59 1411.77 1432.99C1411.77 1437.38 1415.37 1440.98 1419.77 1440.98H1494.17C1502.17 1440.98 1508.77 1434.48 1508.77 1426.39C1508.77 1416.81 1516.57 1409.02 1526.17 1409.02H1538.27C1547.87 1409.02 1555.67 1416.81 1555.67 1426.39V1458.75" stroke="#9A3B82" stroke-width="5" stroke-miterlimit="10" stroke-linecap="round"/>
<path d="M2341.07 395.699L2008.17 736.667L1624.38 314.102L2043.27 19.6753L2341.07 395.699Z" fill="#3FB1B5"/>
<path d="M1995.17 753.047L1592.47 312.205L2034.07 2.99609" stroke="#FFCF2D" stroke-width="6" stroke-miterlimit="10"/>
<path d="M2001.67 378.122L2026.77 374.426C2068.07 368.334 2106.37 396.898 2112.47 438.046L2134.38 587.057C2141.78 637.294 2195.77 666.057 2241.67 644.085L2346.38 594.048" stroke="#FFCF2D" stroke-width="6" stroke-miterlimit="10"/>
<path d="M2479.88 622.612C2490.58 628.405 2500.68 634.397 2509.88 640.39C2508.28 649.079 2505.28 657.668 2500.88 665.957C2496.48 674.147 2490.87 681.438 2484.47 687.53C2474.37 683.135 2463.78 678.042 2453.08 672.249C2399.58 643.386 2362.27 608.929 2369.67 595.247C2377.07 581.564 2426.38 593.749 2479.88 622.612Z" fill="#FFCF2D"/>
<path d="M2358.27 603.336C2364.96 603.336 2370.38 597.926 2370.38 591.252C2370.38 584.578 2364.96 579.167 2358.27 579.167C2351.59 579.167 2346.17 584.578 2346.17 591.252C2346.17 597.926 2351.59 603.336 2358.27 603.336Z" stroke="#66B0F0" stroke-width="6" stroke-miterlimit="10"/>
<path d="M1168.48 1995.67V2369.8H735.575V2149.38C744.975 2173.95 855.175 2158.27 972.775 2113.32C1078.58 2072.88 1160.28 2023.14 1168.48 1995.67Z" fill="#FE5244"/>
<path d="M1168.47 1984.79C1160.17 2012.25 1078.58 2061.99 972.675 2102.44C855.175 2147.38 744.975 2163.06 735.475 2138.49C725.975 2113.92 820.975 2058.29 938.575 2013.35C1056.08 1968.41 1159.07 1951.93 1168.47 1976.5C1169.47 1979 1169.47 1981.79 1168.47 1984.79Z" fill="#66B0F0"/>
<path d="M1076.77 1736.7V2053.7L1052.87 2065.78C1028.67 2077.57 1001.57 2089.25 972.775 2100.24C919.875 2120.52 868.375 2134.8 826.975 2142.19L850.775 2048.81L889.575 1896.4C871.175 1896.4 853.775 1888.21 842.075 1874.03L682.775 1693.06C710.075 1668.19 750.875 1702.05 750.875 1702.05L735.575 1624.04C731.975 1605.57 737.375 1586.39 750.075 1572.51L798.475 1519.48C808.075 1508.99 825.375 1513.08 829.375 1526.67L863.775 1645.22C863.775 1645.22 949.175 1710.33 965.175 1710.33C983.275 1710.33 989.575 1695.65 955.775 1647.41C930.375 1611.16 955.775 1584.69 955.775 1584.69L1038.47 1654.21C1062.77 1674.78 1076.77 1704.94 1076.77 1736.7Z" fill="#BEBEBE" stroke="#FFCF2D" stroke-width="5" stroke-miterlimit="10"/>
<path d="M894.475 1718.22L833.975 1669.89L800.875 1555.83C797.075 1542.75 780.975 1538.85 771.775 1548.94" stroke="#FFCF2D" stroke-width="5" stroke-miterlimit="10"/>
<path d="M854.875 1739.5L802.275 1696.75L770.975 1588.79C767.375 1576.4 751.575 1572.71 742.875 1582.3" stroke="#FFCF2D" stroke-width="5" stroke-miterlimit="10"/>
<path d="M808.375 1750.38L750.775 1702.15" stroke="#FFCF2D" stroke-width="5" stroke-miterlimit="10"/>
<path d="M889.575 1896.4H956.875" stroke="#FFCF2D" stroke-width="5" stroke-miterlimit="10"/>
<path d="M1076.77 1972V2055.8C1046.97 2071.58 1011.47 2087.56 972.775 2102.44C919.775 2122.71 868.275 2137 826.775 2144.39L850.775 2050.9C877.375 2038.12 907.175 2025.34 938.675 2013.35C989.575 1993.98 1037.77 1979.79 1076.77 1972Z" fill="#FFCF2D"/>
<path d="M1008.97 916.74L1039.37 983.355C1042.27 1008.02 1024.67 1030.3 999.975 1033.29C975.275 1036.19 957.675 1058.56 960.575 1083.23L964.975 1120.18" stroke="#FFCF2D" stroke-width="6" stroke-miterlimit="10"/>
<path d="M1360.77 702.712L1520.97 453.028L969.975 448.633L789.475 928.626L1087.47 914.643L1360.77 702.712Z" fill="#FE5244"/>
<path d="M1527.57 434.252L951.475 427.76L760.175 931.522" stroke="#FFCF2D" stroke-width="6" stroke-miterlimit="10"/>
<path d="M1350.87 665.259C1382.87 720.09 1328.47 811.374 1229.27 869.101C1130.07 926.828 1023.77 929.125 991.775 874.294C987.375 866.804 984.675 858.714 983.375 850.025C975.375 795.194 1027.67 720.289 1113.37 670.452C1199.07 620.615 1290.07 612.026 1333.87 645.983C1340.77 651.377 1346.47 657.768 1350.87 665.259Z" fill="#66B0F0" stroke="white" stroke-width="6" stroke-miterlimit="10"/>
<path d="M1325.47 621.714L1350.87 665.259C1346.47 657.768 1340.77 651.376 1333.87 645.983C1290.07 612.026 1199.07 620.615 1113.37 670.452C1027.67 720.289 975.475 795.194 983.375 850.025C984.575 858.714 987.375 866.804 991.775 874.294L966.375 830.749C934.375 775.919 988.775 684.634 1087.97 626.907C1187.07 569.28 1293.47 566.883 1325.47 621.714Z" stroke="white" stroke-width="5" stroke-miterlimit="10" stroke-linecap="round"/>
<path d="M956.375 1254.81C952.475 1266.3 948.275 1277.28 943.875 1287.37C934.975 1287.27 925.975 1285.77 917.175 1282.78C908.275 1279.78 900.275 1275.59 893.075 1270.29C895.675 1259.61 898.875 1248.32 902.775 1236.83C922.175 1179.31 949.775 1136.76 964.575 1141.65C979.375 1146.65 975.675 1197.28 956.375 1254.81Z" fill="#FFCF2D"/>
<path d="M966.575 1141.85C973.257 1141.85 978.675 1136.44 978.675 1129.77C978.675 1123.1 973.257 1117.69 966.575 1117.69C959.892 1117.69 954.475 1123.1 954.475 1129.77C954.475 1136.44 959.892 1141.85 966.575 1141.85Z" stroke="#66B0F0" stroke-width="6" stroke-miterlimit="10"/>
<path d="M450.275 1961.02V2369.8H0.675049V1768.16C9.47505 1797.62 103.575 1859.05 220.375 1910.38C344.675 1965.21 447.675 1987.78 450.275 1961.02Z" fill="#66B0F0"/>
<path d="M450.275 1950.13C447.575 1976.9 344.675 1954.23 220.375 1899.5C103.575 1848.06 9.47503 1786.64 0.675031 1757.28C0.075031 1755.38 -0.125006 1753.58 0.0749944 1751.98C2.67499 1725.22 105.675 1747.89 229.975 1802.62C354.275 1857.35 452.975 1923.37 450.275 1950.13Z" fill="#9A3B82"/>
<path d="M184.175 1363.77C194.875 1341.8 217.175 1327.82 241.675 1327.82H312.375L316.075 1611.66L365.375 1872.53L381.075 1955.42C339.475 1946.24 282.675 1926.96 220.475 1899.6C185.275 1884.12 141.175 1861.14 111.775 1844.96V1499.6C111.775 1494.91 112.675 1490.21 114.275 1485.82L184.175 1363.77Z" fill="#A0505A"/>
<path d="M380.975 1955.42C339.375 1946.24 282.575 1926.96 220.375 1899.6C185.175 1884.11 141.075 1861.14 111.675 1844.96V1758.17C143.775 1768.46 191.275 1785.64 229.975 1802.62C282.175 1825.59 327.775 1849.26 365.375 1872.53L380.975 1955.42Z" fill="#73325A"/>
<path d="M644.275 1008.72L268.175 1699.85C254.275 1725.42 215.975 1731.51 182.675 1713.43C149.375 1695.35 133.675 1660 147.575 1634.33L523.675 943.206L644.275 1008.72Z" fill="#CEE4ED" stroke="#FFCF2D" stroke-width="5" stroke-miterlimit="10"/>
<path d="M644.205 1008.89C658.129 983.304 642.432 947.914 609.145 929.846C575.857 911.778 537.585 917.874 523.661 943.463C509.736 969.05 525.433 1004.44 558.721 1022.51C592.008 1040.57 630.28 1034.48 644.205 1008.89Z" fill="#66B0F0" stroke="#FFCF2D" stroke-width="5" stroke-miterlimit="10"/>
<path d="M398.575 1273.29L576.275 1128.37L573.475 1179.91L630.375 1194.09L500.775 1273.99C535.575 1267.99 577.475 1263.1 611.975 1265.8C653.075 1268.99 639.275 1317.03 623.875 1358.08C659.875 1354.59 780.575 1281.58 826.075 1295.36C853.875 1303.75 843.875 1360.38 835.875 1391.64C847.475 1392.24 906.175 1391.54 906.175 1391.54L875.175 1419.8L892.175 1448.07C826.175 1450.96 825.375 1440.58 833.675 1393.84C835.075 1343 778.675 1391.84 658.575 1420.5C599.075 1434.68 606.775 1396.03 621.475 1355.78C615.575 1337.31 571.475 1317.23 429.775 1354.19L398.575 1273.29Z" fill="#FE5244"/>
<path d="M401.175 1361.58C430.17 1361.58 453.675 1338.11 453.675 1309.14C453.675 1280.19 430.17 1256.71 401.175 1256.71C372.18 1256.71 348.675 1280.19 348.675 1309.14C348.675 1338.11 372.18 1361.58 401.175 1361.58Z" fill="white" stroke="#FE5244" stroke-width="5" stroke-miterlimit="10"/>
<path d="M383.075 1327.82V1331.12C383.075 1364.67 355.875 1391.94 322.175 1391.94H258.275V1327.82H383.075Z" fill="#A0505A"/>
<path d="M460.875 1450.96L443.975 1490.51L424.275 1536.75L413.575 1561.82L397.275 1600.07C396.875 1601.07 396.275 1602.17 395.775 1603.07C395.775 1603.17 395.675 1603.17 395.675 1603.27C390.475 1612.26 380.375 1617.85 369.275 1617.85H239.775C224.075 1617.85 213.375 1602.97 219.175 1589.29L228.575 1567.22L249.275 1518.68L267.075 1476.83L282.775 1440.08C287.375 1429.29 298.475 1422.2 310.875 1422.2H440.375C455.975 1422.4 466.675 1437.28 460.875 1450.96Z" fill="#A0505A"/>
<path d="M272.475 1477.03C277.875 1471.04 285.675 1467.44 294.075 1467.44H417.775C430.775 1467.44 440.175 1478.63 438.875 1490.51" stroke="#73325A" stroke-width="5" stroke-miterlimit="10" stroke-linecap="round"/>
<path d="M255.675 1518.88C260.975 1513.58 268.275 1510.49 276.175 1510.49H399.875C414.075 1510.49 423.875 1523.67 420.275 1536.66" stroke="#73325A" stroke-width="5" stroke-miterlimit="10" stroke-linecap="round"/>
<path d="M236.275 1567.32C241.575 1562.32 248.675 1559.43 256.275 1559.43H379.975C394.575 1559.43 404.675 1573.61 399.975 1586.99" stroke="#73325A" stroke-width="5" stroke-miterlimit="10" stroke-linecap="round"/>
<path d="M683.575 289.335C691.875 280.446 700.175 272.156 708.375 264.766C716.375 268.461 723.975 273.554 730.875 279.946C737.675 286.338 743.375 293.529 747.675 301.219C740.875 309.908 733.275 318.797 724.975 327.686C683.575 372.13 640.875 399.595 629.375 389.008C617.975 378.422 642.175 333.778 683.575 289.335Z" fill="#FFCF2D"/>
<path d="M392.975 641.289L379.775 649.479C331.875 679.141 238.575 615.322 171.475 506.959C104.275 398.597 88.6752 286.838 136.475 257.176L150.075 248.786L230.975 486.485L392.975 641.289Z" fill="#66B0F0"/>
<path d="M526.975 769.426L392.975 641.288L230.875 486.384L149.975 248.785L77.675 36.3545L414.375 307.311L526.975 769.426Z" fill="#66B0F0" stroke="white" stroke-width="6" stroke-miterlimit="10"/>
<path d="M537.475 756.743L425.675 295.427L84.7749 27.2661" stroke="#9A3B82" stroke-width="6" stroke-miterlimit="10"/>
<path d="M349.075 442.74C340.475 407.186 362.375 371.331 397.975 362.742C431.775 354.552 466.075 373.828 476.675 406.786L504.775 497.371C520.275 547.508 592.575 543.613 602.675 492.078L618.875 408.883" stroke="#FFCF2D" stroke-width="6" stroke-miterlimit="10"/>
<path d="M622.675 411.181C629.358 411.181 634.775 405.77 634.775 399.096C634.775 392.421 629.358 387.011 622.675 387.011C615.993 387.011 610.575 392.421 610.575 399.096C610.575 405.77 615.993 411.181 622.675 411.181Z" stroke="#66B0F0" stroke-width="6" stroke-miterlimit="10"/>
</svg>
