<svg width="3414" height="2373" viewBox="0 0 3414 2373" fill="none" xmlns="http://www.w3.org/2000/svg">
<path d="M3249.67 2042.9V2372.8H2753.38L2850.07 1866.2C2846.97 1886.2 2908.87 1923.7 2993.57 1961.3C3023.97 1974.8 3057.87 1988.2 3094.07 2000.9C3152.47 2021.5 3206.27 2035.5 3249.67 2042.9C3249.67 2042.9 3249.57 2042.9 3249.67 2042.9Z" fill="#9A3B82"/>
<path d="M3249.67 1943.7V2032C3206.27 2024.6 3152.57 2010.7 3093.97 1990.1C2955.87 1941.6 2849.57 1881.7 2855.57 1854.8C2855.67 1854.4 2855.78 1854 2855.88 1853.7C2865.18 1827.4 2987.47 1845.6 3127.47 1894.7C3172.47 1910.5 3213.07 1926.8 3247.17 1942.5C3247.97 1942.9 3248.77 1943.3 3249.67 1943.7Z" fill="#FFCF2D"/>
<path d="M3181.57 1179.3C3133.17 1179.3 3093.97 1218.5 3093.97 1266.8V1506.6C3093.97 1554.9 3054.77 1594.1 3006.47 1594.1H2655.67C2704.07 1594.1 2743.17 1554.9 2743.17 1506.6V1266.8C2743.17 1218.4 2782.37 1179.3 2830.67 1179.3H3181.57V1179.3Z" fill="white" stroke="#FFCF2D" stroke-width="5" stroke-miterlimit="10"/>
<path d="M3028.17 1303.4H2804.77V1510.7H3028.17V1303.4Z" fill="white" stroke="#FFCF2D" stroke-width="5" stroke-miterlimit="10"/>
<path d="M3028.07 1333H2804.77" stroke="#FFCF2D" stroke-width="5" stroke-miterlimit="10"/>
<path d="M3028.07 1362.6H2804.77" stroke="#FFCF2D" stroke-width="5" stroke-miterlimit="10"/>
<path d="M3028.07 1392.3H2804.77" stroke="#FFCF2D" stroke-width="5" stroke-miterlimit="10"/>
<path d="M3028.07 1421.9H2804.77" stroke="#FFCF2D" stroke-width="5" stroke-miterlimit="10"/>
<path d="M3028.07 1451.6H2804.77" stroke="#FFCF2D" stroke-width="5" stroke-miterlimit="10"/>
<path d="M3028.07 1481.2H2804.77" stroke="#FFCF2D" stroke-width="5" stroke-miterlimit="10"/>
<path d="M3093.97 1266.8C3093.97 1218.7 3132.77 1179.7 3180.67 1179.3C3228.67 1179.7 3267.37 1218.7 3267.37 1266.8H3093.97Z" fill="#66B0F0" stroke="#FFCF2D" stroke-width="5" stroke-miterlimit="10"/>
<path d="M3006.88 1596.3C3006.77 1596.3 3006.57 1596.3 3006.47 1596.3H2656.97C2656.77 1596.3 2656.58 1596.3 2656.38 1596.3C2620.47 1595.8 2589.77 1573.6 2576.77 1542.2H2926.97C2940.07 1573.6 2970.78 1595.8 3006.88 1596.3Z" fill="#FFCF2D"/>
<path d="M2819.37 1279.6H2778.97V1247.2H2797.97V1265.2C2797.97 1265.6 2798.17 1265.9 2798.37 1266L2798.47 1266.1L2819.37 1279.6Z" fill="#FE5244"/>
<path d="M2835.07 1258.4V1262.7C2835.07 1263.5 2834.97 1264.3 2834.97 1265.1C2834.97 1265.3 2834.88 1265.6 2834.88 1265.8C2834.77 1266.2 2834.77 1266.6 2834.67 1267C2833.57 1272.5 2830.27 1277 2826.17 1278.7C2825.87 1278.8 2825.57 1278.9 2825.27 1279C2824.77 1279.2 2824.17 1279.3 2823.67 1279.4C2823.47 1279.4 2823.27 1279.5 2823.07 1279.5L2800.17 1264.6C2800.37 1261.1 2802.57 1258.3 2805.17 1258.3H2835.07V1258.4Z" fill="#FE5244"/>
<path d="M3058.17 1247.2V1279.6H3017.77L3038.57 1266.1L3038.67 1266C3038.77 1265.9 3038.77 1265.9 3038.87 1265.9C3038.87 1265.8 3038.97 1265.8 3038.97 1265.7C3038.97 1265.7 3038.97 1265.6 3039.07 1265.6C3039.07 1265.5 3039.07 1265.5 3039.17 1265.5C3039.17 1265.5 3039.17 1265.5 3039.17 1265.4C3039.17 1265.3 3039.17 1265.3 3039.17 1265.2V1247.2H3058.17V1247.2Z" fill="#FE5244"/>
<path d="M3037.17 1264.7L3014.27 1279.6C3013.67 1279.5 3013.07 1279.4 3012.47 1279.3C3012.27 1279.2 3012.07 1279.2 3011.87 1279.1C3011.57 1279 3011.37 1278.9 3011.07 1278.8C3010.87 1278.7 3010.57 1278.6 3010.37 1278.5C3007.27 1276.8 3004.67 1273.5 3003.37 1269.4C3003.17 1268.8 3002.97 1268.2 3002.87 1267.6C3002.77 1267.4 3002.77 1267.1 3002.67 1266.8C3002.47 1265.5 3002.27 1264.2 3002.27 1262.8V1258.5H3032.27C3034.77 1258.4 3036.97 1261.2 3037.17 1264.7Z" fill="#FE5244"/>
<path d="M3037.17 1230.8V1259C3036.97 1258.8 3036.77 1258.5 3036.57 1258.3C3036.17 1257.9 3035.77 1257.6 3035.37 1257.3C3034.37 1256.7 3033.27 1256.3 3032.17 1256.3H2805.07C2803.87 1256.3 2802.77 1256.7 2801.87 1257.3C2801.47 1257.6 2801.07 1257.9 2800.67 1258.3C2800.47 1258.5 2800.27 1258.7 2800.07 1259V1230.8C2800.07 1227 2802.27 1224 2805.07 1224H3032.17C3034.87 1224 3037.17 1227.1 3037.17 1230.8Z" fill="#FE5244"/>
<path d="M3249.67 1640V2032H3249.57C3206.17 2024.6 3152.47 2010.7 3093.88 1990.1C3057.67 1977.4 3023.77 1963.9 2993.38 1950.5L3009.67 1859.5L3037.38 1705C2950.47 1677.8 2936.38 1594.2 2936.38 1594.2H3006.27C3054.67 1594.2 3093.77 1555 3093.77 1506.7V1477.9H3048.88C3017.38 1477.9 2991.77 1446.9 2991.77 1415.4V1405.2H3091.57C3110.07 1405.2 3127.47 1413.9 3138.57 1428.7L3211.57 1526.2C3236.37 1559 3249.67 1598.9 3249.67 1640Z" fill="#A0505A"/>
<path d="M3249.67 1943.7V2032H3249.57C3206.17 2024.6 3152.47 2010.7 3093.88 1990.1C3057.67 1977.4 3023.77 1963.9 2993.38 1950.5L3009.67 1859.5C3045.67 1868.3 3085.67 1880.2 3127.27 1894.8C3172.27 1910.6 3212.88 1926.9 3246.88 1942.6C3247.98 1942.9 3248.77 1943.3 3249.67 1943.7Z" fill="#73325A"/>
<path d="M3098.38 1477.9H3050.18C3018.68 1477.9 2993.08 1446.9 2993.08 1415.4V1405.2H3098.38V1477.9Z" fill="#A0505A"/>
<path d="M3068.08 1575.3C3068.08 1575.3 3137.58 1601.4 3143.88 1691.1" stroke="#73325A" stroke-width="5" stroke-miterlimit="10"/>
<path d="M3037.58 1707.1H3084.88" stroke="#73325A" stroke-width="5" stroke-miterlimit="10"/>
<path d="M2993.47 585.9L3025.17 564.9C3066.47 537.6 3121.77 564.6 3125.67 613.9L3132.57 701.2C3136.37 749.1 3189.07 776.4 3230.37 751.9L3250.37 740" stroke="#FFCF2D" stroke-width="6" stroke-miterlimit="10"/>
<path d="M2532.77 261.601L2940.07 498.001L3145.17 958.501L2909.88 800.001L2654.17 500.401L2532.77 261.601Z" fill="#9A3B82"/>
<path d="M2533.88 245.7L2949.77 487.2L3159.27 957.4" stroke="#FFCF2D" stroke-width="6" stroke-miterlimit="10"/>
<path d="M2905.62 810.171C2924.66 794.103 2881.89 712.144 2810.1 627.111C2738.31 542.078 2664.68 486.171 2645.65 502.239C2626.62 518.307 2669.38 600.266 2741.17 685.299C2812.96 770.332 2886.59 826.239 2905.62 810.171Z" fill="white"/>
<path d="M2894.06 815.086C2912.71 799.338 2870.76 718.974 2800.36 635.586C2729.96 552.199 2657.77 497.366 2639.11 513.114C2620.46 528.861 2662.41 609.226 2732.81 692.613C2803.21 776 2875.4 830.833 2894.06 815.086Z" fill="white" stroke="#FFCF2D" stroke-width="5" stroke-miterlimit="10"/>
<path d="M2943.67 777.8L2904.88 810.5C2912.07 804.4 2910.47 789 2901.77 767.5C2887.47 732.1 2853.97 680.4 2809.38 627.4C2764.67 574.5 2719.27 532.8 2686.77 512.8C2667.07 500.6 2652.07 496.4 2644.88 502.5L2683.67 469.8C2702.67 453.7 2779.67 506.3 2851.47 591.4C2923.27 676.5 2962.77 761.8 2943.67 777.8Z" fill="#FFCF2D"/>
<path d="M3358.17 652.7C3369.17 647.4 3379.87 642.7 3390.17 638.8C3396.27 645.2 3401.57 652.7 3405.67 661.1C3409.77 669.5 3412.37 678.3 3413.57 687C3404.07 692.6 3393.77 698.2 3382.87 703.5C3328.17 730 3278.37 740.1 3271.57 726.1C3264.67 712 3303.47 679.2 3358.17 652.7Z" fill="#FFCF2D"/>
<path d="M3261.57 745.1C3268.26 745.1 3273.67 739.683 3273.67 733C3273.67 726.318 3268.26 720.9 3261.57 720.9C3254.89 720.9 3249.47 726.318 3249.47 733C3249.47 739.683 3254.89 745.1 3261.57 745.1Z" stroke="#9A3B82" stroke-width="6" stroke-miterlimit="10"/>
<path d="M2547.47 1949.4V2372.8H2065.17L2126.97 1913C2126.97 1931.6 2221.07 1954.8 2337.17 1964.8C2453.27 1974.9 2547.47 1968 2547.47 1949.4Z" fill="#66B0F0"/>
<path d="M2545.27 1938.5C2545.27 1957.1 2451.97 1964 2336.97 1953.9C2221.97 1943.8 2128.67 1920.6 2128.67 1902.1C2128.67 1883.5 2221.97 1876.6 2336.97 1886.7C2452.07 1896.7 2545.27 1919.9 2545.27 1938.5Z" fill="#3FB1B5"/>
<path d="M2612.17 999.9L2641.38 1018.8C2670.58 1041.4 2630.17 1142.4 2551.17 1244.2C2472.17 1346.1 2384.47 1410.3 2355.27 1387.7L2340.88 1374.1" stroke="#66B0F0" stroke-width="6" stroke-miterlimit="10"/>
<path d="M2206.67 1474.3L2538.17 1170.9L2654.07 818L2300.27 1139.5L2206.67 1474.3Z" fill="#66B0F0"/>
<path d="M2189.77 1511.1L2550.57 1180.9L2668.27 822.4" stroke="#FE5244" stroke-width="6" stroke-miterlimit="10" stroke-linecap="round"/>
<path d="M2380.57 1169.9L2065.77 1471C2050.47 1485.6 2025.47 1471.8 2029.77 1451L2038.57 1408.3C2042.57 1389 2020.67 1374.9 2004.77 1386.5L1900.77 1462.2" stroke="#FE5244" stroke-width="6" stroke-miterlimit="10"/>
<path d="M1816.07 1570C1806.77 1577.8 1797.47 1585 1788.47 1591.3C1780.97 1586.6 1774.07 1580.7 1767.97 1573.5C1761.97 1566.3 1757.27 1558.5 1753.97 1550.3C1761.77 1542.5 1770.37 1534.6 1779.67 1526.7C1826.17 1487.6 1871.97 1465.5 1882.07 1477.5C1892.07 1489.5 1862.57 1530.9 1816.07 1570Z" fill="#FFCF2D"/>
<path d="M1891.07 1481.6C1897.76 1481.6 1903.17 1476.18 1903.17 1469.5C1903.17 1462.82 1897.76 1457.4 1891.07 1457.4C1884.39 1457.4 1878.97 1462.82 1878.97 1469.5C1878.97 1476.18 1884.39 1481.6 1891.07 1481.6Z" stroke="#FE5244" stroke-width="6" stroke-miterlimit="10"/>
<path d="M2395.47 1630.7V1957.7C2376.97 1956.9 2357.27 1955.7 2336.97 1953.9C2262.07 1947.4 2196.47 1935.2 2159.77 1922.4L2165.27 1886.2L2183.67 1764.7H2159.87C2125.97 1764.7 2098.57 1737.3 2098.57 1703.4V1583C2098.57 1559.2 2107.17 1536.3 2122.87 1518.4L2201.17 1428.9C2206.27 1423.1 2215.87 1426.7 2215.87 1434.4V1556.1C2215.87 1570.7 2210.67 1584.8 2201.17 1595.9L2194.17 1604.1H2279.17C2291.47 1604.1 2298.67 1590.4 2291.77 1580.2C2281.27 1564.9 2267.47 1543.1 2254.37 1517.9C2228.27 1468 2273.57 1440.1 2273.57 1440.1L2377.27 1574.6C2389.07 1590.9 2395.47 1610.6 2395.47 1630.7Z" fill="#FFCF2D"/>
<path d="M2215.88 1427.9V1556.1C2215.88 1570.7 2210.67 1584.8 2201.17 1595.9L2194.17 1604.1" stroke="white" stroke-width="5" stroke-miterlimit="10" stroke-linecap="round"/>
<path d="M2194.17 1604L2137.97 1667.1" stroke="white" stroke-width="5" stroke-miterlimit="10" stroke-linecap="round"/>
<path d="M2215.87 1500.4C2215.87 1515 2210.67 1529.1 2201.17 1540.2L2194.17 1548.4L2138.07 1611.4" stroke="white" stroke-width="5" stroke-miterlimit="10" stroke-linecap="round"/>
<path d="M2215.87 1444.8C2215.87 1459.4 2210.67 1473.5 2201.17 1484.6L2194.17 1492.8L2138.07 1555.8" stroke="white" stroke-width="5" stroke-miterlimit="10" stroke-linecap="round"/>
<path d="M2183.67 1768H2226.77" stroke="white" stroke-width="5" stroke-miterlimit="10" stroke-linecap="round"/>
<path d="M2395.47 1893.1V1957.7C2376.97 1956.9 2357.27 1955.7 2336.97 1953.9C2262.07 1947.4 2196.47 1935.2 2159.77 1922.4L2165.27 1886.2C2202.87 1880.7 2265.77 1880.4 2337.07 1886.6C2357.27 1888.5 2376.87 1890.6 2395.47 1893.1Z" fill="#FE5244"/>
<path d="M1911.47 2372.8H1353.77V1819.9C1353.77 1843.5 1445.47 1862.6 1558.67 1862.6C1671.87 1862.6 1763.57 1843.5 1763.57 1819.9V1819.8L1911.47 2372.8Z" fill="#3FB1B5"/>
<path d="M1762.07 1808.9C1762.07 1832.6 1671.38 1851.7 1559.38 1851.7C1447.38 1851.7 1356.67 1832.6 1356.67 1809V1808.9C1356.97 1785.4 1447.57 1766.3 1559.38 1766.3C1671.18 1766.3 1761.87 1785.4 1762.07 1808.9Z" fill="#66B0F0"/>
<path d="M1762.07 1809.3C1761.37 1832.7 1670.88 1851.7 1559.38 1851.7C1537.88 1851.7 1517.27 1851 1497.88 1849.7V1644H1392.07C1378.57 1644 1367.67 1633.1 1367.67 1619.6V1603.1C1367.67 1595.7 1370.97 1589.1 1376.17 1584.6C1370.97 1580.1 1367.67 1573.5 1367.67 1566.1V1549.6C1367.67 1543.1 1370.27 1537.1 1374.47 1532.8C1370.27 1528.4 1367.67 1522.5 1367.67 1516V1499.5C1367.67 1492.8 1370.37 1486.7 1374.77 1482.2C1370.37 1477.8 1367.67 1471.7 1367.67 1465V1435.1C1367.67 1421.6 1378.57 1410.7 1392.07 1410.7H1527.17C1531.67 1408.1 1538.97 1398.9 1526.57 1393.5L1497.57 1386.7C1474.57 1375.2 1459.97 1356.1 1459.97 1330.3H1561.97C1579.07 1330.3 1594.37 1341.1 1600.17 1357.2L1759.57 1802.2L1762.07 1809.3Z" fill="#E57281"/>
<path d="M1762.57 1809.5C1762.27 1809.2 1762.07 1809 1762.07 1809C1762.07 1832.6 1671.38 1851.7 1559.38 1851.7C1537.88 1851.7 1517.27 1851 1497.88 1849.7V1768.4C1517.27 1767.1 1537.98 1766.4 1559.38 1766.4C1660.38 1766.4 1744.17 1782 1759.57 1802.3C1759.97 1802.8 1761.07 1805.5 1762.57 1809.5Z" fill="#9A3B82"/>
<path d="M1529.47 1132.7V1213.8C1529.47 1257.9 1493.77 1293.6 1449.67 1293.6C1405.57 1293.6 1369.88 1257.9 1369.88 1213.8V1132.7C1369.88 1152.5 1405.57 1168.5 1449.67 1168.5C1493.77 1168.5 1529.47 1152.5 1529.47 1132.7Z" fill="white"/>
<path d="M1449.67 1168.5C1493.75 1168.5 1529.47 1152.47 1529.47 1132.7C1529.47 1112.93 1493.75 1096.9 1449.67 1096.9C1405.6 1096.9 1369.88 1112.93 1369.88 1132.7C1369.88 1152.47 1405.6 1168.5 1449.67 1168.5Z" fill="#FFCF2D"/>
<path d="M1529.47 994.1V1213.7C1529.47 1243.3 1513.37 1269.1 1489.47 1282.9C1489.47 1282.9 1489.48 1282.9 1489.38 1282.9C1477.68 1289.6 1464.07 1293.5 1449.67 1293.5C1435.27 1293.5 1421.77 1289.7 1410.07 1283C1409.97 1283 1409.98 1282.9 1409.88 1282.9C1385.98 1269.1 1369.88 1243.3 1369.88 1213.7V994.1H1529.47Z" stroke="#FFCF2D" stroke-width="6" stroke-miterlimit="10"/>
<path d="M1449.67 1029.9C1494.24 1029.9 1530.37 1013.87 1530.37 994.1C1530.37 974.328 1494.24 958.3 1449.67 958.3C1405.11 958.3 1368.97 974.328 1368.97 994.1C1368.97 1013.87 1405.11 1029.9 1449.67 1029.9Z" fill="white" stroke="#FFCF2D" stroke-width="5" stroke-miterlimit="10"/>
<path d="M1449.67 999.5C1456.19 999.5 1461.47 994.217 1461.47 987.7C1461.47 981.183 1456.19 975.9 1449.67 975.9C1443.16 975.9 1437.88 981.183 1437.88 987.7C1437.88 994.217 1443.16 999.5 1449.67 999.5Z" fill="#FFCF2D"/>
<path d="M1423.67 1240.5C1429.42 1240.5 1434.07 1235.84 1434.07 1230.1C1434.07 1224.36 1429.42 1219.7 1423.67 1219.7C1417.93 1219.7 1413.27 1224.36 1413.27 1230.1C1413.27 1235.84 1417.93 1240.5 1423.67 1240.5Z" fill="white" stroke="#FFCF2D" stroke-width="5" stroke-miterlimit="10"/>
<path d="M1486.07 1141.3C1490.82 1141.3 1494.67 1137.45 1494.67 1132.7C1494.67 1127.95 1490.82 1124.1 1486.07 1124.1C1481.33 1124.1 1477.47 1127.95 1477.47 1132.7C1477.47 1137.45 1481.33 1141.3 1486.07 1141.3Z" fill="white"/>
<path d="M1402.87 1205.8C1407.62 1205.8 1411.47 1201.95 1411.47 1197.2C1411.47 1192.45 1407.62 1188.6 1402.87 1188.6C1398.12 1188.6 1394.27 1192.45 1394.27 1197.2C1394.27 1201.95 1398.12 1205.8 1402.87 1205.8Z" fill="#FFCF2D"/>
<path d="M1526.37 1700H1372.97C1370.17 1700 1369.37 1696.3 1371.77 1695L1425.37 1674.7C1433.77 1671.5 1439.37 1663.4 1439.37 1654.4V1334.8C1439.37 1313.6 1428.37 1293.7 1410.07 1283C1421.77 1289.7 1435.27 1293.5 1449.67 1293.5C1464.17 1293.5 1477.67 1289.6 1489.37 1282.9C1470.97 1293.5 1459.97 1313.5 1459.97 1334.7V1654.3C1459.97 1663.3 1465.57 1671.4 1473.97 1674.6L1527.57 1694.9C1529.97 1696.3 1529.17 1700 1526.37 1700Z" fill="white" stroke="#FFCF2D" stroke-width="5" stroke-miterlimit="10"/>
<path d="M1392.87 874C1400.39 874 1406.47 867.911 1406.47 860.4C1406.47 852.889 1400.39 846.8 1392.87 846.8C1385.36 846.8 1379.27 852.889 1379.27 860.4C1379.27 867.911 1385.36 874 1392.87 874Z" fill="#FFCF2D"/>
<path d="M1486.07 895.9C1492.59 895.9 1497.87 890.617 1497.87 884.1C1497.87 877.583 1492.59 872.3 1486.07 872.3C1479.56 872.3 1474.27 877.583 1474.27 884.1C1474.27 890.617 1479.56 895.9 1486.07 895.9Z" fill="white" stroke="#FFCF2D" stroke-width="5" stroke-miterlimit="10"/>
<path d="M1428.27 941.9C1433.02 941.9 1436.88 938.05 1436.88 933.3C1436.88 928.551 1433.02 924.7 1428.27 924.7C1423.53 924.7 1419.67 928.551 1419.67 933.3C1419.67 938.05 1423.53 941.9 1428.27 941.9Z" fill="white" stroke="#FFCF2D" stroke-width="5" stroke-miterlimit="10"/>
<path d="M1423.77 837.2C1427.7 837.2 1430.88 834.021 1430.88 830.1C1430.88 826.179 1427.7 823 1423.77 823C1419.85 823 1416.67 826.179 1416.67 830.1C1416.67 834.021 1419.85 837.2 1423.77 837.2Z" fill="#FFCF2D"/>
<path d="M1552.47 1442.8V1644.1H1392.07C1378.57 1644.1 1367.67 1633.2 1367.67 1619.7V1603.2C1367.67 1595.8 1370.97 1589.2 1376.17 1584.7C1370.97 1580.2 1367.67 1573.6 1367.67 1566.2V1549.7C1367.67 1543.2 1370.27 1537.2 1374.47 1532.9C1370.27 1528.5 1367.67 1522.6 1367.67 1516.1V1499.6C1367.67 1492.9 1370.37 1486.8 1374.77 1482.3C1370.37 1477.9 1367.67 1471.8 1367.67 1465.1V1442.9H1552.47V1442.8Z" fill="#E57281"/>
<path d="M1370.47 1564.8C1370.47 1580.1 1382.87 1592.5 1398.17 1592.5H1527.97C1543.27 1592.5 1555.67 1580.1 1555.67 1564.8" stroke="#9A3B82" stroke-width="5" stroke-miterlimit="10" stroke-linecap="round"/>
<path d="M1370.47 1514.9C1370.47 1530.2 1382.87 1542.6 1398.17 1542.6H1527.97C1543.27 1542.6 1555.67 1530.2 1555.67 1514.9" stroke="#9A3B82" stroke-width="5" stroke-miterlimit="10" stroke-linecap="round"/>
<path d="M1370.47 1465C1370.47 1480.3 1382.87 1492.7 1398.17 1492.7H1527.97C1543.27 1492.7 1555.67 1480.3 1555.67 1465" stroke="#9A3B82" stroke-width="5" stroke-miterlimit="10" stroke-linecap="round"/>
<path d="M1396.88 1642.4H1527.97C1543.27 1642.4 1555.67 1630 1555.67 1614.7V1427.6" stroke="#9A3B82" stroke-width="5" stroke-miterlimit="10" stroke-linecap="round"/>
<path d="M1433.07 1426.8H1419.77C1415.37 1426.8 1411.77 1430.4 1411.77 1434.8C1411.77 1439.2 1415.37 1442.8 1419.77 1442.8H1494.17C1502.17 1442.8 1508.77 1436.3 1508.77 1428.2C1508.77 1418.6 1516.57 1410.8 1526.17 1410.8H1538.27C1547.87 1410.8 1555.67 1418.6 1555.67 1428.2V1460.6" stroke="#9A3B82" stroke-width="5" stroke-miterlimit="10" stroke-linecap="round"/>
<path d="M2341.07 396.2L2008.17 737.6L1624.38 314.5L2043.27 19.7002L2341.07 396.2Z" fill="#3FB1B5"/>
<path d="M1995.17 754L1592.47 312.6L2034.07 3" stroke="#FFCF2D" stroke-width="6" stroke-miterlimit="10"/>
<path d="M2001.67 378.6L2026.77 374.9C2068.07 368.8 2106.37 397.4 2112.47 438.6L2134.38 587.8C2141.78 638.1 2195.77 666.9 2241.67 644.9L2346.38 594.8" stroke="#FFCF2D" stroke-width="6" stroke-miterlimit="10"/>
<path d="M2479.88 623.4C2490.58 629.2 2500.68 635.2 2509.88 641.2C2508.28 649.9 2505.28 658.5 2500.88 666.8C2496.48 675 2490.87 682.3 2484.47 688.4C2474.37 684 2463.78 678.9 2453.08 673.1C2399.58 644.2 2362.27 609.7 2369.67 596C2377.07 582.3 2426.38 594.5 2479.88 623.4Z" fill="#FFCF2D"/>
<path d="M2358.27 604.1C2364.96 604.1 2370.38 598.683 2370.38 592C2370.38 585.318 2364.96 579.9 2358.27 579.9C2351.59 579.9 2346.17 585.318 2346.17 592C2346.17 598.683 2351.59 604.1 2358.27 604.1Z" stroke="#66B0F0" stroke-width="6" stroke-miterlimit="10"/>
<path d="M1168.48 1998.2V2372.8H735.575V2152.1C744.975 2176.7 855.175 2161 972.775 2116C1078.58 2075.5 1160.28 2025.7 1168.48 1998.2Z" fill="#FE5244"/>
<path d="M1168.47 1987.3C1160.17 2014.8 1078.58 2064.6 972.675 2105.1C855.175 2150.1 744.975 2165.8 735.475 2141.2C725.975 2116.6 820.975 2060.9 938.575 2015.9C1056.08 1970.9 1159.07 1954.4 1168.47 1979C1169.47 1981.5 1169.47 1984.3 1168.47 1987.3Z" fill="#66B0F0"/>
<path d="M1076.77 1738.9V2056.3L1052.87 2068.4C1028.67 2080.2 1001.57 2091.9 972.775 2102.9C919.875 2123.2 868.375 2137.5 826.975 2144.9L850.775 2051.4L889.575 1898.8C871.175 1898.8 853.775 1890.6 842.075 1876.4L682.775 1695.2C710.075 1670.3 750.875 1704.2 750.875 1704.2L735.575 1626.1C731.975 1607.6 737.375 1588.4 750.075 1574.5L798.475 1521.4C808.075 1510.9 825.375 1515 829.375 1528.6L863.775 1647.3C863.775 1647.3 949.175 1712.5 965.175 1712.5C983.275 1712.5 989.575 1697.8 955.775 1649.5C930.375 1613.2 955.775 1586.7 955.775 1586.7L1038.47 1656.3C1062.77 1676.9 1076.77 1707.1 1076.77 1738.9Z" fill="white" stroke="#FFCF2D" stroke-width="5" stroke-miterlimit="10"/>
<path d="M894.475 1720.4L833.975 1672L800.875 1557.8C797.075 1544.7 780.975 1540.8 771.775 1550.9" stroke="#FFCF2D" stroke-width="5" stroke-miterlimit="10"/>
<path d="M854.875 1741.7L802.275 1698.9L770.975 1590.8C767.375 1578.4 751.575 1574.7 742.875 1584.3" stroke="#FFCF2D" stroke-width="5" stroke-miterlimit="10"/>
<path d="M808.375 1752.6L750.775 1704.3" stroke="#FFCF2D" stroke-width="5" stroke-miterlimit="10"/>
<path d="M889.575 1898.8H956.875" stroke="#FFCF2D" stroke-width="5" stroke-miterlimit="10"/>
<path d="M1076.77 1974.5V2058.4C1046.97 2074.2 1011.47 2090.2 972.775 2105.1C919.775 2125.4 868.275 2139.7 826.775 2147.1L850.775 2053.5C877.375 2040.7 907.175 2027.9 938.675 2015.9C989.575 1996.5 1037.77 1982.3 1076.77 1974.5Z" fill="#FFCF2D"/>
<path d="M1008.97 917.9L1039.37 984.6C1042.27 1009.3 1024.67 1031.6 999.975 1034.6C975.275 1037.5 957.675 1059.9 960.575 1084.6L964.975 1121.6" stroke="#FFCF2D" stroke-width="6" stroke-miterlimit="10"/>
<path d="M1360.77 703.601L1520.97 453.601L969.975 449.201L789.475 929.801L1087.47 915.801L1360.77 703.601Z" fill="#FE5244"/>
<path d="M1527.57 434.801L951.475 428.301L760.175 932.701" stroke="#FFCF2D" stroke-width="6" stroke-miterlimit="10"/>
<path d="M1350.87 666.101C1382.87 721.001 1328.47 812.401 1229.27 870.201C1130.07 928.001 1023.77 930.301 991.775 875.401C987.375 867.901 984.675 859.801 983.375 851.101C975.375 796.201 1027.67 721.201 1113.37 671.301C1199.07 621.401 1290.07 612.801 1333.87 646.801C1340.77 652.201 1346.47 658.601 1350.87 666.101Z" fill="#66B0F0" stroke="white" stroke-width="6" stroke-miterlimit="10"/>
<path d="M1325.47 622.501L1350.87 666.101C1346.47 658.601 1340.77 652.201 1333.87 646.801C1290.07 612.801 1199.07 621.401 1113.37 671.301C1027.67 721.201 975.475 796.201 983.375 851.101C984.575 859.801 987.375 867.901 991.775 875.401L966.375 831.801C934.375 776.901 988.775 685.501 1087.97 627.701C1187.07 570.001 1293.47 567.601 1325.47 622.501Z" stroke="white" stroke-width="5" stroke-miterlimit="10" stroke-linecap="round"/>
<path d="M956.375 1256.4C952.475 1267.9 948.275 1278.9 943.875 1289C934.975 1288.9 925.975 1287.4 917.175 1284.4C908.275 1281.4 900.275 1277.2 893.075 1271.9C895.675 1261.2 898.875 1249.9 902.775 1238.4C922.175 1180.8 949.775 1138.2 964.575 1143.1C979.375 1148.1 975.675 1198.8 956.375 1256.4Z" fill="#FFCF2D"/>
<path d="M966.575 1143.3C973.257 1143.3 978.675 1137.88 978.675 1131.2C978.675 1124.52 973.257 1119.1 966.575 1119.1C959.892 1119.1 954.475 1124.52 954.475 1131.2C954.475 1137.88 959.892 1143.3 966.575 1143.3Z" stroke="#66B0F0" stroke-width="6" stroke-miterlimit="10"/>
<path d="M450.275 1963.5V2372.8H0.675049V1770.4C9.47505 1799.9 103.575 1861.4 220.375 1912.8C344.675 1967.7 447.675 1990.3 450.275 1963.5Z" fill="#66B0F0"/>
<path d="M450.275 1952.6C447.575 1979.4 344.675 1956.7 220.375 1901.9C103.575 1850.4 9.47503 1788.9 0.675031 1759.5C0.0750309 1757.6 -0.125006 1755.8 0.0749943 1754.2C2.67499 1727.4 105.675 1750.1 229.975 1804.9C354.275 1859.7 452.975 1925.8 450.275 1952.6Z" fill="#9A3B82"/>
<path d="M184.175 1365.5C194.875 1343.5 217.175 1329.5 241.675 1329.5H312.375L316.075 1613.7L365.375 1874.9L381.075 1957.9C339.475 1948.7 282.675 1929.4 220.475 1902C185.275 1886.5 141.175 1863.5 111.775 1847.3V1501.5C111.775 1496.8 112.675 1492.1 114.275 1487.7L184.175 1365.5Z" fill="#A0505A"/>
<path d="M380.975 1957.9C339.375 1948.7 282.575 1929.4 220.375 1902C185.175 1886.5 141.075 1863.5 111.675 1847.3V1760.4C143.775 1770.7 191.275 1787.9 229.975 1804.9C282.175 1827.9 327.775 1851.6 365.375 1874.9L380.975 1957.9Z" fill="#73325A"/>
<path d="M644.275 1010L268.175 1702C254.275 1727.6 215.975 1733.7 182.675 1715.6C149.375 1697.5 133.675 1662.1 147.575 1636.4L523.675 944.4L644.275 1010Z" fill="white" stroke="#FFCF2D" stroke-width="5" stroke-miterlimit="10"/>
<path d="M644.205 1010.17C658.129 984.549 642.432 949.114 609.145 931.023C575.857 912.932 537.585 919.036 523.661 944.657C509.736 970.277 525.433 1005.71 558.721 1023.8C592.008 1041.89 630.28 1035.79 644.205 1010.17Z" fill="#66B0F0" stroke="#FFCF2D" stroke-width="5" stroke-miterlimit="10"/>
<path d="M398.575 1274.9L576.275 1129.8L573.475 1181.4L630.375 1195.6L500.775 1275.6C535.575 1269.6 577.475 1264.7 611.975 1267.4C653.075 1270.6 639.275 1318.7 623.875 1359.8C659.875 1356.3 780.575 1283.2 826.075 1297C853.875 1305.4 843.875 1362.1 835.875 1393.4C847.475 1394 906.175 1393.3 906.175 1393.3L875.175 1421.6L892.175 1449.9C826.175 1452.8 825.375 1442.4 833.675 1395.6C835.075 1344.7 778.675 1393.6 658.575 1422.3C599.075 1436.5 606.775 1397.8 621.475 1357.5C615.575 1339 571.475 1318.9 429.775 1355.9L398.575 1274.9Z" fill="#FE5244"/>
<path d="M401.175 1363.3C430.17 1363.3 453.675 1339.8 453.675 1310.8C453.675 1281.81 430.17 1258.3 401.175 1258.3C372.18 1258.3 348.675 1281.81 348.675 1310.8C348.675 1339.8 372.18 1363.3 401.175 1363.3Z" fill="white" stroke="#FE5244" stroke-width="5" stroke-miterlimit="10"/>
<path d="M383.075 1329.5V1332.8C383.075 1366.4 355.875 1393.7 322.175 1393.7H258.275V1329.5H383.075Z" fill="#A0505A"/>
<path d="M460.875 1452.8L443.975 1492.4L424.275 1538.7L413.575 1563.8L397.275 1602.1C396.875 1603.1 396.275 1604.2 395.775 1605.1C395.775 1605.2 395.675 1605.2 395.675 1605.3C390.475 1614.3 380.375 1619.9 369.275 1619.9H239.775C224.075 1619.9 213.375 1605 219.175 1591.3L228.575 1569.2L249.275 1520.6L267.075 1478.7L282.775 1441.9C287.375 1431.1 298.475 1424 310.875 1424H440.375C455.975 1424.2 466.675 1439.1 460.875 1452.8Z" fill="#A0505A"/>
<path d="M272.475 1478.9C277.875 1472.9 285.675 1469.3 294.075 1469.3H417.775C430.775 1469.3 440.175 1480.5 438.875 1492.4" stroke="#73325A" stroke-width="5" stroke-miterlimit="10" stroke-linecap="round"/>
<path d="M255.675 1520.8C260.975 1515.5 268.275 1512.4 276.175 1512.4H399.875C414.075 1512.4 423.875 1525.6 420.275 1538.6" stroke="#73325A" stroke-width="5" stroke-miterlimit="10" stroke-linecap="round"/>
<path d="M236.275 1569.3C241.575 1564.3 248.675 1561.4 256.275 1561.4H379.975C394.575 1561.4 404.675 1575.6 399.975 1589" stroke="#73325A" stroke-width="5" stroke-miterlimit="10" stroke-linecap="round"/>
<path d="M683.575 289.701C691.875 280.801 700.175 272.501 708.375 265.101C716.375 268.801 723.975 273.901 730.875 280.301C737.675 286.701 743.375 293.901 747.675 301.601C740.875 310.301 733.275 319.201 724.975 328.101C683.575 372.601 640.875 400.101 629.375 389.501C617.975 378.901 642.175 334.201 683.575 289.701Z" fill="#FFCF2D"/>
<path d="M392.975 642.101L379.775 650.301C331.875 680.001 238.575 616.101 171.475 507.601C104.275 399.101 88.6751 287.201 136.475 257.501L150.075 249.101L230.975 487.101L392.975 642.101Z" fill="#66B0F0"/>
<path d="M526.975 770.4L392.975 642.1L230.875 487L149.975 249.1L77.675 36.4004L414.375 307.7L526.975 770.4Z" fill="#66B0F0" stroke="white" stroke-width="6" stroke-miterlimit="10"/>
<path d="M537.475 757.701L425.675 295.801L84.7749 27.3008" stroke="#9A3B82" stroke-width="6" stroke-miterlimit="10"/>
<path d="M349.075 443.301C340.475 407.701 362.375 371.801 397.975 363.201C431.775 355.001 466.075 374.301 476.675 407.301L504.775 498.001C520.275 548.201 592.575 544.301 602.675 492.701L618.875 409.401" stroke="#FFCF2D" stroke-width="6" stroke-miterlimit="10"/>
<path d="M622.675 411.701C629.358 411.701 634.775 406.284 634.775 399.601C634.775 392.918 629.358 387.501 622.675 387.501C615.993 387.501 610.575 392.918 610.575 399.601C610.575 406.284 615.993 411.701 622.675 411.701Z" stroke="#66B0F0" stroke-width="6" stroke-miterlimit="10"/>
</svg>
