<svg width="406" height="403" viewBox="0 0 406 403" fill="none" xmlns="http://www.w3.org/2000/svg">
<path d="M174.035 26.9012L178.865 20.7158L183.695 26.9012" stroke="#FFCF2D" stroke-width="6" stroke-miterlimit="10"/>
<path d="M178.865 20.716V0" stroke="#FFCF2D" stroke-width="6" stroke-miterlimit="10"/>
<path d="M178.865 63.7613C183.16 63.7613 186.642 59.3028 186.642 53.803C186.642 48.3032 183.16 43.8447 178.865 43.8447C174.57 43.8447 171.088 48.3032 171.088 53.803C171.088 59.3028 174.57 63.7613 178.865 63.7613Z" fill="#FFCF2D" stroke="white" stroke-width="6" stroke-miterlimit="10"/>
<path d="M204.331 52.9611H153.41L154.089 48.9919C156.324 35.9199 166.74 26.4385 178.876 26.4385C184.944 26.4385 190.585 28.8088 194.977 32.8062C199.38 36.8035 202.534 42.4418 203.652 48.9778L204.331 52.9611Z" stroke="#9A3B82" stroke-width="6" stroke-miterlimit="10" stroke-linecap="round"/>
<path d="M257.343 276.335H252.173V318.132H257.343V276.335Z" fill="#66B0F0"/>
<path d="M351.222 318.132H321.791C320.728 318.132 319.907 316.954 320.038 315.607L324.135 271.328C324.244 270.192 325 269.336 325.887 269.336H355.318C356.38 269.336 357.202 270.515 357.07 271.861L352.974 316.14C352.864 317.276 352.109 318.132 351.222 318.132Z" fill="#9A3B82"/>
<path d="M335.186 318.132H311.944C310.52 318.132 309.414 316.533 309.578 314.724L312.557 282.479C312.7 280.95 313.718 279.786 314.923 279.786H338.724L335.186 318.132Z" fill="white" stroke="#FFCF2D" stroke-width="6" stroke-miterlimit="10"/>
<path d="M337.793 318.132H315.614C314.19 318.132 313.083 316.533 313.248 314.724L316.227 282.479C316.369 280.95 317.388 279.786 318.593 279.786H341.057C341.769 279.786 342.328 280.585 342.24 281.497L338.976 316.772C338.911 317.557 338.396 318.132 337.793 318.132Z" fill="white" stroke="#FFCF2D" stroke-width="6" stroke-miterlimit="10"/>
<path d="M266.642 282.619H257.672V318.132H266.642V282.619Z" stroke="#9A3B82" stroke-width="6" stroke-miterlimit="10" stroke-linecap="round"/>
<path d="M276.15 282.619H263.521V318.132H276.15V282.619Z" stroke="#9A3B82" stroke-width="6" stroke-miterlimit="10" stroke-linecap="round"/>
<path d="M291.451 318.132H287.957L274.956 278.719H278.45L291.451 318.132Z" stroke="#9A3B82" stroke-width="6" stroke-miterlimit="10" stroke-linecap="round"/>
<path d="M298.111 318.131H291.605L280.411 284.708H286.917L298.111 318.131Z" stroke="#9A3B82" stroke-width="6" stroke-miterlimit="10" stroke-linecap="round"/>
<path d="M251.845 282.619H242.797V318.132H251.845V282.619Z" stroke="#9A3B82" stroke-width="6" stroke-miterlimit="10" stroke-linecap="round"/>
<path d="M284.879 255.395H242.797V262.323H284.879V255.395Z" stroke="#9A3B82" stroke-width="6" stroke-miterlimit="10" stroke-linecap="round"/>
<path d="M296.106 250.093H242.797V255.675H296.106V250.093Z" fill="#FE5244"/>
<path d="M278.778 242.042H242.797V249.953H278.778V242.042Z" fill="#FFCF2D"/>
<path d="M284.879 235.997H242.797V241.902H284.879V235.997Z" stroke="#9A3B82" stroke-width="6" stroke-miterlimit="10" stroke-linecap="round"/>
<path d="M357.487 220.429L357.454 220.667L352.481 262.324H306.347L311.32 220.667L311.386 220.078C312.174 218.03 316.994 216.445 322.831 216.445C329.217 216.445 334.387 218.339 334.387 220.667C334.387 218.339 339.557 216.445 345.942 216.445C352.109 216.459 357.136 218.213 357.487 220.429Z" fill="white" stroke="#FFCF2D" stroke-width="6" stroke-miterlimit="10"/>
<path d="M329.469 262.337L334.398 220.681" stroke="#FFCF2D" stroke-width="6" stroke-miterlimit="10"/>
<path d="M329.469 262.337C329.469 260.009 324.299 258.116 317.913 258.116C311.528 258.116 306.358 260.009 306.358 262.337H329.469Z" fill="#FFCF2D"/>
<path d="M352.58 262.337C352.58 260.009 347.41 258.116 341.025 258.116C334.639 258.116 329.469 260.009 329.469 262.337H352.58Z" fill="#FFCF2D"/>
<path d="M329.644 261.453C329.578 259.125 334.694 257.007 341.079 256.713C345.066 256.53 348.998 257.246 351.068 258.27L355.997 218.591" stroke="#FFCF2D" stroke-width="6" stroke-miterlimit="10" stroke-linecap="round"/>
<path d="M353.807 206.529H312.382V194.719C312.382 193.555 313.116 192.615 314.025 192.615H352.175C353.084 192.615 353.818 193.555 353.818 194.719V206.529H353.807Z" fill="white" stroke="#9A3B82" stroke-width="6" stroke-miterlimit="10" stroke-linecap="round"/>
<path d="M357.114 192.055H321.418C320.86 192.055 320.421 191.479 320.421 190.778V186.08C320.421 185.364 320.87 184.803 321.418 184.803H357.114C357.673 184.803 358.111 185.378 358.111 186.08V190.778C358.111 191.479 357.662 192.055 357.114 192.055Z" fill="#FFCF2D"/>
<path d="M358.506 180.399H316.161V184.803H358.506V180.399Z" fill="#FE5244"/>
<path d="M357.739 180.399H325.417C324.989 180.399 324.65 179.95 324.65 179.418V175.869C324.65 175.322 325 174.887 325.417 174.887H357.739C358.166 174.887 358.506 175.336 358.506 175.869V179.418C358.506 179.95 358.166 180.399 357.739 180.399Z" fill="white" stroke="#9A3B82" stroke-width="6" stroke-miterlimit="10" stroke-linecap="round"/>
<path d="M268.822 163.204H256.39V206.529H268.822V163.204Z" stroke="#9A3B82" stroke-width="6" stroke-miterlimit="10" stroke-linecap="round"/>
<path d="M256.39 163.204H251.374V206.529H256.39V163.204Z" fill="white" stroke="#9A3B82" stroke-width="6" stroke-miterlimit="10" stroke-linecap="round"/>
<path d="M251.374 163.204H242.94V206.529H251.374V163.204Z" fill="white" stroke="#9A3B82" stroke-width="6" stroke-miterlimit="10" stroke-linecap="round"/>
<path d="M281.364 171.03H270.465V206.543H281.364V171.03Z" stroke="#9A3B82" stroke-width="6" stroke-miterlimit="10" stroke-linecap="round"/>
<path d="M271.254 206.529H266.96C266.544 206.529 266.193 206.094 266.193 205.547V171.984C266.193 171.451 266.533 171.002 266.96 171.002H271.254C271.67 171.002 272.02 171.437 272.02 171.984V205.547C272.009 206.094 271.67 206.529 271.254 206.529Z" fill="white" stroke="#9A3B82" stroke-width="6" stroke-miterlimit="10" stroke-linecap="round"/>
<path d="M281.363 171.03V190.497L275.459 171.03H281.363Z" fill="#9A3B82"/>
<path d="M306.599 206.529H289.162C288.779 206.529 288.428 206.22 288.297 205.772L276.971 168.435C276.73 167.65 277.179 166.808 277.836 166.808H295.274C295.657 166.808 296.008 167.117 296.139 167.565L307.464 204.902C307.705 205.687 307.256 206.529 306.599 206.529Z" fill="white" stroke="#FFCF2D" stroke-width="6" stroke-miterlimit="10"/>
<path d="M309.447 206.529H292.01C291.626 206.529 291.276 206.22 291.144 205.772L279.819 168.435C279.578 167.65 280.027 166.808 280.684 166.808H298.121C298.505 166.808 298.855 167.117 298.987 167.565L310.312 204.902C310.553 205.687 310.104 206.529 309.447 206.529Z" fill="white" stroke="#FFCF2D" stroke-width="6" stroke-miterlimit="10"/>
<path d="M340.072 141.253C338.44 141.842 336.709 142.165 334.935 142.165C324.562 142.165 316.161 131.407 316.161 118.125C316.161 107.171 321.89 97.9137 329.721 95.0244L340.072 141.253Z" stroke="#FFCF2D" stroke-width="6" stroke-miterlimit="10"/>
<path d="M334.935 142.165V150.735" stroke="#FFCF2D" stroke-width="6" stroke-miterlimit="10"/>
<path d="M334.935 138.49C343.718 138.49 350.838 129.372 350.838 118.125C350.838 106.877 343.718 97.7593 334.935 97.7593C326.151 97.7593 319.031 106.877 319.031 118.125C319.031 129.372 326.151 138.49 334.935 138.49Z" fill="white" stroke="#3FB1B5" stroke-width="6" stroke-miterlimit="10"/>
<path d="M341.583 150.679H328.341L334.913 146.457L341.583 150.679Z" fill="white" stroke="#FFCF2D" stroke-width="6" stroke-miterlimit="10"/>
<path d="M358.505 150.735V399.313H352.514V381.22C352.514 377.194 349.962 373.926 346.818 373.926H254.419C251.275 373.926 248.723 377.194 248.723 381.22V399.313H242.797V150.735H358.505Z" stroke="#9A3B82" stroke-width="6" stroke-miterlimit="10" stroke-linecap="round"/>
<path d="M350.192 367.039H250.892C249.633 367.039 248.603 365.735 248.603 364.108V327.515C248.603 325.902 249.622 324.583 250.892 324.583H350.192C351.452 324.583 352.482 325.888 352.482 327.515V364.108C352.482 365.735 351.452 367.039 350.192 367.039Z" stroke="#3FB1B5" stroke-width="6" stroke-miterlimit="10"/>
<path d="M305.778 116.596V150.735H296.446L305.778 116.596Z" fill="#9A3B82"/>
<path d="M305.778 116.596L305.712 116.848L296.501 150.735H253.674L262.886 116.848L263.182 115.769C264.562 113.23 268.384 111.378 272.941 111.28C273.017 111.28 273.083 111.28 273.16 111.28C273.236 111.28 273.302 111.28 273.379 111.28C278.702 111.28 283.445 113.651 284.31 116.764C285.164 113.651 289.699 111.28 295.022 111.28C300.236 111.28 304.803 113.566 305.778 116.596Z" fill="white" stroke="#FFCF2D" stroke-width="6" stroke-miterlimit="10"/>
<path d="M284.299 116.764L275 150.033" stroke="#FFCF2D" stroke-width="6" stroke-miterlimit="10" stroke-linecap="round"/>
<path d="M274.978 150.314H253.674C254.463 147.158 258.888 144.731 264.211 144.731C269.556 144.731 274.189 147.158 274.978 150.314Z" fill="#FFCF2D"/>
<path d="M296.446 150.314H275.142C275.931 147.158 280.356 144.731 285.679 144.731C291.024 144.731 295.657 147.158 296.446 150.314Z" fill="#FFCF2D"/>
<path d="M293.412 335.426C293.412 334.332 294.102 333.434 294.967 333.434H306.588C307.442 333.434 308.143 334.318 308.143 335.426" stroke="#9A3B82" stroke-width="6" stroke-miterlimit="10" stroke-linecap="round"/>
<path d="M242.797 262.337H358.505" stroke="#9A3B82" stroke-width="6" stroke-miterlimit="10" stroke-linecap="round"/>
<path d="M242.797 206.529H358.505" stroke="#9A3B82" stroke-width="6" stroke-miterlimit="10" stroke-linecap="round"/>
<path d="M242.797 318.132H358.505" stroke="#9A3B82" stroke-width="6" stroke-miterlimit="10" stroke-linecap="round"/>
<path d="M257.036 98.6152L242.797 150.735H358.505L372.744 98.6152" stroke="#9A3B82" stroke-width="6" stroke-miterlimit="10" stroke-linecap="round" stroke-linejoin="round"/>
<path d="M385.735 385.932C385.735 388.751 385.329 391.458 384.585 393.969C383.5 397.616 380.751 400 377.695 400H354.508C351.463 400 348.702 397.616 347.629 393.969C346.884 391.458 346.479 388.751 346.479 385.932C346.479 377.797 349.842 370.616 354.979 366.324V361.583C354.979 363.659 359.962 365.342 366.096 365.342C372.241 365.342 377.213 363.659 377.213 361.583V366.338C382.372 370.616 385.735 377.797 385.735 385.932Z" fill="#FE5244"/>
<path d="M377.235 365.034V366.296C375.472 368.091 370.674 369.045 366.118 369.045C361.561 369.045 356.764 368.091 355 366.296V365.034C355.209 365.637 356.096 366.422 358.067 367.081C360.214 367.811 363.073 368.203 366.118 368.203C369.163 368.203 372.022 367.811 374.168 367.081C376.14 366.408 377.016 365.623 377.235 365.034Z" fill="white"/>
<path d="M377.235 361.584C377.235 363.659 372.252 365.343 366.118 365.343C359.984 365.343 355 363.659 355 361.584C355 361.317 355.077 361.065 355.231 360.812C356.282 359.115 360.751 357.825 366.118 357.825C371.485 357.825 375.954 359.101 377.005 360.812C377.148 361.065 377.235 361.317 377.235 361.584Z" fill="#66B0F0"/>
<path d="M351.233 379.971C352.007 379.971 352.635 379.168 352.635 378.176C352.635 377.185 352.007 376.381 351.233 376.381C350.458 376.381 349.831 377.185 349.831 378.176C349.831 379.168 350.458 379.971 351.233 379.971Z" stroke="#FFCF2D" stroke-width="6" stroke-miterlimit="10"/>
<path d="M355.986 384.389C356.761 384.389 357.388 383.586 357.388 382.594C357.388 381.603 356.761 380.799 355.986 380.799C355.212 380.799 354.584 381.603 354.584 382.594C354.584 383.586 355.212 384.389 355.986 384.389Z" stroke="#FFCF2D" stroke-width="6" stroke-miterlimit="10"/>
<path d="M361.901 379.144C362.675 379.144 363.303 378.34 363.303 377.348C363.303 376.357 362.675 375.553 361.901 375.553C361.127 375.553 360.499 376.357 360.499 377.348C360.499 378.34 361.127 379.144 361.901 379.144Z" stroke="#FFCF2D" stroke-width="6" stroke-miterlimit="10"/>
<path d="M361.068 391.066C361.843 391.066 362.47 390.262 362.47 389.27C362.47 388.279 361.843 387.475 361.068 387.475C360.294 387.475 359.667 388.279 359.667 389.27C359.667 390.262 360.294 391.066 361.068 391.066Z" stroke="#FFCF2D" stroke-width="6" stroke-miterlimit="10"/>
<path d="M355.811 396.297C356.585 396.297 357.213 395.493 357.213 394.502C357.213 393.51 356.585 392.707 355.811 392.707C355.037 392.707 354.409 393.51 354.409 394.502C354.409 395.493 355.037 396.297 355.811 396.297Z" stroke="#FFCF2D" stroke-width="6" stroke-miterlimit="10"/>
<path d="M350.51 391.066C351.284 391.066 351.912 390.262 351.912 389.27C351.912 388.279 351.284 387.475 350.51 387.475C349.736 387.475 349.108 388.279 349.108 389.27C349.108 390.262 349.736 391.066 350.51 391.066Z" stroke="#FFCF2D" stroke-width="6" stroke-miterlimit="10"/>
<path d="M356.753 373.309C357.527 373.309 358.155 372.505 358.155 371.514C358.155 370.522 357.527 369.718 356.753 369.718C355.979 369.718 355.351 370.522 355.351 371.514C355.351 372.505 355.979 373.309 356.753 373.309Z" stroke="#FFCF2D" stroke-width="6" stroke-miterlimit="10"/>
<path d="M367.914 374.669C368.688 374.669 369.316 373.865 369.316 372.874C369.316 371.882 368.688 371.079 367.914 371.079C367.14 371.079 366.512 371.882 366.512 372.874C366.512 373.865 367.14 374.669 367.914 374.669Z" stroke="#FFCF2D" stroke-width="6" stroke-miterlimit="10"/>
<path d="M366.742 385.553C367.517 385.553 368.144 384.75 368.144 383.758C368.144 382.767 367.517 381.963 366.742 381.963C365.968 381.963 365.34 382.767 365.34 383.758C365.34 384.75 365.968 385.553 366.742 385.553Z" stroke="#FFCF2D" stroke-width="6" stroke-miterlimit="10"/>
<path d="M370.795 392.706C371.569 392.706 372.197 391.903 372.197 390.911C372.197 389.92 371.569 389.116 370.795 389.116C370.021 389.116 369.393 389.92 369.393 390.911C369.393 391.903 370.021 392.706 370.795 392.706Z" stroke="#FFCF2D" stroke-width="6" stroke-miterlimit="10"/>
<path d="M365.537 398.093C366.312 398.093 366.939 397.289 366.939 396.297C366.939 395.306 366.312 394.502 365.537 394.502C364.763 394.502 364.135 395.306 364.135 396.297C364.135 397.289 364.763 398.093 365.537 398.093Z" stroke="#FFCF2D" stroke-width="6" stroke-miterlimit="10"/>
<path d="M372.296 381.262C373.07 381.262 373.698 380.458 373.698 379.466C373.698 378.475 373.07 377.671 372.296 377.671C371.521 377.671 370.894 378.475 370.894 379.466C370.894 380.458 371.521 381.262 372.296 381.262Z" stroke="#FFCF2D" stroke-width="6" stroke-miterlimit="10"/>
<path d="M376.359 373.898C377.133 373.898 377.761 373.094 377.761 372.103C377.761 371.111 377.133 370.308 376.359 370.308C375.585 370.308 374.957 371.111 374.957 372.103C374.957 373.094 375.585 373.898 376.359 373.898Z" stroke="#FFCF2D" stroke-width="6" stroke-miterlimit="10"/>
<path d="M380.981 379.859C381.755 379.859 382.383 379.055 382.383 378.063C382.383 377.072 381.755 376.268 380.981 376.268C380.207 376.268 379.579 377.072 379.579 378.063C379.579 379.055 380.207 379.859 380.981 379.859Z" stroke="#FFCF2D" stroke-width="6" stroke-miterlimit="10"/>
<path d="M375.691 385.736C376.465 385.736 377.093 384.932 377.093 383.94C377.093 382.949 376.465 382.145 375.691 382.145C374.916 382.145 374.289 382.949 374.289 383.94C374.289 384.932 374.916 385.736 375.691 385.736Z" stroke="#FFCF2D" stroke-width="6" stroke-miterlimit="10"/>
<path d="M382.022 389.495C382.796 389.495 383.424 388.691 383.424 387.7C383.424 386.708 382.796 385.904 382.022 385.904C381.247 385.904 380.62 386.708 380.62 387.7C380.62 388.691 381.247 389.495 382.022 389.495Z" stroke="#FFCF2D" stroke-width="6" stroke-miterlimit="10"/>
<path d="M377.761 396.395C378.535 396.395 379.163 395.591 379.163 394.6C379.163 393.608 378.535 392.805 377.761 392.805C376.987 392.805 376.359 393.608 376.359 394.6C376.359 395.591 376.987 396.395 377.761 396.395Z" stroke="#FFCF2D" stroke-width="6" stroke-miterlimit="10"/>
<path d="M390.674 339.731C390.674 339.731 401.08 332.536 402.8 345.103C404.793 359.62 391.255 372.397 391.255 372.397C391.255 372.397 388.341 363.154 380.532 355.187C373.774 348.301 379.382 330.039 390.674 339.731Z" fill="white" stroke="#FFCF2D" stroke-width="6" stroke-miterlimit="10"/>
<path d="M370.247 323.728C375.187 323.784 382.284 310.937 375.581 296.841C367.487 279.814 366.096 269.954 366.096 269.954C366.096 269.954 354.19 290.123 356.216 305.593C358.439 322.536 370.247 323.728 370.247 323.728Z" fill="#FFCF2D"/>
<path d="M371.102 315.172C378.32 317.613 385.176 311.989 385.319 299.169C385.571 276.504 388.922 269.126 388.922 269.126C388.922 269.126 366.436 279.491 363.029 295.593C359.787 310.937 371.102 315.172 371.102 315.172Z" fill="white" stroke="#FFCF2D" stroke-width="6" stroke-miterlimit="10"/>
<path d="M340.937 330.096C340.674 330.124 340.4 330.152 340.105 330.18C324.573 331.667 320.104 349.872 320.104 349.872C320.104 349.872 319.151 348.554 319.349 343.995C319.721 332.242 328.166 320.095 337.804 327.81C338.878 328.679 339.929 329.423 340.937 330.096Z" fill="#FFCF2D"/>
<path d="M358.55 334.57C355.811 334.794 349.557 335.762 340.937 330.096C339.929 329.437 338.878 328.679 337.804 327.81C328.166 320.095 319.94 332.242 319.568 343.995C319.546 344.57 319.655 345.145 319.677 345.706C318.768 335.496 318.79 310.081 342.92 310.937C359.502 311.554 358.55 334.57 358.55 334.57Z" fill="white" stroke="#FFCF2D" stroke-width="6" stroke-miterlimit="10"/>
<path d="M362.492 360.84C362.492 360.84 365.351 309.828 326.72 316.491" stroke="#FFCF2D" stroke-width="6" stroke-miterlimit="10"/>
<path d="M388.922 269.126C364.584 300.964 369.119 360.84 369.119 360.84C366.556 337.936 382.284 315.172 390.663 339.128C393.161 346.253 391.244 372.383 391.244 372.383" stroke="#FFCF2D" stroke-width="6" stroke-miterlimit="10"/>
<path d="M28.3046 320.741L25.0406 324.401C24.5149 323.602 24.0439 322.718 23.6387 321.75L3.28792 273.193C2.43359 271.16 3.58366 268.705 5.37996 268.705H8.22774C10.506 268.705 12.587 270.304 13.6604 272.871L29.6628 311.049C31.0429 314.303 30.4733 318.328 28.3046 320.741Z" fill="#FFCF2D"/>
<path d="M83.7049 321.807L36.355 334.261V332.999C36.355 326.954 39.6737 321.75 44.2959 320.53L74.8001 312.507C79.4004 311.301 83.7049 315.803 83.7049 321.807Z" fill="#FFCF2D"/>
<path d="M78.3381 399.313V338.567C78.3381 333.532 74.7345 329.773 70.8791 330.783L41.1416 338.595C37.6038 339.521 34.6903 342.691 33.3978 347.011L17.7021 399.313" stroke="#9A3B82" stroke-width="6" stroke-miterlimit="10" stroke-linecap="round"/>
<path d="M3.16748 272.927L26.2893 328.09C28.2718 332.817 32.434 335.313 36.5413 334.233L83.8146 321.806" stroke="#9A3B82" stroke-width="6" stroke-miterlimit="10" stroke-linecap="round"/>
<path d="M100.496 276.756H60.4849V283.6H100.496V276.756Z" fill="#66B0F0"/>
<path d="M93.2015 269.322C93.6834 269.897 93.9791 270.935 93.9791 271.805C93.9791 273.544 92.7962 275.325 91.3285 275.325H54.833C54.833 276.139 55.3478 276.798 55.9831 276.798H100.025C101.208 276.798 102.271 276.237 103.048 275.311C103.826 274.399 104.297 273.123 104.297 271.721C104.297 268.915 102.38 266.657 100.025 266.657H55.9831C55.3478 266.657 54.833 267.316 54.833 268.13V268.396H91.3285C92.0623 268.41 92.7195 268.761 93.2015 269.322Z" fill="#FE5244"/>
<path d="M57.4725 268.411V275.199H54.8438V275.76H91.4597C91.865 275.76 92.2593 275.662 92.6098 275.48C93.0041 275.283 93.3546 274.975 93.6394 274.61C94.198 273.895 94.5485 272.899 94.5485 271.805C94.5485 269.617 93.1574 267.85 91.4597 267.85H54.8438V268.411H57.4725V268.411Z" fill="#FE5244"/>
<path d="M56.4536 268.411V275.199H91.328C92.7957 275.199 93.9787 273.684 93.9787 271.805C93.9787 270.865 93.6829 270.024 93.201 269.406C92.7191 268.789 92.0619 268.411 91.328 268.411H56.4536V268.411Z" fill="white"/>
<path d="M56.4536 268.411V275.199" stroke="#FE5244" stroke-width="5" stroke-miterlimit="10"/>
<path d="M86.4541 273.221V278.888H89.51V273.951C89.51 272.772 90.2548 271.819 91.1749 271.819H92.533V271.089H88.108C87.2099 271.089 86.4541 272.043 86.4541 273.221Z" fill="#FFCF2D"/>
<path d="M38.02 289.463C38.02 286.476 39.9149 284.049 42.2479 284.049H125.381C127.714 284.049 129.609 286.476 129.609 289.463" stroke="#9A3B82" stroke-width="6" stroke-miterlimit="10" stroke-linecap="round"/>
<path d="M129.675 399.313L106.202 294.624C105.162 289.996 101.58 286.77 97.4838 286.77H70.1341C66.0377 286.77 62.456 289.996 61.4155 294.624L37.9541 399.313" stroke="#9A3B82" stroke-width="6" stroke-miterlimit="10" stroke-linecap="round"/>
<path d="M149.379 381.192V396.452C149.379 398.037 150.376 399.313 151.614 399.313H181.406C181.406 399.313 181.581 392.23 177.047 390.252C169.347 386.9 165.754 381.192 165.754 381.192H149.379V381.192Z" fill="white" stroke="#FE5244" stroke-width="6" stroke-miterlimit="10"/>
<path d="M165.952 389.004C167.167 388.569 171.549 385.469 170.048 383.548C169.336 382.636 167.627 383.548 167.627 383.548" stroke="#FE5244" stroke-width="6" stroke-miterlimit="10"/>
<path d="M170.442 391.108C171.658 390.673 175.864 387.209 174.21 385.511C172.961 384.221 171.088 386.718 171.088 386.718" stroke="#FE5244" stroke-width="6" stroke-miterlimit="10"/>
<path d="M166.674 382.426L149.379 389.313V381.192H165.765C165.765 381.192 166.061 381.669 166.674 382.426Z" fill="#FE5244"/>
<path d="M186.729 381.192V396.452C186.729 398.037 187.726 399.313 188.963 399.313H218.756C218.756 399.313 218.931 392.23 214.396 390.252C206.696 386.9 203.104 381.192 203.104 381.192H186.729V381.192Z" fill="white" stroke="#FE5244" stroke-width="6" stroke-miterlimit="10"/>
<path d="M203.301 389.004C204.517 388.569 208.898 385.469 207.398 383.548C206.686 382.636 204.977 383.548 204.977 383.548" stroke="#FE5244" stroke-width="6" stroke-miterlimit="10"/>
<path d="M207.792 391.108C209.008 390.673 213.214 387.209 211.56 385.511C210.311 384.221 208.438 386.718 208.438 386.718" stroke="#FE5244" stroke-width="6" stroke-miterlimit="10"/>
<path d="M204.024 382.426L186.729 389.313V381.192H203.115C203.115 381.192 203.41 381.669 204.024 382.426Z" fill="#FE5244"/>
<path d="M157.43 229.293L146.641 373.926H169.204L180.541 303.84L185.174 318.777V373.926H208.668V312.087L196.138 229.293H157.43Z" fill="#3FB1B5"/>
<path d="M169.182 264.034L158.689 373.926" stroke="#9A3B82" stroke-width="6" stroke-miterlimit="10"/>
<path d="M196.51 373.926V312.087L181.79 236.306" stroke="#9A3B82" stroke-width="6" stroke-miterlimit="10"/>
<path d="M184.845 318.777L170.782 266.475C170.3 264.68 168.974 263.474 167.485 263.474" stroke="white" stroke-width="6" stroke-miterlimit="10"/>
<path d="M155.645 253.207L157.43 229.293H196.138L197.244 236.642L155.645 253.207Z" fill="#9A3B82"/>
<path d="M208.712 381.192H185.086C184.199 381.192 183.476 380.266 183.476 379.13V375.988C183.476 374.852 184.199 373.926 185.086 373.926H208.712C209.599 373.926 210.322 374.852 210.322 375.988V379.13C210.311 380.266 209.599 381.192 208.712 381.192Z" fill="#9A3B82"/>
<path d="M169.609 381.192H145.984C145.096 381.192 144.374 380.266 144.374 379.13V375.988C144.374 374.852 145.096 373.926 145.984 373.926H169.609C170.497 373.926 171.219 374.852 171.219 375.988V379.13C171.208 380.266 170.497 381.192 169.609 381.192Z" fill="#9A3B82"/>
<path d="M232.666 233.529L240.07 269L203.159 281.637L195.743 246.138C195.513 245.03 194.955 244.16 194.243 243.627C193.531 243.094 192.655 242.912 191.789 243.206C190.07 243.795 189.04 246.068 189.5 248.27L196.915 283.769L196.105 284.049L188.701 248.578C188.109 245.759 189.38 242.87 191.548 242.028C191.592 242.014 191.636 242 191.68 241.986L227.518 229.714C229.764 228.956 232.064 230.667 232.666 233.529Z" fill="#66B0F0"/>
<path d="M196.565 245.899L203.969 281.37L203.159 281.651L195.743 246.152C195.513 245.044 194.955 244.174 194.243 243.641C193.531 243.108 192.655 242.926 191.789 243.22C190.07 243.81 189.04 246.082 189.5 248.284L196.915 283.783L196.105 284.063L188.701 248.592C188.109 245.773 189.38 242.884 191.548 242.042C193.75 241.383 195.974 243.08 196.565 245.899Z" fill="#9A3B82"/>
<path d="M195.744 246.138L202.699 279.463L196.456 281.595L189.501 248.27C189.041 246.068 190.059 243.795 191.79 243.206C192.655 242.912 193.531 243.094 194.243 243.627C194.955 244.16 195.514 245.03 195.744 246.138Z" fill="white"/>
<path d="M232.776 252.323L215.985 259.728L202.732 229.293H151.362C142.633 229.293 136.105 219.012 137.89 208.072L143.235 175.195C144.911 164.9 151.997 157.523 160.201 157.523H195.327C203.838 157.523 211.089 165.433 212.436 176.191L217.726 208.198L232.776 252.323Z" fill="#FFCF2D" stroke="white" stroke-width="6" stroke-miterlimit="10"/>
<path d="M148.623 228.942C142.577 227.385 138.086 220.793 137.626 213.023C138.086 212.616 138.601 212.265 139.149 212.013C143.125 210.133 147.67 213.219 149.324 218.899C150.343 222.462 149.992 226.193 148.623 228.942Z" fill="white"/>
<path d="M186.872 137.803V157.537H169.862L173.783 144.409L186.872 137.803Z" fill="#E57281"/>
<path d="M190.782 129.5C190.771 129.5 190.749 129.514 190.738 129.514L185.689 131.225C183.881 131.842 182.49 133.553 181.899 135.713H179.96C178.733 135.713 177.737 136.989 177.737 138.56V138.602C177.737 140.089 178.624 141.309 179.763 141.436C179.752 141.45 179.752 141.45 179.752 141.45C179.752 141.45 178.854 146.92 173.607 145.082C173.607 145.082 173.816 130.692 174.035 126.218C174.221 122.529 189.5 115.544 190.913 118.518C192.162 121.154 190.716 122.389 189.489 122.936C191.658 122.347 195.754 121.561 196.171 123.903C196.653 126.624 192.326 128.981 190.782 129.5Z" fill="#9A3B82"/>
<path d="M191.767 139.584H191.231L191.384 142.95C191.494 145.363 189.982 147.411 188.098 147.411H185.732C183.454 147.411 181.603 145.04 181.603 142.123V141.464H179.971C178.744 141.464 177.748 140.187 177.748 138.617V138.574C177.748 137.004 178.744 135.727 179.971 135.727H181.91C182.501 133.567 183.892 131.842 185.699 131.239L190.749 129.528L192.479 138.406C192.655 138.967 192.238 139.584 191.767 139.584Z" fill="#E57281"/>
<path d="M182.118 142.389C181.888 145.475 184.298 147.677 186.576 147.677" stroke="#9A3B82" stroke-width="5" stroke-miterlimit="10" stroke-linecap="round"/>
<path d="M181.231 139.093C181.231 137.999 180.541 137.116 179.687 137.116" stroke="#9A3B82" stroke-width="5" stroke-miterlimit="10" stroke-linecap="round"/>
<path d="M189.906 137.088C190.13 137.088 190.311 136.604 190.311 136.008C190.311 135.411 190.13 134.928 189.906 134.928C189.682 134.928 189.5 135.411 189.5 136.008C189.5 136.604 189.682 137.088 189.906 137.088Z" fill="#9A3B82"/>
<path d="M188.153 133.735C188.153 133.735 189.5 132.417 191.428 132.417" stroke="#9A3B82" stroke-width="5" stroke-miterlimit="10" stroke-linecap="round"/>
<path d="M182.939 238.283C182.939 238.283 196.357 239.027 201.078 225.239L198.58 219.391L191.121 223.065L182.939 238.283Z" fill="white" stroke="#FE5244" stroke-width="6" stroke-miterlimit="10"/>
<path d="M193.684 153.918C193.038 153.989 192.447 154.353 192.008 154.914C191.526 155.531 191.22 156.387 191.22 157.341V226.446C191.22 233.038 187.047 238.381 181.899 238.381H161.208C155.644 238.381 151.351 232.196 151.942 225.169V225.155L159.39 159.557C159.763 156.317 161.92 153.918 164.483 153.918H193.684V153.918Z" fill="#FE5244" stroke="#FE5244" stroke-width="6" stroke-miterlimit="10"/>
<path d="M191.603 153.918C190.957 153.988 190.366 154.353 189.928 154.914C189.522 155.433 189.249 156.106 189.172 156.864C189.161 157.018 189.15 157.172 189.15 157.327L188.712 162.614L183.454 226.431C183.454 233.023 179.281 238.367 174.133 238.367H161.22C155.656 238.367 151.362 232.182 151.953 225.155V225.141L155.316 195.491L159.402 159.543C159.434 159.234 159.489 158.926 159.555 158.617C160.19 155.854 162.184 153.904 164.484 153.904H191.603V153.918Z" fill="white" stroke="#FE5244" stroke-width="6" stroke-miterlimit="10"/>
<path d="M186.992 167.678L185.031 186.514C184.385 190.371 182.041 192.433 178.646 193.134L155.425 197.454L158.81 167.664H186.992V167.678Z" fill="#FFCF2D"/>
<path d="M190.771 153.919H190.191C189.139 153.905 188.219 154.858 188.011 156.191L184.593 184.425C183.947 188.282 181.286 191.045 178.208 191.045H156.839C154.254 191.045 152.326 187.987 152.884 184.747L157.003 160.791C157.693 156.78 160.475 153.919 163.684 153.919H190.771Z" fill="#FE5244" stroke="#FE5244" stroke-width="6" stroke-miterlimit="10"/>
<path d="M173.159 198.899L178.602 156.275C178.712 155.42 179.292 154.774 179.971 154.774C180.826 154.774 181.483 155.756 181.341 156.85L175.897 199.474C175.787 200.33 175.207 200.975 174.528 200.975C173.673 200.975 173.016 199.993 173.159 198.899Z" fill="white" stroke="#FE5244" stroke-width="6" stroke-miterlimit="10"/>
<path d="M160.99 198.899L166.433 156.275C166.543 155.42 167.123 154.774 167.802 154.774C168.657 154.774 169.314 155.756 169.172 156.85L163.728 199.474C163.618 200.33 163.038 200.975 162.359 200.975C161.504 200.975 160.847 199.993 160.99 198.899Z" fill="white" stroke="#FE5244" stroke-width="6" stroke-miterlimit="10"/>
<path d="M196.587 157.551L191.231 157.579V157.341C191.231 156.387 191.527 155.531 192.02 154.914C192.458 154.353 193.038 153.989 193.695 153.918H194.134C195.481 154.059 196.543 155.517 196.587 157.551Z" fill="white" stroke="#FE5244" stroke-width="6" stroke-miterlimit="10"/>
<path d="M230.771 253.207L235.284 268.116C236.006 270.514 234.955 273.179 233.027 273.866L223.115 277.345C222.512 277.555 221.877 277.373 221.406 276.854L220.398 275.732L222.458 275.031C223.367 274.722 223.98 273.642 223.936 272.436L223.706 269.462C223.662 268.13 222.819 267.064 221.778 267.022H221.888C220.628 266.966 219.402 265.97 218.909 264.483L217.332 259.111L230.771 253.207Z" fill="#E57281"/>
<path d="M220.607 276.027L222.228 275.465C223.137 275.157 223.751 274.217 223.707 273.011L223.586 269.757C223.542 268.425 222.699 267.359 221.659 267.317C220.399 267.26 219.282 266.265 218.789 264.778L217.102 259.687" stroke="white" stroke-width="6" stroke-miterlimit="10" stroke-linecap="round"/>
<path d="M225.908 275.999C227.069 275.606 227.858 274.232 227.803 272.689L227.65 268.537" stroke="white" stroke-width="6" stroke-miterlimit="10" stroke-linecap="round"/>
<path d="M230.103 274.61C231.264 274.217 232.053 272.842 231.998 271.3L231.845 267.148" stroke="white" stroke-width="6" stroke-miterlimit="10" stroke-linecap="round"/>
<path d="M192.578 191.044L195.229 208.801C195.678 211.831 196.51 214.762 197.682 217.455L215.974 259.728L232.765 252.323" stroke="white" stroke-width="6" stroke-miterlimit="10"/>
<path d="M203.674 231.313L197.682 217.455C196.675 215.113 195.919 212.616 195.437 210.022C196.007 209.783 196.598 209.615 197.222 209.545C201.954 209.012 206.149 214.103 206.598 220.906C206.861 225.029 205.689 228.83 203.674 231.313Z" fill="white"/>
</svg>
