<svg width="512" height="512" viewBox="0 0 512 512" fill="none" xmlns="http://www.w3.org/2000/svg">
<path d="M252.995 294.313C231.627 294.313 214.248 277.134 214.248 256.011C214.248 252.262 211.17 249.22 207.378 249.22C203.586 249.22 200.508 252.262 200.508 256.011C200.508 284.621 224.064 307.896 252.995 307.896C281.927 307.896 305.483 284.621 305.483 256.011C305.483 227.401 281.927 204.126 252.995 204.126C235.32 204.126 218.931 212.83 209.17 227.401C207.092 230.52 207.96 234.746 211.104 236.822C214.204 238.821 218.623 237.919 220.634 234.909C227.834 224.141 239.937 217.709 252.995 217.709C274.364 217.709 291.742 234.888 291.742 256.011C291.753 277.134 274.375 294.313 252.995 294.313Z" fill="#010002"/>
<path d="M252.666 0C221.36 0 190.538 5.61766 161.058 16.6574C79.474 47.2991 19.325 115.841 0.165761 199.997C-0.658649 203.626 1.67168 207.267 5.38702 208.114C9.02541 208.929 12.7737 206.506 13.5871 202.964C31.7242 123.252 88.6854 58.3497 165.927 29.3596C193.858 18.874 223.053 13.5606 252.71 13.5606C354.101 13.5606 446.347 76.4088 482.269 169.953C530.261 294.9 466.463 435.146 340.064 482.608C312.133 493.104 282.927 498.418 253.27 498.418C151.912 498.418 59.6771 435.591 23.7439 342.069C22.4468 338.711 18.4347 336.831 14.8622 338.135C11.3448 339.472 9.56403 343.405 10.8941 346.904C48.8389 445.653 146.24 512 253.281 512C284.642 512 315.486 506.382 344.945 495.321C478.444 445.207 545.804 297.084 495.13 165.129C457.185 66.3579 359.74 0 252.666 0Z" fill="#010002"/>
<path d="M139.15 169.627C138.853 167.834 137.864 166.269 136.369 165.226C133.401 163.075 128.884 163.846 126.784 166.78C77.0337 235.572 93.1481 331.572 162.739 380.761C189.164 399.451 220.305 409.328 252.776 409.328C302.9 409.328 350.155 385.369 379.207 345.23C403.28 311.959 412.799 271.353 405.995 230.888C399.202 190.424 376.91 155.045 343.263 131.248C316.717 112.472 285.499 102.53 252.996 102.53C233.968 102.53 215.238 105.953 197.375 112.722C193.836 114.048 192.055 117.97 193.407 121.491C194.726 124.881 198.848 126.685 202.289 125.413C218.579 119.252 235.65 116.134 252.996 116.134C282.619 116.134 311.078 125.185 335.283 142.288C398.685 187.132 413.382 274.634 368.039 337.341C341.559 373.927 298.481 395.767 252.798 395.767C223.196 395.767 194.814 386.759 170.72 369.733C107.295 324.878 92.5875 237.375 137.93 174.69C139.018 173.212 139.447 171.419 139.15 169.627Z" fill="#010002"/>
</svg>
